<mxfile host="app.diagrams.net" modified="2022-12-05T20:13:10.296Z" agent="5.0 (Macintosh; Intel Mac OS X 10_15_7) AppleWebKit/537.36 (KHTML, like Gecko) Chrome/107.0.0.0 Safari/537.36" etag="lrfxE3j7eo0PLQ79Mbhw" version="20.6.0" type="github" pages="5">
  <diagram id="eBZPCUwAmjRv_d9kRt3B" name="Ejemplo Diagrama Secuencia">
    <mxGraphModel dx="1393" dy="745" grid="1" gridSize="10" guides="1" tooltips="1" connect="1" arrows="1" fold="1" page="1" pageScale="1" pageWidth="827" pageHeight="1169" math="0" shadow="0">
      <root>
        <mxCell id="8X-B5eLiUGSxzaVmwQ0h-0" />
        <mxCell id="8X-B5eLiUGSxzaVmwQ0h-1" parent="8X-B5eLiUGSxzaVmwQ0h-0" />
        <mxCell id="iJw95iNtKCGBzQQrhm9y-0" value="Bucle" style="shape=umlFrame;whiteSpace=wrap;html=1;" parent="8X-B5eLiUGSxzaVmwQ0h-1" vertex="1">
          <mxGeometry x="280" y="441" width="410" height="120" as="geometry" />
        </mxCell>
        <mxCell id="iJw95iNtKCGBzQQrhm9y-1" value="Sistema Restaurante" style="shape=umlLifeline;perimeter=lifelinePerimeter;whiteSpace=wrap;html=1;container=1;collapsible=0;recursiveResize=0;outlineConnect=0;rounded=1;shadow=0;comic=0;labelBackgroundColor=none;strokeWidth=1;fontFamily=Verdana;fontSize=12;align=center;" parent="8X-B5eLiUGSxzaVmwQ0h-1" vertex="1">
          <mxGeometry x="559" y="384" width="100" height="657" as="geometry" />
        </mxCell>
        <mxCell id="iJw95iNtKCGBzQQrhm9y-2" value="" style="html=1;points=[];perimeter=orthogonalPerimeter;rounded=0;shadow=0;comic=0;labelBackgroundColor=none;strokeWidth=1;fontFamily=Verdana;fontSize=12;align=center;fillColor=#bac8d3;strokeColor=#23445d;" parent="iJw95iNtKCGBzQQrhm9y-1" vertex="1">
          <mxGeometry x="45" y="100" width="10" height="230" as="geometry" />
        </mxCell>
        <mxCell id="iJw95iNtKCGBzQQrhm9y-3" value="" style="html=1;points=[];perimeter=orthogonalPerimeter;fillColor=#bac8d3;strokeColor=#23445d;" parent="iJw95iNtKCGBzQQrhm9y-1" vertex="1">
          <mxGeometry x="45" y="380" width="10" height="190" as="geometry" />
        </mxCell>
        <mxCell id="iJw95iNtKCGBzQQrhm9y-4" value="Restaurante" style="shape=umlLifeline;perimeter=lifelinePerimeter;whiteSpace=wrap;html=1;container=1;collapsible=0;recursiveResize=0;outlineConnect=0;rounded=1;shadow=0;comic=0;labelBackgroundColor=none;strokeWidth=1;fontFamily=Verdana;fontSize=12;align=center;" parent="8X-B5eLiUGSxzaVmwQ0h-1" vertex="1">
          <mxGeometry x="759" y="384" width="100" height="657" as="geometry" />
        </mxCell>
        <mxCell id="iJw95iNtKCGBzQQrhm9y-5" value="Banco" style="shape=umlLifeline;perimeter=lifelinePerimeter;whiteSpace=wrap;html=1;container=1;collapsible=0;recursiveResize=0;outlineConnect=0;rounded=1;shadow=0;comic=0;labelBackgroundColor=none;strokeWidth=1;fontFamily=Verdana;fontSize=12;align=center;" parent="8X-B5eLiUGSxzaVmwQ0h-1" vertex="1">
          <mxGeometry x="969" y="384" width="100" height="657" as="geometry" />
        </mxCell>
        <mxCell id="iJw95iNtKCGBzQQrhm9y-6" value="Cliente" style="shape=umlLifeline;perimeter=lifelinePerimeter;whiteSpace=wrap;html=1;container=1;collapsible=0;recursiveResize=0;outlineConnect=0;rounded=1;shadow=0;comic=0;labelBackgroundColor=none;strokeWidth=1;fontFamily=Verdana;fontSize=12;align=center;" parent="8X-B5eLiUGSxzaVmwQ0h-1" vertex="1">
          <mxGeometry x="349" y="384" width="100" height="657" as="geometry" />
        </mxCell>
        <mxCell id="iJw95iNtKCGBzQQrhm9y-7" value="" style="html=1;points=[];perimeter=orthogonalPerimeter;rounded=0;shadow=0;comic=0;labelBackgroundColor=none;strokeWidth=1;fontFamily=Verdana;fontSize=12;align=center;fillColor=#bac8d3;strokeColor=#23445d;" parent="iJw95iNtKCGBzQQrhm9y-6" vertex="1">
          <mxGeometry x="45" y="100" width="10" height="520" as="geometry" />
        </mxCell>
        <mxCell id="iJw95iNtKCGBzQQrhm9y-8" value="" style="html=1;points=[];perimeter=orthogonalPerimeter;rounded=0;shadow=0;comic=0;labelBackgroundColor=none;strokeWidth=1;fontFamily=Verdana;fontSize=12;align=center;fillColor=#bac8d3;strokeColor=#23445d;" parent="8X-B5eLiUGSxzaVmwQ0h-1" vertex="1">
          <mxGeometry x="1014" y="744" width="10" height="140" as="geometry" />
        </mxCell>
        <mxCell id="iJw95iNtKCGBzQQrhm9y-9" value="Detalle del Pago" style="html=1;verticalAlign=bottom;endArrow=block;labelBackgroundColor=none;fontFamily=Verdana;fontSize=12;" parent="8X-B5eLiUGSxzaVmwQ0h-1" edge="1">
          <mxGeometry relative="1" as="geometry">
            <mxPoint x="404" y="783" as="sourcePoint" />
            <mxPoint x="604" y="783" as="targetPoint" />
            <Array as="points">
              <mxPoint x="540" y="783" />
            </Array>
          </mxGeometry>
        </mxCell>
        <mxCell id="iJw95iNtKCGBzQQrhm9y-10" value="Aceptar&amp;nbsp;" style="html=1;verticalAlign=bottom;endArrow=open;dashed=1;endSize=8;labelBackgroundColor=none;fontFamily=Verdana;fontSize=12;edgeStyle=elbowEdgeStyle;elbow=vertical;" parent="8X-B5eLiUGSxzaVmwQ0h-1" edge="1">
          <mxGeometry x="0.3333" y="-8" relative="1" as="geometry">
            <mxPoint x="620" y="869" as="targetPoint" />
            <Array as="points">
              <mxPoint x="819" y="869" />
            </Array>
            <mxPoint x="1010" y="869" as="sourcePoint" />
            <mxPoint as="offset" />
          </mxGeometry>
        </mxCell>
        <mxCell id="iJw95iNtKCGBzQQrhm9y-11" value="Agregar elemento&lt;br&gt;del pedido" style="html=1;verticalAlign=bottom;endArrow=block;entryX=0;entryY=0;labelBackgroundColor=none;fontFamily=Verdana;fontSize=12;edgeStyle=elbowEdgeStyle;elbow=vertical;" parent="8X-B5eLiUGSxzaVmwQ0h-1" source="iJw95iNtKCGBzQQrhm9y-7" target="iJw95iNtKCGBzQQrhm9y-2" edge="1">
          <mxGeometry relative="1" as="geometry">
            <mxPoint x="469" y="494" as="sourcePoint" />
          </mxGeometry>
        </mxCell>
        <mxCell id="iJw95iNtKCGBzQQrhm9y-12" value="Enviar Pedido" style="html=1;verticalAlign=bottom;endArrow=block;labelBackgroundColor=none;fontFamily=Verdana;fontSize=12;edgeStyle=elbowEdgeStyle;elbow=vertical;" parent="8X-B5eLiUGSxzaVmwQ0h-1" source="iJw95iNtKCGBzQQrhm9y-2" edge="1">
          <mxGeometry relative="1" as="geometry">
            <mxPoint x="689" y="504" as="sourcePoint" />
            <mxPoint x="800" y="621" as="targetPoint" />
            <Array as="points">
              <mxPoint x="750" y="621" />
              <mxPoint x="680" y="591" />
            </Array>
          </mxGeometry>
        </mxCell>
        <mxCell id="iJw95iNtKCGBzQQrhm9y-13" value="" style="html=1;points=[];perimeter=orthogonalPerimeter;rounded=0;shadow=0;comic=0;labelBackgroundColor=none;strokeWidth=1;fontFamily=Verdana;fontSize=12;align=center;fillColor=#eeeeee;strokeColor=#36393d;" parent="8X-B5eLiUGSxzaVmwQ0h-1" vertex="1">
          <mxGeometry x="1019" y="824" width="10" height="40" as="geometry" />
        </mxCell>
        <mxCell id="iJw95iNtKCGBzQQrhm9y-14" value="Procesar Pago en&amp;nbsp;&lt;br&gt;&amp;nbsp;Sistemas Internos" style="html=1;verticalAlign=bottom;endArrow=block;labelBackgroundColor=none;fontFamily=Verdana;fontSize=12;elbow=vertical;edgeStyle=orthogonalEdgeStyle;curved=1;entryX=1;entryY=0.286;entryPerimeter=0;exitX=1.038;exitY=0.345;exitPerimeter=0;" parent="8X-B5eLiUGSxzaVmwQ0h-1" edge="1">
          <mxGeometry x="-0.2335" y="21" relative="1" as="geometry">
            <mxPoint x="1024.3333333333335" y="805" as="sourcePoint" />
            <mxPoint x="1029.3333333333335" y="843.3333333333334" as="targetPoint" />
            <Array as="points">
              <mxPoint x="1079" y="805" />
              <mxPoint x="1079" y="843" />
            </Array>
            <mxPoint as="offset" />
          </mxGeometry>
        </mxCell>
        <object label="" placeholders="1" id="iJw95iNtKCGBzQQrhm9y-15">
          <mxCell style="shape=umlActor;verticalLabelPosition=bottom;labelBackgroundColor=#ffffff;verticalAlign=top;html=1;gradientColor=#7ea6e0;fillColor=#dae8fc;strokeColor=#6c8ebf;" parent="8X-B5eLiUGSxzaVmwQ0h-1" vertex="1">
            <mxGeometry x="387" y="330" width="24.5" height="48.5" as="geometry" />
          </mxCell>
        </object>
        <mxCell id="iJw95iNtKCGBzQQrhm9y-16" value="Confirmar Pedido" style="edgeStyle=orthogonalEdgeStyle;rounded=0;orthogonalLoop=1;jettySize=auto;html=1;" parent="8X-B5eLiUGSxzaVmwQ0h-1" source="iJw95iNtKCGBzQQrhm9y-7" edge="1">
          <mxGeometry x="0.4279" y="51" relative="1" as="geometry">
            <mxPoint x="600" y="591" as="targetPoint" />
            <Array as="points">
              <mxPoint x="600" y="591" />
              <mxPoint x="600" y="591" />
            </Array>
            <mxPoint x="-50" y="41" as="offset" />
          </mxGeometry>
        </mxCell>
        <mxCell id="iJw95iNtKCGBzQQrhm9y-17" value="Aceptar" style="html=1;verticalAlign=bottom;endArrow=open;dashed=1;endSize=8;labelBackgroundColor=none;fontFamily=Verdana;fontSize=12;edgeStyle=elbowEdgeStyle;elbow=vertical;" parent="8X-B5eLiUGSxzaVmwQ0h-1" target="iJw95iNtKCGBzQQrhm9y-2" edge="1">
          <mxGeometry relative="1" as="geometry">
            <mxPoint x="804" y="674" as="sourcePoint" />
            <mxPoint x="620" y="674" as="targetPoint" />
            <Array as="points">
              <mxPoint x="770" y="674" />
              <mxPoint x="770" y="674" />
            </Array>
          </mxGeometry>
        </mxCell>
        <object label="" placeholders="1" id="iJw95iNtKCGBzQQrhm9y-18">
          <mxCell style="shape=umlActor;verticalLabelPosition=bottom;labelBackgroundColor=#ffffff;verticalAlign=top;html=1;gradientColor=#7ea6e0;fillColor=#dae8fc;strokeColor=#6c8ebf;" parent="8X-B5eLiUGSxzaVmwQ0h-1" vertex="1">
            <mxGeometry x="797" y="330" width="26.5" height="48.5" as="geometry" />
          </mxCell>
        </object>
        <mxCell id="iJw95iNtKCGBzQQrhm9y-19" value="" style="html=1;points=[];perimeter=orthogonalPerimeter;fillColor=#bac8d3;strokeColor=#23445d;" parent="8X-B5eLiUGSxzaVmwQ0h-1" vertex="1">
          <mxGeometry x="803" y="561" width="10" height="150" as="geometry" />
        </mxCell>
        <mxCell id="iJw95iNtKCGBzQQrhm9y-20" value="Procesar Pago" style="html=1;verticalAlign=bottom;endArrow=block;labelBackgroundColor=none;fontFamily=Verdana;fontSize=12;edgeStyle=elbowEdgeStyle;elbow=vertical;" parent="8X-B5eLiUGSxzaVmwQ0h-1" source="iJw95iNtKCGBzQQrhm9y-3" target="iJw95iNtKCGBzQQrhm9y-8" edge="1">
          <mxGeometry x="-0.27" y="20" relative="1" as="geometry">
            <Array as="points">
              <mxPoint x="760" y="814" />
              <mxPoint x="760" y="814" />
            </Array>
            <mxPoint x="-20" y="17" as="offset" />
          </mxGeometry>
        </mxCell>
        <mxCell id="iJw95iNtKCGBzQQrhm9y-21" value="" style="html=1;points=[];perimeter=orthogonalPerimeter;fillColor=#bac8d3;strokeColor=#23445d;" parent="8X-B5eLiUGSxzaVmwQ0h-1" vertex="1">
          <mxGeometry x="803" y="881" width="10" height="110" as="geometry" />
        </mxCell>
        <mxCell id="iJw95iNtKCGBzQQrhm9y-22" value="Confirmar Pedido" style="html=1;verticalAlign=bottom;endArrow=block;labelBackgroundColor=none;fontFamily=Verdana;fontSize=12;" parent="8X-B5eLiUGSxzaVmwQ0h-1" edge="1">
          <mxGeometry x="0.4783" y="-32" relative="1" as="geometry">
            <mxPoint x="616" y="911" as="sourcePoint" />
            <mxPoint x="800" y="911" as="targetPoint" />
            <Array as="points">
              <mxPoint x="752" y="911" />
            </Array>
            <mxPoint x="-32" y="-32" as="offset" />
          </mxGeometry>
        </mxCell>
        <mxCell id="iJw95iNtKCGBzQQrhm9y-23" value="Confirmado" style="html=1;verticalAlign=bottom;endArrow=open;dashed=1;endSize=8;labelBackgroundColor=none;fontFamily=Verdana;fontSize=12;edgeStyle=elbowEdgeStyle;elbow=vertical;" parent="8X-B5eLiUGSxzaVmwQ0h-1" edge="1">
          <mxGeometry x="0.2663" y="-3" relative="1" as="geometry">
            <mxPoint x="407" y="944" as="targetPoint" />
            <Array as="points">
              <mxPoint x="606" y="944" />
            </Array>
            <mxPoint x="606" y="944" as="sourcePoint" />
            <mxPoint as="offset" />
          </mxGeometry>
        </mxCell>
        <mxCell id="iJw95iNtKCGBzQQrhm9y-24" value="Enviar Alimento Cliente" style="html=1;verticalAlign=bottom;endArrow=block;labelBackgroundColor=none;fontFamily=Verdana;fontSize=12;" parent="8X-B5eLiUGSxzaVmwQ0h-1" edge="1">
          <mxGeometry x="0.6072" relative="1" as="geometry">
            <mxPoint x="672" y="981" as="sourcePoint" />
            <mxPoint x="403.92857142857133" y="981" as="targetPoint" />
            <Array as="points">
              <mxPoint x="808" y="981" />
            </Array>
            <mxPoint as="offset" />
          </mxGeometry>
        </mxCell>
        <mxCell id="iJw95iNtKCGBzQQrhm9y-25" value="[ Realizar hasta completar pedido ]&amp;nbsp;" style="text;html=1;strokeColor=none;fillColor=none;align=center;verticalAlign=middle;whiteSpace=wrap;rounded=0;" parent="8X-B5eLiUGSxzaVmwQ0h-1" vertex="1">
          <mxGeometry x="280" y="491" width="110" height="40" as="geometry" />
        </mxCell>
        <mxCell id="iJw95iNtKCGBzQQrhm9y-26" value="" style="rounded=0;whiteSpace=wrap;html=1;strokeColor=#CCCCCC;" parent="8X-B5eLiUGSxzaVmwQ0h-1" vertex="1">
          <mxGeometry x="473" y="220" width="480" height="70" as="geometry" />
        </mxCell>
        <mxCell id="iJw95iNtKCGBzQQrhm9y-27" value="Diagrama de Secuencia Comprar Alimentos&amp;nbsp;" style="text;html=1;strokeColor=none;fillColor=none;align=center;verticalAlign=middle;whiteSpace=wrap;rounded=0;fontStyle=1;fontSize=20;" parent="8X-B5eLiUGSxzaVmwQ0h-1" vertex="1">
          <mxGeometry x="483" y="240" width="470" height="20" as="geometry" />
        </mxCell>
      </root>
    </mxGraphModel>
  </diagram>
  <diagram id="Q3PKiOVOHsYnpIps-evG" name="Diagrama Circular 005">
    <mxGraphModel dx="3408" dy="1568" grid="1" gridSize="10" guides="1" tooltips="1" connect="1" arrows="1" fold="1" page="1" pageScale="1" pageWidth="827" pageHeight="1169" math="0" shadow="0">
      <root>
        <mxCell id="0" />
        <mxCell id="1" parent="0" />
        <mxCell id="ZWZFDb_ZpwZTJIpMt9Q7-1" value="" style="html=1;shadow=0;dashed=0;shape=mxgraph.bootstrap.rrect;rSize=5;strokeColor=#006EAF;html=1;whiteSpace=wrap;fillColor=#FFFFFF;fontColor=#ffffff;align=left;spacing=15;fontSize=14;verticalAlign=top;spacingTop=40;gradientColor=#ffffff;rotation=0;" vertex="1" parent="1">
          <mxGeometry x="244" y="220" width="230" height="1370" as="geometry" />
        </mxCell>
        <mxCell id="ZWZFDb_ZpwZTJIpMt9Q7-2" value="" style="html=1;shadow=0;dashed=0;shape=mxgraph.bootstrap.rrect;rSize=5;strokeColor=#006EAF;html=1;whiteSpace=wrap;fillColor=#FFFFFF;fontColor=#ffffff;align=left;spacing=15;fontSize=14;verticalAlign=top;spacingTop=40;gradientColor=#ffffff;rotation=0;" vertex="1" parent="1">
          <mxGeometry x="2054" y="221" width="1650" height="1380" as="geometry" />
        </mxCell>
        <mxCell id="ZWZFDb_ZpwZTJIpMt9Q7-3" value="&lt;div&gt;&lt;font style=&quot;font-size: 24px&quot;&gt;Usuarios&lt;/font&gt;&lt;/div&gt;" style="html=1;shadow=0;dashed=0;shape=mxgraph.bootstrap.rrect;rSize=5;strokeWidth=1;whiteSpace=wrap;align=center;verticalAlign=middle;spacingLeft=0;fontStyle=1;fontSize=14;spacing=5;fillColor=#003469;strokeColor=#001DBC;fontColor=#ffffff;" vertex="1" parent="1">
          <mxGeometry x="240" y="120" width="236" height="60" as="geometry" />
        </mxCell>
        <mxCell id="ZWZFDb_ZpwZTJIpMt9Q7-4" value="&lt;font style=&quot;font-size: 24px&quot;&gt;Analista&lt;br&gt;&amp;nbsp;Bancolombia&lt;/font&gt;" style="pointerEvents=1;shadow=0;dashed=0;html=1;strokeColor=none;labelPosition=center;verticalLabelPosition=bottom;verticalAlign=top;outlineConnect=0;align=center;shape=mxgraph.office.users.user;fillColor=#2072B8;fontSize=12;fontFamily=Arial;" vertex="1" parent="1">
          <mxGeometry x="309" y="746.85" width="110" height="106.1" as="geometry" />
        </mxCell>
        <mxCell id="ZWZFDb_ZpwZTJIpMt9Q7-5" value="&lt;font style=&quot;font-size: 24px&quot;&gt;Clientes&lt;/font&gt;" style="pointerEvents=1;shadow=0;dashed=0;html=1;strokeColor=none;labelPosition=center;verticalLabelPosition=bottom;verticalAlign=top;outlineConnect=0;align=center;shape=mxgraph.office.users.users;fillColor=#2072B8;fontSize=12;fontFamily=Arial;" vertex="1" parent="1">
          <mxGeometry x="304" y="370" width="110" height="90" as="geometry" />
        </mxCell>
        <mxCell id="ZWZFDb_ZpwZTJIpMt9Q7-6" value="&lt;font style=&quot;font-size: 24px&quot;&gt;Control &lt;br&gt;Acceso&lt;/font&gt;" style="pointerEvents=1;shadow=0;dashed=0;html=1;strokeColor=none;fillColor=#505050;labelPosition=center;verticalLabelPosition=bottom;verticalAlign=top;outlineConnect=0;align=center;shape=mxgraph.office.users.users_two;fillColor=#2072B8;fontSize=12;fontFamily=Arial;" vertex="1" parent="1">
          <mxGeometry x="304" y="1199.9" width="115" height="100" as="geometry" />
        </mxCell>
        <mxCell id="ZWZFDb_ZpwZTJIpMt9Q7-7" value="&lt;div&gt;&lt;font style=&quot;font-size: 24px&quot;&gt;Canales&lt;/font&gt;&lt;/div&gt;" style="html=1;shadow=0;dashed=0;shape=mxgraph.bootstrap.rrect;rSize=5;strokeWidth=1;whiteSpace=wrap;align=center;verticalAlign=middle;spacingLeft=0;fontStyle=1;fontSize=14;spacing=5;fillColor=#003469;strokeColor=#001DBC;fontColor=#ffffff;" vertex="1" parent="1">
          <mxGeometry x="550" y="120" width="289" height="60" as="geometry" />
        </mxCell>
        <mxCell id="ZWZFDb_ZpwZTJIpMt9Q7-8" value="" style="html=1;shadow=0;dashed=0;shape=mxgraph.bootstrap.rrect;rSize=5;strokeColor=#006EAF;html=1;whiteSpace=wrap;fillColor=#FFFFFF;fontColor=#ffffff;align=left;spacing=15;fontSize=14;verticalAlign=top;spacingTop=40;gradientColor=#ffffff;rotation=0;" vertex="1" parent="1">
          <mxGeometry x="554" y="220" width="280" height="1370" as="geometry" />
        </mxCell>
        <mxCell id="ZWZFDb_ZpwZTJIpMt9Q7-9" value="" style="html=1;shadow=0;dashed=0;shape=mxgraph.bootstrap.rrect;rSize=5;strokeColor=#006EAF;html=1;whiteSpace=wrap;fillColor=#FFFFFF;fontColor=#ffffff;align=left;spacing=15;fontSize=14;verticalAlign=top;spacingTop=40;gradientColor=#ffffff;rotation=0;" vertex="1" parent="1">
          <mxGeometry x="924" y="221" width="1020" height="880" as="geometry" />
        </mxCell>
        <mxCell id="ZWZFDb_ZpwZTJIpMt9Q7-10" value="&lt;div&gt;&lt;font style=&quot;font-size: 24px&quot;&gt;Bancolombia (On Premise)&lt;/font&gt;&lt;/div&gt;" style="html=1;shadow=0;dashed=0;shape=mxgraph.bootstrap.rrect;rSize=5;strokeWidth=1;whiteSpace=wrap;align=center;verticalAlign=middle;spacingLeft=0;fontStyle=1;fontSize=14;spacing=5;fillColor=#003469;strokeColor=#001DBC;fontColor=#ffffff;" vertex="1" parent="1">
          <mxGeometry x="924" y="120" width="1020" height="60" as="geometry" />
        </mxCell>
        <mxCell id="ZWZFDb_ZpwZTJIpMt9Q7-11" value="&lt;div&gt;&lt;font style=&quot;font-size: 24px&quot;&gt;Bancolombia (Nube)&lt;/font&gt;&lt;/div&gt;" style="html=1;shadow=0;dashed=0;shape=mxgraph.bootstrap.rrect;rSize=5;strokeWidth=1;whiteSpace=wrap;align=center;verticalAlign=middle;spacingLeft=0;fontStyle=1;fontSize=14;spacing=5;fillColor=#003469;strokeColor=#001DBC;fontColor=#ffffff;" vertex="1" parent="1">
          <mxGeometry x="2054" y="120" width="1650.5" height="60" as="geometry" />
        </mxCell>
        <mxCell id="ZWZFDb_ZpwZTJIpMt9Q7-12" value="&lt;font style=&quot;font-size: 24px&quot;&gt;Canal &lt;br&gt;Telefónico&lt;/font&gt;" style="html=1;shadow=0;dashed=0;shape=mxgraph.bootstrap.rrect;rSize=5;strokeWidth=1;whiteSpace=wrap;align=center;verticalAlign=middle;spacingLeft=0;fontStyle=1;fontSize=14;spacing=5;fillColor=#007FFF;strokeColor=#001DBC;fontColor=#ffffff;" vertex="1" parent="1">
          <mxGeometry x="564" y="372" width="260" height="69.85" as="geometry" />
        </mxCell>
        <mxCell id="ZWZFDb_ZpwZTJIpMt9Q7-13" value="&lt;font style=&quot;font-size: 24px&quot;&gt;&amp;nbsp;Corresponsal Bancario&lt;/font&gt;" style="html=1;shadow=0;dashed=0;shape=mxgraph.bootstrap.rrect;rSize=5;strokeWidth=1;whiteSpace=wrap;align=center;verticalAlign=middle;spacingLeft=0;fontStyle=1;fontSize=14;spacing=5;fillColor=#007FFF;strokeColor=#001DBC;fontColor=#ffffff;" vertex="1" parent="1">
          <mxGeometry x="566" y="504.95000000000005" width="258" height="68.05" as="geometry" />
        </mxCell>
        <mxCell id="ZWZFDb_ZpwZTJIpMt9Q7-14" value="&lt;font style=&quot;font-size: 24px&quot;&gt;APP&lt;br&gt;Personas&lt;/font&gt;" style="html=1;shadow=0;dashed=0;shape=mxgraph.bootstrap.rrect;rSize=5;strokeWidth=1;whiteSpace=wrap;align=center;verticalAlign=middle;spacingLeft=0;fontStyle=1;fontSize=14;spacing=5;fillColor=#007FFF;strokeColor=#001DBC;fontColor=#ffffff;" vertex="1" parent="1">
          <mxGeometry x="564" y="641.95" width="260" height="69.05" as="geometry" />
        </mxCell>
        <mxCell id="ZWZFDb_ZpwZTJIpMt9Q7-15" value="" style="shape=image;aspect=fixed;image=data:image/jpeg,/9j/4AAQSkZJRgABAQAAAQABAAD/4QAqRXhpZgAASUkqAAgAAAABADEBAgAHAAAAGgAAAAAAAABHb29nbGUAAP/bAIQAAwICCAUGBQUIBgYIBgYGCAYFBQYFBgcHBggFBQUFBQUGBgYFBgYFBgUGBQUFCgYGBwgJCQkFBQsNCggNBggJCAEDBAQGBQYIBgYICAgICAgICAgICAgICAgICAgICAgICAgICAgICAgICAgICAgICAgICAgICAgICAgICAgICAgI/8AAEQgDhAOEAwEiAAIRAQMRAf/EAB4AAQABBAMBAQAAAAAAAAAAAAABBgcICQIEBQMK/8QAVBABAAIBAgIFBwgGBQkFBwUAAAECAwQRBQYHEiExUQgTQWFxgZEJFCIyQlKhsSNicoKSwRVDorLSFiQzU3ODk9HwRFSUwuEZJVVjw9PxNEVko7P/xAAdAQEAAQUBAQEAAAAAAAAAAAAABQEDBAYHAggJ/8QARxEBAAIBAgEHCQUFBwIFBQAAAAECAwQRBRIhMXGBkaEGBxMyQVFhsdEiQnKSwRQzQ4KiFVJTYmPC4SOyJDRzk9IWF0RU8f/aAAwDAQACEQMRAD8A2pgAAAAAAAAAAAAAAAAAAAAAAAAAAAAAAAAAAAAAAAAAAAAAAAAAAAAAAAAAAAAAAAAAAAAAAAAAAAAAAAAAAAAAAAAAAAAAAAAAAAAAAAAAAAAAAAAAAAAAAAAAAAAAAAAAAAAAAAAAAAAAAAAAAAAAAAAAAAAAAAAAAAAAAAAAAAAAAAAAAAAAAAAAAAAAAAAAAAAAAAAAAAAAAAAAAAAAAAAAAAAAAAAAAAAAAAAAAAAAAAAAAAAAAAAAAAAAAAAAAAAAAAAAAAAAAAAAAAAAAAAAAAAAAAAAAAAAAAAAAAAAAAAAAAAAAAAAAAAAAAAAAAAAAAAAAAAAAAAAAAAAAAAAAAAAAAAAAAAAAAAAAAAAAAAAAAAAAAAAAAAAAAAAAAAAAAAAAAAAAAAAAAAAAAAAAAAAAAAAAAAAAAAAAAAAAAAAAAAAAAAAAAAAAAAAAAAAAAAAAAAAAAAAAAAAAAAAAAAAAAAAAAAAAAAAAAAAAAAAAAAAAAAAAAAAAAAAAAAAAAAAAAAAAAAAAAAAAAAAAAAAAAAAAAAAAAAAAAAAAAAAAAAAAAAAAAAAAAAAAAAAAAAAAAAAAAAAAAAAAAAAAAAAAAAAAAAAAAAAAAAAAAAAAAAAAAAAAAAAAAAAAAAAAAAAAAAAAAAAAAAAAAAAAAAAAAAAAAAAAAAAAAAAAAAAAAAAAAAAAAAAAAAAAAAAAAAAAAAAAAAAAAAAAAAAAAAAAAAAAAAAAAAAAAAAAAAAAAAAAAAAAAAAAAAAAAAAAAAAAAAAAAAAAAAAAAAAAAAAAAAAAAAAAAAAAAAAAAAAAAAAAAAAAAAAAAAAAAAAAAAAAAAAAAAAAAAAAAAAAAAAAAAAAAAAAAAAAAAAAAAAAAAAAAAAAAAAAAAAAAAAAAAAAAAAAAAAAAAAAAAAAAAAAAAAAAAAAAAAAAAAAAAAAAAAAAAAAAAAAAAAAAAAAAAAAAAAAAAAAAAAAAAAAAAAAAAAAAAAAAAAAAAAAAAAAAAAAAAAAAAAAAAAAAAAAAAAAAAAAAAAAAAAAAAAAAAAAAAAAAAAAAAAAAAAAAAAAAAAAAAAAAAAAAAAAAAAAAAAAAAAAAAAAAAAAAAAAAAAAAAAAAAAAAAAAAAAAAAAAAAAAAAAAAAAAAAAAAAAAAAAAAAAAAAAAAAAAAAAAAAAAAAAAAAAAAAAAAAAAAAAAAAAAAAAAAAAAAAAAAAAAAAAAAAAAAAAAAAAAAAAAAAAAAAAAAAAAAAAAAAAAAAAAAAAAAAAAAAAAAAAAAAAAAAAAAAAAAAAAAAAAAAAAAAAAAAAAAAAAAAAAAAAAAAAAAAAAAAAAAAAAAAAAAAAAAAAAAAAAAAAAAAAAAAAAAAAAAAAAAAAAAAAAAAAAAAAAAAAAAAAAAAAAAAAAAAAAAAAAAAAAAAAAAAAAAAAAAAAAAAAAAAAAAAAAAAAAAAAAAAAAAAAAAAAAAAAAAAAAAAAAAAAAAAAAAAAAAAAAAAAAAAAAAAAAAAAAAAAAAAAAAAAAAAAAAAAISgEiJR1gTuI6zhkzRWJmZiIjvmZiI+M9gpu+m6Xj6rm7S4d5vrdJTbv6+qw12+N4UpxXyheBaP/AE3H+E49u/znEdPX88i7GK9uisz1RMvFstK9NojrmFwkrJcS8tLlfT79bmLQW2/1Fsmf/wDwx5N1Ma75RDlTF3cVz5J8MXCOJejwnJpMdZ9sSya6HU26MOSf5LfRjW1unr05ccfzR9WSaWI/EPlOuW8W/Vx8Zzf7Lh2KN/Z5/W4fx2eHq/lU+CR/o+Fcdt+3h0GP+7xHLsv14VrLdGG/bG3z2WbcT0tenLXsnf5bs1EMFNT8q7oI+pwDiNv29Xpqf3YyPOz/ACsOH7PLmo/f4pj/APLo16OCa2f4U99f/ktzxbSf4kd1voz9Ru146j5V632eXojw6/EZn8tPDo5PlXNT6OAab97XZf5YoXP7C1v+H/VX6vH9s6T+/wD02+jY6hrZyfKta70cB0Pv1uo/ljfL/wBq1xD/AOA8P/8AGan/AAK/2Drf8P8Arp/8nn+2tJ/fn8tvo2WIa1f/AGrXEP8A4Dw//wAZqP8AC+2P5VrW+ngOi92tz/zxn9g63/D/AK6fU/trSf35/Lb6Nkm6WuXD8q5qPtcv4P3ddkj88UvU0vysFft8u3nx83xOsf3tLLzPAtbH8P8Aqr9XqOMaT/E8LfRsFN2COl+Vd0U/6Tl/X1/2et0+T+9jxfmqHQfKmcCvtGThvHMcz3zXTaHJWPXMxxKtvhSVq3B9ZXnnDbs2n5TK5HFdJP8AFr27x84Zm7m7Gbg/yi3Kuo2i3ENVp7T9nU8L1vZv430+DUY6+2bbLkct+U/y9xKa1wcf4Xe9vq4razHjye/Flml499WHk0Wox+viyRHvmltu/Zl01mC/q5KT1WhdHc3dTRcTx569fHkx5Kffx5K3r8a2mHa3YU8zKiYlyAFQAAAAAAAAAAAAAAAAAAAAAAAAAAAAAAAAAAAAAAAAAAAAAAAAAAAAAAAAAAAAAAAAAAAAAAAARukAQiZBO5uozmnpg4Vwqtravi3D8ER2TGXWYYmPbWLzaPfCzvNXyhXLHD+tWvEM2qvXupodHlyxbs+zlvGPBO/d25GVi0mfL+7x3t1Vn57bMXJqsOP171jrtHy6WSu4wJ5n+Vc0td40XANXlj7OTXa7BptvCZxaems60erzsLT8zfKfcd1O8afScM0keiYxZdRaPbOXJFZn1xWPYlsfAdbf+HyfxWiPDeZRuTjWkp0Xm34Yn5zs2nTL45tVFImbWrWI7Zm1oiNvGZmY2aXuZPLN5m4j1ovx3VY6W78elriwVjffunHjjJG37a1XH+btXxGd9VrtZqZ3331esz5/f+myX29yWx+S+af3mSteqJt8+SjcnlFjj1Mdp65iPlu3d8x+UDwPhvWjU8e4TitX62K3EtNOWPbhpltl/sra8f8AL+5W0e+3FbaiY9Gk0eoye6JtjpE+6Zad4rs5bpPH5L4I9fJeerkx+k/NH38oc0+rSsde8/T5Nn/HflS+DYd40/DuKaj7turgwx74yZetHs2mVu+OfKu5pmY03L2GI+zk1XErdnhvjxabafdkYCG6Rp5P6Kv3Jt+K0/pswb8b1Vui0R1Vj/ll3xn5T3mLNvGLT8G09Z7rV0Wpy3j1dfLrrY5/4ShOK+XvzXqZt/7783Wfsafh3DsfV9lo0dsvxvLH4Z9OF6SvRhx9tYn5sK/EdTbpy37LTHyXU4l5VHMep3jJzHxWYnvrXV2x1/hxxSI+CjeJdI/EdTMzl4pxDJM9/X1+omJ9sed2n4KdGZXTYa+rjpHVWsfoxbajLbpveeu0z+rnqM9ss9a9rXn717TafjaZl84r6oSMiI2WN5kNwA3AATugDc3NwAAFAADdMWQCqd0bgBubACrOROlbiXActM+g4lq9NevdGLPbzcxHb1bYLdbFes+mLUmPFso8j7y5Kc02x8E4l5nBxnbbBmpEY8PEOrG8xjpMzGLUbRMzirO1tp6sR9WNVbt8L4nk0ubDqsV7Uz4MlcuHLSZi1L47Rel4mO3eJiJ+PihuIcLw6ykxNYi/3bxHPv8AGfbHviUroeIZNNeJiZmv3qzM7bfD3T7tn6BzdZ3yVumuOb+X9FxO0xGqpvpuIUifq58MRF7beiMsbZI/a9S8MOQZsVsV7Y781qzMTHxh1DFkrlpW9eeLREw5ALS6AAAAAAAAAAAAAAAAAAAAAAAAAAAAAAAAAAAAAAAAAAAAAAAAAAAAAAAAAAAAAjcEiETYHIcYtu8XmbnfR8Lx+d1et0umptM9bU6jHi32jeerF7RN59VYmVaxNuaImep5m0RG8zER8Xto6zGfnv5QvlrhfWrj1mbXZax2Y+H6e16zt6PPZJxYYn0dt2PHPHyq2qydanDeB6fFH2NRxHU3z3mPRPzfTxgpS3+/yR6pS+DhGrzeritEe+32Y8dp7kXm4ppsXTkiZ91ftT4c3fLY/u8rj3Nml4fjtm1Or0unxV7b5NTqcWGtfXNsl61j4tPPOnlu8zcW60X4xkwY7RMTi0OLHp67T6N6Vm87eM239ay/GOO59dfz2o1GfPk/1upz5M1/dfJa0xHqT+HyXyz+9yVr8KxNp752j5obL5RY4/d0mfxc3y3bgecvLv5X4X1qzximqyV/q+HYM2qi37OelI01vdmWN5x+VV0uPrV0HBdRmmPqZdZqKYKT4TNMcZb18dpa40JzD5N6Snrcu8/Gdo/p2+aHy8d1FvV5NeqOfvnf5Mq+cflJ+Y9d166e+h0FJ+pOm0dc2aseE5dXObHbw38xErI82dPPGuLzadXxzimatu/FbXZq4vbGDHemCnspSFBCbxaDT4o+xipHx5MTPfPP4ojLrc+X18lp7Z27uhzy5JvM2tM2tPfa0zMz7ZneZ9+7gDPYkyADyAAAAAAAAAAAAAAAAAAAAAAAAAAAAAAAAzH+TT6X/wCi+N6ngWXJtpuLUicNbT9Guq09Z6u0ei2bHM0/chtKiWgDlvmHLw7V6TiGG01z6XNTPhvE7TFsV4tEb+FturPqlvR6JekDHzDwjhnGcUx1NZpqZZiPsXtSPO458JpeLV2nwhzXyl0nIy1z1jmvzW/FEc3fHyb/AMA1XKx2wz00nePwz9JVgA0xtgAAAAAAAAAAAAAAAAAAAAAAAAAAAAAAAAAAAAAAAAAAAAAAAAAAAAAAAAAAIRuBPY+Op1dcVZyXtWtY+ta9orWPba0xEMUvKt8uzT8qWy8I0FMWr4zEbZJvPW02hm0dnn+pas5csRO/mK2rPdvMNcfSX0+cY5lyWya/impzVtM7aat5w6ekTP1KafD1MUVj1xM+My2XQcBz6qIyWmMdJ6JtvMzHviPrMNf1nGcOnmaVib2jpiNto65+jbH0heWdy5wHr0z8YwZc9d4+aaCttXl3jf6FowRbHins/rr0j1saefPlVafTpwzgt7eimo4jnrj33jst5jTzk6sx37Tlnf1NeEJ3bdp/JvS4/X5WSfjO0d1dvGZaxm47qMnq7Uj4RvPfP6RC/nP/AJc3MvGetSeK20mG0TE4eGUjS9no/T1m2pidvTTLX2LGcT4pl1WS2bNmy5st53vmz5b5b3n71r5LWtafXMy6o2HFpcWGNsdK16qxHihMuoyZZ3ve1uuZTv8A+iJkGSx5kAFAAAAAAAAAAAAAAAAAAAAAAAAAAAAAAAAAAAAAAAAEtifyX3TF18XEOVct/p4t9bw+tp76WmK6rHX9m0xk2j70tdavegrpMvy1x7hXGaWmK6bURGojf6+HL+i1FJ8Ymlutt41qieKaSNVp70+9tvXrjnjv6Enw/U/s+et9+bfa3VPNPd0t6kWTDo8F4pTV4MGqx2i2LPiplxXiYmLVyVi9ZiY9Uw7zjExtO3udXid4iYSAKgAAAAAAAAAAAAAAAAAAAAAAAAAAAAAAAAAAAAAAAAAAAAAAAAAAAAAAAI2UB078+zwDgPGeLV+vpdJe+H1ZLV6mKZ9UXtWfcr9Z/wArbl63EOUuYtNSJm86K2SIjvnzFq5piPHspLI00VtmpFvVm9Ynq3jdj6iZjFea9MVtt17NK/EuJX1WbNqct5vmz5LZs2S0zNr3y2m+S0zPfvaZ92zrCJd0rG0REdDj0zvO8gCryAAAAAAAAAAAAAAAAAAAAAAAAAAAAAAAAAAAAAAAAAAAAAAJhADa/wDJydMP9M8uzwrLffV8GyfN+2d7X01/p6W/fMz1Im2GZn01ZZw00+RN0xf5M8z6G+TJ1dFxCY0Ot607ViM1ojBltv2R5rJNe3wtLcpjns/n/NyPjmk/Z9VaYjauT7Vev70dk/N07g2p9Pp4ifWp9mer2eDmA15OgAAAAAAAAAAAAAAAAAAAAAAAAAAAAAAAAAAAAAAAAAAAAAAAAAAAAAAAIdbiPD66jHlwXjemWlsd48a5KzW0fCZdpB8VJjfmaI+mvkO3AOO8Z4RaJj5rrMlMU7bdbFa85NPaPGJx3rG/p2lRLOL5ULoy+bcT4bzDSn0Nbh+a6q0R/W6aN8M2nxti3rEfqsHXbOHaj9o0+PJ7ZrtPXHNPi5Lr8E4M96eyJ3jqnoAEijwAAAAAAAAAAAAAAAAAAAAAAAAAAAAAAAAAAE7CqBOxsGyBE3jxj37GO8WnaJiZ8I7Z+Edqm8e9XZI9DBy/nyfV02ot+xpstvypLv6fo+1+T6vDOIW/Z0Gpn/6S3OWsdNqx1zD3GO0+ye6XgCuNL0H8ZzfU4HxW3s4dqP8A7b1cHkycxX+ry3xiY8f6PzRHxmsLc6rDHTkpHXav1e40+Weilp/ln6LZC7uDyR+Z8ndy3xL97DSn9/LV3sXkWc1X7uXdZ+9m0Vf72rhbnXaaP4uP89fq9/smf/Dv+W30WUF+sXkKc2W7uX8v73EeFV/vcRh2MfkC83T/APsMx654vwf+XE5n8HmeIaWP42L89fq9RotRP8LJ+S30Y/R4/Dae3s7d4n0bd+7eH5MvM2XifK/L+szbzmyaHHGS0995x16kX/eisS199FvyaXG9bqsU8U+b6DQ1tE6iK6vFqNVkrExNqYa6ecmGnXjePOXy71+7LZ/yzy/i4dpdNoMFIpp9LirgwY47q0xVitY7fVG+7SPKLXYM9cdMVovaszMzXniI2223+P6Nv4FpM2Gb3yRNYmIiInmmZ9+3w/V6gDSG3gAAAAAAAAAAAAAAAAAAAAAAAAAAAAAAAAAAAAAAAAAAAAAAAAAAAAAAACJSAsD5bnRl/T/KXFcVadbU6Kka/S7R29bST5zJSPDr4ovWfU01b+l+gzVaWuWmTHaImt62peJjeJi8TW0T47xMw0ceUJ0d25d5h4xwqYmKYdTa+n9eLPPncM+v6Nur7p8HQfJfU818E+z7de3mn9J7Wj+UOn2mmaPbHJns54W6Ab40wAAAAAAAAAAAAAAAAAAAABE229grCR6fBOWdTruzT6PVajt2/wA20ubNG/txY7xHvlczl7yRuZOIdScXANdFbd2TPSuGvxzXpt74Y99Rix+veleu0R4Sv0wZL+rS09UTK0Ayr5f+TU5m1W05K8K0sen5zxG9p91dJptTEz6pmPcudy58lDnmYtq+YsNY+1i0nDb2n93Pm1NI984Edk4zo8fTlrP4d5+UM+nC9VfoxzHXtHzlgMNpPLvyXnAsG059ZxXVeMWz4sMe75vhx2iPbMyuVy95CfK+iiI/oXHmmO6dXmz559v08m0++EZk8pdLX1YvbqjaPGY+TPpwDUW9aaV7d/k01zeI9MfF6fBeWdTruzTaPV6id9ttLpM+efhhxXmfY3l8v9CnB+H7fN+C8MxTX6tqcP0/Xj/eTjm/9pWWPDFYisViIjsiKxERHqiI7kbfyqj7mGeub7eEVn5s+nk5P3svdX6zHyaQOBeS7zHrtvNcucW7e7z+ktpff/nc4NvFX3Bvk+uadTtvw3Dg3/71r8Fdvb5mc7cIMC/lPqJ9WmOv5p/X9GbXyewR61rz3RHy/Vq04L8l7xzLt57XcLweO2TNm2/hxV3Vpwj5KLNO3zjmDDXx+b8Pvf4edz0/FsXGDfyg1tvvxHVWv0ZdeCaSv3ZnrtP/APGC3DPkpeHV289x3id/HzGn0mHf2TkpqNvhKreFfJh8uYtuvm4zn27/AD3EMNIn1f5totPMR7JZd7J2YduL6y3Tmt2c3yZNeF6WvRir27yxv4b8nnyng2n+iMuSY+1m4rxK+/7k6yMf9lVnDvI55X0/1eXOGW9ebTRmn45pvK8myWPbXai3TlyT/Pb6smujwV6MdI/lhb/h3k/cD023muA8Kpt3dTh+CNv/AOtUWm5D0OKIinD9FXbu6ukwx+WN7wxrZslvWtaeu0z+q/GKkdFax1Vj6Olg4Nhx/VwYa/s4qR+VXbikR6HIW5mZXIrEeyEbGyRRVGx1UgI2Nkimw49VKRUAAAAAAAAAAAAAAAAAAAAAAAAAAAAAAAAAAAAAAAAAAAAAAAAAAAAAAAAAAAARLXB8qR0X+a1XCOZMdPo6jHOg1toiduvhmcmltae6N6WyUjx29TY/KzXlcdGP+UPK3F9FFYnPjwzqtJ2dsZNLvlrt+1EWr70rwrU/s+ppf2b8m3Vbm8OlF8S0/p9PevtiOVHXHP8A8NKQDtDlIAKAAAAAAAAAbItaI7ZmI9siuyRVvKHRJxTjM1+ZcK1+pi31cmHSZfNTv3fp7Vrh7f218+Tvk5uZeIdS2XBo9FS3fOr1UTav7WLBXLbf2MHNrcGH95kpX4cqN+7pZeLSZsvqUtPVE/Ni/sNhvJ/yUVOy/EOYMlvvYOHaGmLb2anVZNR1vD/9NVfHlH5PXljh3Vtbh+XV3jvvr9XlzRb1zhi1MET+zSENl8otHT1Ztef8tdo77beCWx8D1N+mIr1zHyjfxag8WObz1a1m1vu1ibTPurvKvOU+gLjnFpr814DxXNW31c39H5seGd//AORnpi08e/I3UcsdFHDeFVrTScM0Gn6v1Zw6PFW0fvxXr/iqrqIXL5U2/h4oj42tM+ER+qWxeTsffyT/ACx+sy1Lcp/Ju8y62KWzYtDoqz9eup1tcmWsf7PS1zUtP++heLlb5KTunW8emfGmi0cRHs62bJaY8N9vc2ERCdkNl8oNZfotFY/y1j9d0pj4JpadNZt+KZ/TZiny38mty1perObDxDWTHfGo4jlx0mf2dJ82mI9XXldrlbyX+XuFTW2m5e4XS9fq576PHmzf8fPGXNPvuulsjZE5NdqMnr5ck/DlTt3b7eCTpo8GP1cdI/ljd1dHwrHh7MeHFSNttseKleyPR9GsO3AMKZ97LiIjoSI3NxVIjc3BIiZR1wchx66JyQpMxHPM7DmOrm4njp9bLjj9q9Y/OXnajnPS4+ydRj91t/yR+biWkwxvkz4qfiyVj9V2uK9vVraeqJl7UyhS2fpM0lf6y0/s47f8nm5ulvBH1cWafXtWI/G2/wCDXs/ljwXB6+t0/VW8XnupypZleHam3Riv2xt89ldbpmy22bpg+7pffbNt+EY5/N0M3S1mmfo4cMe3r2/KaoDN5yuAY+jUWvt7KYcs+M0iPFlV4Lq5+5t12r9V2N09ZZrL0n6qe6cVfZj/AMUy6ebn/V2/rtv2a1j8oQmXzs8Hr6tNTfqx1rHjffwZVeAamenkR2z+kL4dZO6wd+bNTbv1OX+Lb8odbJxvNbvz5v8Ai2/5orJ54NFHqaTNbrvSv6Sv18ncs9N6x2TP0ZB2yxHpj4uE6usfar/FDHi2tvPfkyT7b2/xPla0z6Z98zKMv54q/c0U/wA2WP0qvx5OT7cv9P8AyyHtxPHHflxx7b1/5vnbj2GP6/D78tP8THrY2YdvPFn+7osfbkt+kLkeTlfbknsr/wAsgZ5k0/8A3rT/APHx/wCJx/yp0v8A3vTf+Ix/4lgNhjz54tX7NHg/9zJ9Hv8A+naf4lvywv8A/wCVel/73pv/ABGP/GmOZtNP/atP/wAfH/iWA2Rsf/eLWf8A6eD/ANzIf/TlP8S35YZC4+O4bd2fDPsy0n8rO1TLFu2JiY8YY4O3ouK5cE748t6+qLzt8N9klpPPDvaI1OjiI9s48m8x2Wjn71jJ5OzEfYyc/umPpLIaLOa3XJvSP521cGfqxe3ZTNHZFp9EWj0TPdvHYuHF3deCce0fGdP+0aS/Kjfa1Z5r0ttvybR7J+PRPslq+p0uTTX5GSNp9k+yY98OQDYWIAAAAAAAAAAAAAAAAAAAAAAAAAAAAAAAAAAAAAAAAAAAAAAAAAAAAAAPnmpFomJiJrMbWiY3iYnsmJj0xMdmz6IsDSD5UHRnPLnM3GeHRWYwzqbanSeE4dVac2Pb0fR6002ju229C1bYx8p/0OWzafh/NOHHM/Nv8z4jNY3mmLLbfT5rbbz1aZP0cz6OvDXRMOzcK1UanTUv96I5NuuOad+vpco4lp5wZ719m+9eqfp0IAS6MAJn1gCouTOjrX8byea0HDtbq7b9WZ0umyZaUme6MmatfM4fHfJesdzI7kD5Nnj/ABHq31U6Th+KYiZ89l89mjt7YnFg61Ynb/5kx7GFn12DB+8yVr8N+fujn8GXh0mbN+7pa3x25u+eZihBWN5ivfM9lax2zMz6IjvmfVs2d8ifJccI0s0ya/iHENdePrYMVqaPT28YmMVb6qdu7eupp7GR/Ink6cD4FERo+DaHFaI2nN5iuTNbbum+bL18t5jxtaZa7n8ptPT93W156uTXvnn8E7g4Bntz3mtI757oad+S/J545xua/M+B8RzRbsjLOn8zi9W+fU2w4a7+NrwyA5F+TD45rOrfW6vh+gpO0zji9tZnr41tXD1MFZ9G9c94bTa4oiIiI2iO6I7NkxRr+fyl1N+bHWlI6uVPjzeCaxcAwV57za89e0eHP4sNeSfkwOC6Xa2s1ev1to2maecpp8e8d/Zhr15ifXff1r98leTBy/wWaX0vAeG0y07aanJpKZ89Zid966jURly1nft+jaF0NkoHNxDU5vXy3n4cqYjujaE1i0ODF6mOsfHbee+XxxaeKRtEREeiK1iI+Edjn1XKRHs3aIIhKNzcVSI3NwSOFrOnq+M4sP18uOv7V6x+EzusZdRjxRysl60iPba0VjvmYeorM80RM9UO+KW1fSNpcf8AXdafClbT/KIeNrOl/HG/UwXt4TaYrH/mn8Gqavyx4LpP3msw7x7KW9JP9HKZ2Ph+pv6uO3bG3z2XB3cZstPqulvPbspiw1j1xa8/HrVj8Hjann3V5O/PNfVSsV/GI3aXq/OrwbF+6jPm2/u44rHZNrQksfAtTbp5Neud/lEr4WyRHftHtl09VxvDije+bFX9rJWP5rDZ+K5cm82y5Lb+N7f83V2adqvPF7NNouqcuX/bWs/9ySp5OT9/L+Wv1n9F7dR0iaTH/XxafClL2/GtZr8ZeTqelvBH1ceW3tiKx8d5n8FqNhqWp87HGMv7uunxe7k45tMfntaJ7mfTyf09emb265iPlEfNcTVdL9vsaeI/avv+UPL1HSnqbb7earHqpMz8Zn+Sjxqup8vOO6j1tZkr8McVx/8AbEM+nCdLT+HE/i3n5y9zUc76rJvvqLx+x1a/DqxE/i83UcVy5Pr5stv2st7fnaXVGsZ+Ma7UTvl1Oe/XlvP6s+mmxU9WlI6qx9CZ38fiAirXm3PMzM++eee+V/koiEg87q7ACj0AAAAAAAAAAAAAAju7fy9S8/R/zF870/VtO+XF9G/rj7NvfH5LMqn6POLfN9XSsz9HL9C3tntrPuns97p3m/49bhfFMdbW2w6iYxZI9m9ualuy23P7plA8X0vpsEzEfap9qvv+Mdy9dUuNZcn2+5kAAAAAAAAAAAAAAAAAAAAAAAAAAAAAAAAAAAAAAAAAAAAAAAAAAAAAAIlIDzeYOB4tfp8+iz4qZdPqMdsWfDeN63reNrVmJ9Xwnbwa2enf5NXiGk1GbWcEnFq9FeZvXh2XNGLV6ft383jtkiMOqxx27TN8d4jaOrbvbN0pLRcQzaO0zinmnprPPWez3/FH6vQ4tVERkjo6JjmmGkDVeSzzHiv5u3LvE+tvtERpZtE+uLVmazHr3VNyv5DXNHEZiI4LkwVme3Jrs+HT1rH3pi17ZJj9mlp9TcyJ+3lPqJjmpjifftafDdDV8nsETz2vPw5vo1zdHvyVma3VycV4zip97S8LxWvMenadVqqY4nfu2rpo/alk50e+RDy3wTqXpwrHqc1O2M/EJnVW38YplmcUb9+3U7PUv6ITUcV1WfmvktEe6v2Y8NvFLYOG6fD6tImffPPPi62h4fTBjrix46Y8dI2pjx0rStYjurWtYitYjwiH32chEzzpKI2REECN/WKuQhxtkivfMR65ebWisbzMRHvmdoHLc3eJxDnDTYPrajHv92tutPwrvPxU7ruljDXsx48l58ZiKx/OWr67yp4Tod/T6vDWY+7F4tbsrXeZZ2LRZ8vqY7T8dto755leomy0Wv6VtRfspXHjjx2m8+rvmI/CVP6zmrU5/r6jJO/fEW6tf4aRWPwc813nY4Th3jT0zZ5j2xWMdO+88r+hL4uA6i3rTWvbvPhzeK+Gr4viw/Xy0r+1eI/9Xg67pK0uL+stefDHSZ/tT1a/is1a827ZmZnxmd0Oe67zva6+8aXT4cUey15tkt/tr4JjF5O44/eXtb4R9mP1lcjWdL/fGPTz6pyWiPjWu/8AeeHrOk7VZN9rUpH6td5j323/ACUmNB1nl7xzV+vq70ifZiiuOOyaxE+KVxcJ0uPoxxM++29vnzPR1nMOfNv18+W3jHXmI/hjaPwed6waXqNZn1E8rNlyZJ9972tPfaZSdMVaRtWIiPhEQbAMTdc2NwFFQAVAAAAAAAAAAAAAAAAAAAAAAAAAACt5rMWidpid4n2TvEg90tNZiY5pjnifjHQ8WX/5a4rGq0+LN6bVjre2Oyfxeotl0T8Y7culmfR5zH+Voj8JXLq++/JPi8cV4Xg1O+9uRFMn/qU+zbv6e1yfX6f9nz3p7N969U88fRyEJbejwAAAAAAAAAAAAAAAAAAAAAAAAAAAAAAAAAAAAAAAAAAAAAAAAAAAAAAABG6XCbKTOw5JdHW8Xx4I3yZaUj9a8R/PtUzxHpU02PeKdfJP6tZiv8V4jf3RKB1/HuHcPjfVanDj/wAtrxyp6qRvaeyJZWLS5c37ulrdUc3f0Ky66JyRC03EOlfNffzeOlI9EzHWt/KPwlTGv5iz6j/SZ8to+715iv8ABXav4OYcR87HC8G8aamXUTHtiPR077c+38qbw8A1F+e81pHfPdHN4r1cR5t0+Dsvmpv92J60/Cu6mOI9LWKu8YsV7z6LWnqV/K0/hC1k/wDUjl3EfOvxXUbxpqYtNHviPSXjtvHJ/o7U7h4Bgr682v8AD1Y8OfxVZr+k3U5d4rNMcT6K13n4z2qe1nGMuf6+bJbf0WtO3w7vwdQcz13lFxLXT/4nVZsnwm8xXsrG0R2Qm8WiwYvUx1jsiZ7550dVINemd2bsAG5sAKAAKgAAAAAAAAAAAAAAAAAAAAAAAAAAAAAAAAAAAo9Hl7ifzXUYc3orb6Xriey0fzX9w5etWto7piJifb2scZXm6OuM/ONJSszvfDPm7eyPqT767R7n0X5pOM8jNm4beebJHpcX4q7ReO2u09ktN8oNNvWuaPZ9m3VPR4796rREJfUTRwAAAAAAAAAAAAAAAAAAAAAAAAAAAAAAAAAAAAAAAAAAAAAAAAEAkQbgRKN3j8U5r0+m+vmrE/cietb+Gu8qQ4n0txG8YcNp/XyTER6pitZmZ98w1HinlZwrhm/7TqccWj7lZ5d/y13mO1n4NBnz+pS23vnmjvlce1nl8S5mw6b/AEmalZ+732/hjeVn+J876nU7xbNatZ+xj+j7t47Z+Lwpn0+nxcf4r53sdd68P00292TNPJjrild5nttXqbDp/J608+a+3wrz+M83hK5/FOlyld4xYptP3sk9Wvt2je0/gpPiPP8Aqs+8edilZ+zijq/j22/FTaXH+KeXPGeI7xk1N8dZ+5h/6df6drT2y2LBwrT4uikWn325/nzeDllyzeZta1rTPptMzP4uOwNEvkteZtaZmZ6Zmd5ntlLxWI6I26gBbV2RskAABUAAAAAAAAAAAAAAAAAAAAAAAAAAAAAAAAAAAAAAAAAAAAVb0a8Y8xqoxTP0c0dX96O2s+/uUk54M047VvE9tbRaP3Zif5J7gXErcM12DV05vRZK2n4132tHbXdhavDGfFfHP3o8fYyP3N3ncE4lGpw4s0fbrEz2+n0/i9F+g+nz1z4qZaTvW9a2rPvi0bx4OR2rNZms9MTtPYkBkPIAAAAAAAAAAAAAAAAAAAAAAAAAAAAAAAAAAAAAAAACASI3RNwcnHd8NVr6Yqza961rHptMRH4qO4x0p4cW9cVbZbeMfRp/FO8z7oa/xTj3D+GV5Wr1GPH/AJZne89VI3tM9UMrBpcuedsdJt8dubv6IVxEvM4rzHg00fpM1Kz93rRNp9lY+lPwWm4t0ganUbx1/N1n7OPs+Nvrfipu1pmd5neZ75mZmZ9sy4txfzuYKb04dgnJP+Jm+zXrikfantmGy6fyfvbnzW5Pwrzz39HzXM4r0s1rvXDim3he87R7do7Z9ijOKc56nU7xbNMV+5j+hHs7O2ffLxIhLivFfLXi/Et4zai1aT/DxTOOnVMVmJt/NMtl0/C9Ph9WkTPvt9qfHmjsRvv4+2Ug0e1ptO888++UtEADyAAqAAAAAAAAAAAAAAAAAAAAAAAAAAAAAAAAAAAAAAAAAAAAAAAAAAAAACi5vRNxfrUy6WZ7aT18fstv1oj2T2+9cWIWS6OtRNNdh2+1Fqz7Jjf+S9r7W82nEr6zgtK3ne2C9sO/vrG1q91bRHY5nxrDGPUzMdFoi3b0T4wkB1dAgAAAAAAAAAAAAAAAAAAAAAAAAAAAAAAAAAAAAAAADjaS0qK5556+aR5jHMTnmO2fRjie6Z8bepC8X4vpuE6a+q1VuTSvRH3rWnorWPbMsjT6e+e8Y8cbzPhHvn4Pc45zXh0UfpL/AEp+rjr22t7o7vbO0LfcY6VMuTeMVYx19Fp+lf8A5Vn4qMz57ZLTe1pta072tad5l893ydx/zl8S19rY9Lb9lw88RFP3sx/mye/4V22+LftJwTDiiJyR6S3x9WOqPru++s1+TPbr5Ml728bWmfd7PU68Qkcky58mW03yWte09NrTMzPbPO2CtIrG0RER7o5oAFhcgAFQAAAAAAAAAAAAAAAAAAAAAAAAAAAAAAAAAAAAAAAAAAAAAAAAAU3ANw3ARubG6REy7Wl4Zly/UxZLeuuO0x8dtvxZGLTZc08nHS1591azae6IlbtkrWN7TER8eZ1hUGl5C1eT+p6vrvasfhvL2NL0TZrdt82KvqiLWmPyj8W1aTyO41qtvRaPNtPttX0cf18lg34lpqdOSvZO/wAt1Do3XS0fRJij6+bLb1VitY/K0/i9/hvIOlwTFowxa0d1skzaf7UzEe6G7aHzVcYzTHp5w4K8282vy7R/LWJ5+1F5ePaesfZi1p6to75+ij+jHlm/nPnl6zFKxMYotG3Wme+0R3xER6fXK6KKYojaIjaI7ohy2fTnk3wDDwPRV0mGZtzza955pve3TO3sjoiI9kQ0jWaq2pyTktzeyI90JAbSwgAAAAAAAAAAAAAAAAAAAAAAAAAAAAAAAAAAAAAAAHj8zcajR6fLnnviNqR42t2Vj4/ksRqNTOS9slp3tad7T7e30/Bcvpc1MxiwY/Ra82t+7HZ+K2D5C86vFsmficaLefR6elZ5PsnJeN5tPxiNoj4Og8B09a4Zy/evMx2R7PmQA4e2kAFQAAAAAAAAAAAAAAAAAAAAAAAAAAAAAAAAAAAAAAAAAAAADdXZTcDcViszO0RMz7oU3B39HwDPm+pp8s7+nzcxHxtER+L3NH0ZarJtM1pSP1rxM/CIn82waPyd4nrP3Glz3+MY7RHfMRDDya3Bj9fJSP5o37oUoLjaPofnsnJqNvGMdP52n+T29H0W6WnbauS8+N8kxHwp1In3xLd9H5sOOajntjx4Y/1ckb91OXPgi8nHdLTom1vw1+uyzz76fh2TJ2Vx5Lfs0mf5L6aPlbT4fqafHE+PUiZ+MxO70qYIr2RER7IiG8aPzPX5p1OsiPfXFj37rXn/AGovJ5RR9zH22n9Ij9Vj9LyJq8ndp7RHjea1/C1t/wAHtaTomz22m+TFT1R1rz/drHw3XbhLddJ5qeD4dpy2z5pj+9eKxPXFIj5ozJx3U29Xk16o3+cyt3pOiPHHbfPkt4xWsVj+cvY0vRzpcffim+3pveZ/CJiPwVY4y3PSeRnBdLt6PRYZmPbevpJ/rmyOycR1N+nJbsnb5bOho+AYcP1MGOs+MY6xPx23d7qR4fg5SjdtWHS4cMcnFjpSPdWsVjwhgWva3PMzPXO5slEOTJeUbJBUAAAAAAAAAAAAAAAAAAAAAAAAAAAAAAAAAAAAAAAAAAAAUF0s6LrafFl2/wBHk2n2Xjb89lqV+ObuH+f0eop3z1Jmvtr9KPyWHfIHnY0E4eK01EdGfDWf5qTNZ8NnQuAZeVgmn920908/1AHEW0gAAAAAAAAAAAAAAAAAAAAAAAAAAAAAAAAAAAAAoAjdXZTdJu+mDTWyTEVpa0z6K1tafwiXtaHkXVZtpjBNYn05Jin4T9OP4UrpOE63Vztp9Pmy/gx2tHbMRtHax8mpxY/XvWvXMQ8FG64Oh6JLztOTNWvjWlZn8Z2/JUGi6LNNTbrecvP615iPhXbs9W7oGh82fG9TtN8VMEf6uSInbqryp7OZEZeN6anRabfhj9Z2Wf3d7ScCzZvqYMtvX1JiPjMQvjoeW8GD6mDFX1xjrvPtnbeffL0Yo6BovM90Tq9X11w0/wB15/RE5fKOf4ePttP6R9VmtH0ZarJ31x0j9e/b8Kxb8Xv6Pof7vOaiZ9WOkR7t7Tb8oXHirk6BovNlwPTbcvHfPPvy5LbflpyYntiURl41qr9For+GI/XeVJ6Po00uPaZx2vPje8z+HZD3dJwPFh+phx19cUjf47bu+N70nA+H6P8A8vpsOP8ADjrE9+26KyanLk9e9p65lwiiYcnHZN7RDHSS4xL55tVWkb2tWI8bWiI+MhEb9D67m63/ADR0/cF4XNq6njGgx3r9bFGppky/8HDOTL/YWm5m8v7gul60YKazV2junHgnFS3stnmlo38Zos3z46etesdsb93SntJwDiWs2/Z9LnvE/ejHaK/mmIr4smZsddgbzP8AKMam8zGj4Tgxx9m+qz2yWjw3x44pWfddabmXyyuYdfM/+8o01J/q9FpsOKI8Nsl65c1dvVkhgX4ngr0TM9UfXZvGj82nGc+05K4sEf6mSJn8tIv84bR8+rrjibWtWtY77WtERHtmdohRnMfTfwjhsf5xxbQ4/V86x2n2RFbWmZ9TU7xzn7X6+ZtqOI67PM+nPrM2T8LXmPweD1fTt2z3z4+3xYd+Lf3afmn6fVumk80sf/k6zrjFj/3Xt/tbLuY/Lw4BpOtGPNq9VaPs6XR22nbwyai2DHPtiyisvyjvD99o4RxKa+Nsmkrb+GM9o3/eYDjDnimaejkx2fVt2DzZcFpG14z5PjbLMeFIp+rZj0f+XDwPiuSmC+TUaLLeerWuuxVrSZnujz2LLlw13nsjr2rv4MgdNrK5a1vW0WpaN63rMTW0T3TExMxMT4w0mbMq/I08pLJw3VYuAazPa2g1N4posmW+/wA0y22iuOLWmZjDlns6sztW09neztLxKb2imSI5+iY+Ux+rR/KnzbU0untquG2vb0cTa+G88qZrHTOO0RE80c/JneZ2nafY2GxKXDHLm2B8/gAAAAAAAAAAAAAAAAAAAAAAAAAAAAAAAAAAAAAAAAAAAPnkx9aJr4xt8WPnGdH5nPnx/dyWiPZvvH4MhZ7lm+k7Qea1k39GWkWj1zH0bflDhHnc0HpeHYdVEc+HNyZn/Lkjb/uiI7W0+T+Xk5rU9lq+Nf8AjdSQD5JdCAAAAAAAAAAAAAAAAAAAAAAAAAAAAABQAiN1YiZ5oJkHoaLlzUZ/qYMto+91erH8VpiFRaDor1F9pvbHjjw3m1vhX6Pws2fQ+THFNdt+z6TNaJ+9NJrXr5Vto2R+XX4MXr5Kx8N957o3UaTK6ug6J8NO2+TJefDfqx+Eb7Ki4fynpsG010+PeO61q9a0eybbzHudH4f5p+K5tp1F8OCPdMzkt3V5u+0IbNx/BX1Itbwjx5/BZPRcHzZ/9HhyW37prWdv4piK/iqDRdGeqybdaKUifTe28/CsT2ryxSI9HwhLo+g80fDsW06rNmzT7Yrtip4b2/qQ2XygzW9Stax+afHm8FutB0RUjacme9v1cdYrHxmbTP4Kj4fyDpcP9TFp8bzNp/GdlRxA6JoPI7g2h2nDpMXKj7149JP9e6Iy8Q1OX1sluqPsx4bPjp9FTHG1aVrHhWsRH4Q+vVckbtvpjrSNqVisR0REREd0I+Zmek6pslG64ojZMvlqNRXHE2tatax32taIiPbM9kKB5r8oHg3Cet854vo6Wr34q5oy5Z28MOGMmW37tZeLWrXpmI652ZODS5tRPJw475J91KWtPdWJXD3N2K/NPyhPCNP1q6XT67V2juv5mNPit7LZpjLHvxQs/wA1/KHcSz9auk0Ok00fZvlnJnvt643x0ifXDCvrsNPvRPVzt20XkJxvV7TGmtjifbmmuPt2meV3VbBrXeHzDzzo+Gx1tTrdNgjv/TZ8dJnbv2rNotbb1RLVhzX5SfHeKdaM3GdZWlv6rTZPm1Ij7v8Am1cdr19V7StxqdRbLabXva9pnebXvN5mfGZtMzKPycXrHqVmfxTt9W/aLzT57bTq9VSnvripN5/NaaRH5ZbOeavLZ4BoOtFdZfVXjupo8N8kTMejrzFcce+0LO81fKQds10PBpmPRl12q6sxPo3wYKX3j/fwwkGBfiea3RtXqjf5t+0Xm04Pp9py1y55/wBS8xHdTkr+80eW/wAf128U1ODS1n7Ok00VmvsvltlvvH7XuWm5k6SOIcTm06riOsz9b61cmpyTSfbji0Y/7KnJkYF9Rkv61rT2t70fAuHaP/y+lw49vbGOvK/NMTbxRWuxskWE5shICoAAAAmt5rMWiZiYnetonaYmO2LR6d4mN+xAKTG8bT0T0tsXk19J3+UPAdDrLWidRSnmNZ/tcMRS0+rrxEW7fFdSste/yf3SV8z4nquB5LbYtfinNp4meyM+DbrVjw85jme77ktg9Ybxo83pcVbe2I2nrh8QeV/CP7K4pmwxG2O0+kxe7kX59o/DO9exzEJZrTAAAAAAAAAAAAAAAAAAAAAAAAAAAAAAAAAAAAAAAAAAHGYW+6WuH74sOfb6lprM+q0dn4wuE8Lnbh/n9HqKbdsV61fbXt/k1Hyt4f8At/CNXg6ZnFa1fxU+3Xxhn6DL6LUY7/5oieqeafmsSlEJfAUutQAPL0AAAAAAAAAAAAAAAAAAACgBurETJuId7Q8EzZ5+hhyW9cVnb4ztCpOH9Fuoybde2PHX07z17fCsbf2mycP8nOJ8Q2/ZtLmvE/e5ExX89tqx3sDNrcGH18lY+G+890byo3dK7HDuiXDTacl75J9vVj4R2/iqTQcr4NP9TDjifvdWJt/FO8/i6bw/zTcTz7TqcmLTxPTG85L91dqxP80oTN5QYa+pW159/qx48/gspoOXM+f6mDJMT3W6u1f4rbRPuVJw/ooz32m98dI9Mb9afwiI/FduKOUQ6Zw/zT8MwbTqcmXUT7t4x17q8/8AUhc3H89/UitOzefHm8FC6DonwU2m98mSfDrdWvwptb+0qTQcs4MH1MGOJ8erEz8bby9UdJ0Hk1wvQbfs2lw0mPvciLX/AD23t4oXLrM+X18lp+G87d0bQilNnNBu2SsREbRG0MNI4zYjI9CZgeTxrm3S6Gs5M+qwYaxG8zmzUp2R3z9K0TPuWc5w8tfgHDutFdbfVZK92LQ4LZd9v/mzNMEfvZIWr5aU9a0R1ylNHwvWa2eTpsGXLP8Akx2tHbMRtHavxMoizBzmz5Ru1utXQ8I6v3cut1ETPtnDgjaJ9XnbQsxzd5YvH+Jb1+fxp6T9jR4aY+yfRN5i1948azWUfk4lgr0TNuqP1nZv+h823GdTtOSmPBX/AFLxM/lpy53+E7Nn3FOOYdJScubPhw46/WyZstMdY9tr2rEe+Vpua/K64Bw2bVtxPHmvXvpo621Hui2OJpPuvLV7xnjufXX87qNRnz5P9ZqM+TNbt/Wy2tMR6o2dFH34tP3KxHxmd/CNnQ9F5psFdp1eqvf31xUikdXKtyp8GdPNfyjOCnWrouFZcs91curz1w0nwmK0rlvPjtPV9qzHNHl0cf1vXrjzaXSY7d1dJpYm8R4Tl1F89t/1qRT3MfRHX1+a/TeY+Feb5c7oGh8huC6Taa6WuS0fezTOWZ7LTyY7KwqbmLpN4jxKZnU8S1ubffeuTVZOrO/omlbRTb1dVTEQkYVrTad5mZ7W6YdNiwV5OGlKV91K1rHVEREADyyQAAAAAAAAAAAAAAAHt8k8034Tr9DxLHMxk0uemWNvTFZ+nXs7Zi1etG3tbhuVOYKcR0ek12O0Tj1OCmakx4ZKRb8JmY9zS9/1/wBe1sR8gbpF+fcEycKvbfLwzLNccT3+ZzzOXFt6sczan7qd4Vm2vOOeiY3jrj/hwrzp8J9NpMWvpH2sNvR5P/Tv0T/LfaP5mUyUQltD5hAAAAAAAAAAAAAAAAAAAAAAAAAAAAAAAAAAAAAAAAAAHzzY+tW1Z7pjaff2S+jjZ5tWLRNZ6JiYnqlWGPHFdH5nNmxfcyWiPZvO34bOqqzpL0HmtZa3oyVi3vjslSb89OP6GdDxHU6aY29HmvEfh33r4TDrujy+lw0v76x3+0Aa+zQAAAAAAAAAAAU3ARJsbpDd2dDwzJnnbHjvf9mszEe2e6PiyMOny57RTFS17T0VrWbTPVERMvFslaRvaYiPfM7Q6yN1ZcN6LtRk2m9qYo9f07fw1mI+NlV8L6LdPj2m83yz+tMRX3Vrt+My6Lwvzd8b120+h9BSfvZrRTm/Dz38ENn4zpcXNyuXPurG/jzR4rS4sU3mIitpme6KxMz7OyO/1Pf4byFqs+0+ZmlZ+1lnq/2e234QvLoeEYsEbUxUp+zWI/HvdvqOs8N80OnptbXam+SfbTFEUr1cq29pjqistfzeUN55sVIr8bc893NHzW54b0Rx35c0z41x12/tWifyVRw3kfS6faa4KzaPt33vb2723292z3oqnZ1Xh3kfwjh+3oNJi5UffvHpL/mvugc2v1Gb18ltvdE7R3Rs4UwxWNoiIjwiNvycuqk2bhFYrG0RER7o5vCEekRui1nockTLyuNcz6fQ0nLqNTgw0j7ebLTHH9q0b+5ZrnHy1uA8Nm1Y1ltVkjf9HosVsm8xv9Hzlupiif2rwtXy0p61ojrlJ6Pher1s7abBlyz/AJKWmO2dto7ZX53ceuwW5w+UbzX61NBwjFSv2c+u1E3t/wADBWlaz/v7exZPm7ysePcU60X4nfDjtvE4tHSuCNp7Or1qxN+zx60Sj8nE8NeiZt1R9dnRND5tOManactcenrP+JeJt+XHyp79mzvmHnfR8NpOXVazS6fHHffUanFir8b3r2+pZzm3y3+AaDrRTV31eSOzq6PDe1ZnwjLeKY5ifvVm0etrQ4hxHJqbzmy5cmXJPflzZLZLz6dpvebWmPe66NycWtPqViPjM7z3c0Oi6HzUaSm06vUZcs+2uOIx16t55dp64mrMzm/5RnNabV0HCqU8MutzdeY8J81h6sTHtyQslzb5WnMHE5tF+KZMGO39TocdNNWPVF6V+cTHo+lllaCBG31ma/Teezm+Toeg8juD6LacWlxzaPvZI9Lbvvvt2RDtcT4tl1VpyZs2bLeZ3m2bLfJO/jve1nV/6/63/kDEmZnpnf5twpStI5NKxWI6IrEREdkcwAouAAAAAAAAAAAAAAAAAAAAAAAAC+PkddIn9Dcx6Olr9XT8Q/zLNvO1YtlmPMWnw2ybR+9Cxz6aTVWw5MeakzF8V65cdo74titF6T6tprEruLJ6O9bx7JhE8V0FNfpM2lv0ZcdqdUzH2Z7J2luziUqK6H+eK8b4Pw3iVZj9Pgr5yPC9axXLHutEq03b9W0WiJjomN3wTqMFsGW+K8bWpa1LR7prO0+KQHpYAAAAAAAAAAAAAAAAAAAAAAAAAAAAAAAAAAAAAAAAESkBbzpb4fviwZ4j6l+rb2Xjs/GFr9l9edeH+f0eenpivWr7adqxMPjvzq8P/Z+LRqIjauoxVt/PT7FvCKz2uicAzcvBNP7lp7p5/qkBxZs4AAAAAKACuxuCN3pcM5bz6rbzeG8xP25r1ae3rTtE+7dl6bR59VeMeDHfJaebk0rNp8IWr5aY43vMVj3zOzzkTK4PC+iO9tpzZor+rjjefZ1p+jH8Mqw4XyLptNtNcUWtH28n0p9vb2R7odT4V5sOL6za2aKaak+3JO9+zHXeey01QGfjunx+rvefhzR3z+kSs9w/l7Pqf9Hhvb9bbq1/ittCruGdE2S205ctaR92n0p+M7RHwldPFSIjaI2j2ObsXC/NTwvTbW1VsmptHsmeRj/LXnmOuzXc/Hc9+akRSPhzz3z9FK8L6PdNg2mcfXtH2sv0v7P1Y+CpcWnrSIitYiI7oiIiI90PqOraHhOj0FeRpcGLFH+SkRM9c9M9sygsufJlne9rW653cdk7JEssAPnNgfQWL6ZfK24Zy1NtNN7arW17J0emms9SfDNl36mLv7p3t6mKHO3l78Z105K6amk0OGeysY8c580Rv6c2aepvMemmGkx6+9gZtdixc0zvPujnlvfCPInivFKxkxYvR4p6MmaeRWY98RtN7R8Yrt8WxnW6+mGJvfJSlI77XtFYjb1zMQtPzp5WXAeEb1ycVxZcsdk6fRVvqsm8fZnzNbY8c/7S9Yay+aukXX8VtNtXxDV59++uXPeaen+ri0U2/dmVORCKycWnopXb4zP6R9XVeH+afHG063VWt76YaxWPjHLvvMx/LDOPnH5RnHXrU0HCsl/u5tblikd31vN4ovPZPo60rFc5eWRx/ifWrGv+a4rb/o9DjrinafR56ZtmiYj0471lZIRmTW5r/emOrm+XP4ulcP8AIrg2h2nHpqXtH3s3/VnuvvWOysO5xXjWbV3nJn1GfPee22TUZ8mW0+ubZL3mZ9sukkYUzMt1pjrSIrSIrEc0RWIiPAAeXsAVVAAAAAAAAAAAAAAAAAAAAAAAAAAAAAAABRnZ8nf0g+e0vEuB3v8AS02Suq0sT/q9R1q5ax+zkpvt6ItHizLaovJZ5+/oXmPhuebbYdRf5pn3ns6uo2isz6Iit+rP/wCW1us77S3DhuXl4Yj215uz2PkDzj8L/Y+L2y1jamprGWPdy/Vv32jlT+JzASrlgAAAAAAAAAAAAAAAAAAAAAAAAAAAAAAAAAAAAAAAAiUokHzz4+tE18YmJ98bMfOL6PzOfNi+5ktH47x+EwyGtVajpQ5enHl+d1j6GTaMk/dtEbRM+HWhw3zrcIvq+H49Vjryp01977RzxjvG0z1RaImWzcB1EY800tO0Xjm646O/nUKIS+RZh0QAUVAffR6DJnt1MeO97eFKzO3tnuj2yv4sN8topjra9p5orWJtMz8IiJmVu14rG9piI988z4I3VvwnoqzZdpy2rjj7v1rez7sfGVacJ6O9Np9p835y8fayz1vhX6sfB1DhHm14xr9rZKRpqT97NO1tvhjje3fsgtRxrT4uaJm8+6vR3zzd260nDuA5tTMebw3t+tttX29ado2Vhwnokvba2bLWsd/Ux/Sn+KYiI90SufTDFYiIiIjwiOz/ANH0iHauE+arhml2tq7X1N459pnkY/y1557bbT7Ya1qOO58m8UiKR8Oee+fop/hXI2n0201xRa0fbyfSn29vZHuh71abbeDmOuaPh+m0VORpsWPFWPZSsV+UNfyZb5J3vabT8ZmUCRILSEgAAACAN2JPlneUtbg9J4Bock11+fH1tXqaT9LS4skdlaTHbGbLEzMT2TWO3wZU8X4jGmw59RbaK4sdslpnwpWbfyadekLmrJxbifEeI5LTa+p1N8kzM77RvNMVPV1cdaR7oRPEdROKkRXpt8va615uvJ/HxPW2z6ivKxaaK25E9F8lp+xE++I2mZj2zt7N3gXvNptaZmbWmZtaZ3mZmd5mZ33tMzvO8+mZ98A1B9cRERzR7OYAFQAAAAAAAAAAAAAAAAAAAAAAAAAAAAAAAAAAAAAAAHLFlmlq3rO1q2i1bemLVmJrMeyYifc27dBHPUcc4FwniO/08ulpXPHpjLjpGPNWfXF6zPvah2dvydvPfnNLxHglr/S0941OCsz9jN2ZOrHftF4/tJnheXk5Zr7LR4w435z+GftPDa6qsfa014mZ/wBO/wBm3dbkyzLAbY+UAAAAAAAAAAAAAAAAAAAAAAAAAAAAAAAAAAAAAAAAAAEbOvrtDXNS2K9YtS0bWrPr/wCTsoW8mOuSs0vEWraJiYmN4mJ6YmPbCsTMTvHNMdC0vMXRhkxTN8H6Snb+jmdr19Uei8fipDUcKy452thyR7cdvz22ZEbI83HhHwcR4r5qOH6rJOTS5L6blc80iIvjifhEzEx1RbZsun49mxxteIvt7eie+Pox2x8PyW7IxZJn1Y7f8nv8K6PNTn23pGOv3sk/+WO2fwXq81EeiPgnZiaHzRaHHblarUZc0R92sRjrPXtyrd0wuZfKHLaNqVrX4+tP6R4KJ4P0XYMW1slrZbeE/Rp/DE9vvmVYaTQ0xVitKVrXwrER+T7xA6/wzgWg4ZWK6TT48fN60V3vPXed7T3tfzarLnnfJebdc83d0I6iYhInmKghIAAAAAAAAAiUoBSvShjm3CeLVrv1p0WaK7ePmrNOdq7TMemJnf49rdfrdLGXHkxTH0b0tS3stExP5tPXStyhbg/GOKcNvWYnT6q8Ujxpk/S4bRPpiaXr2+MT4Nd4tSdqW9nPE9vP+j6G802qrE6vTTP2pjHkiPbMRvW3dM171KANcfRoAAAAAAAAAAAAAAAAAAAAAAAAAAAAAAAAAAAAAAAAAAvz5EfMM6TmvQY9/o6vFm094junfFbLj39k0mVhV6vI44LbVc2cImsTtp5y6i8xvtFaafJXtnu7ZvEMrS82am396Pm1nynrS3CdZGT1f2bL0++KTMf1bNptZS41cm9vhJIAAAAAAAAAAAAAAAAAAAAAAAAAAAAAAAAAAAAAAAAAAAAAAAAAAAAAAAAAAAAAAAIYFfKFdHHmdXoeP0r9HU1+a6qYj7eKJnBafXNN6+6Gey1nlJdHf9Pcv8U0cRE5q4LajSzt3ZdPE5ccd289aa9XaO/dh6vD6XFavt23jrjnbh5JcVnhnFdPnmdqTaMeT3TTJ9md+qdrdjU0JtWYmazG0x2TWe+sxO01n11neNkNGfcUTExvHtABUAAAAAAAAAAAAAAAAAAAAAAAAAAAAAAAAAAAABG4JHo8A5a1HEcsafTabPqMs/1eDFa8xv6Z6sTFY9dphkf0aeQNxPiHUza/Ni0GnntnFExm1VonvjqV/Q4JmO6bXvPjWGRi0+TL6lZn4+yO2Wv8T49oOGV5Wrz48c/3N97z1Urvae5jFp8Nsl6YqVtbJe0Vx46Vm172tO1a1rETNrTPZtENjPkZeTxfl7TX4rq6dXiGtpERhnaZ02H61ccz/rLz22jt27I9HbcHom8mPhXLPVy6fTRk1URtOt1Exky+vqTMdXDE+GOK+iF2K1bHo+H+hnl3ne3sj2R8et85+WPl/wD2rinRaKlseCZ/6l7c18kRO8V5Mb8mvtmN5mfh0OYCacYAAAAAAAAAAAAAAAAAAAAAAAAAAAAAAAAAAAAAAAAAAAAAAAAAAAAAAAAAAAAAAAAHDJSJiYnunsmPb3ubjaOxQaoPKg6PP6C5h4hpq16uDPb53puzs6uombWiP2b9aPgtQz1+UK6OvP6Hh/HMdfp6K9sGpmI78Woms1mdvRTJWJ9USwKlpOtw+jzWiOieeOqfp0PtvyM4r/aXCcGWZ3vSvosnv5eP7O8/irtbtAGC3gAAAAAAAAAAAAAAAAAAAAAAAAAAAAAAAACFQcndH+t41kjDotFqNRffaZxY5mlf28k7Y6beEzv6pVrWbTtEbz8FjNmx4KTfLetKx02taK1jrmZiFPJiN9o9M9m35R7Z8GXHRx8ntq9T5vNxPW49NjnabaTSxGbPP6ts1tsOKf2a5O/0Sys6N/Js4Py/FbafQ47Z4/7XqI89m9sXydbqdv3dkth4blvz2+xHx557vq5Zxfzk8M0W9NPM6rJHsx82OJ+OS0f9sWa8+jbyXONcf6mTFoL4NNbt+ea2tsGOYn7VKXiM2WPTE1p1Z+8yn6OPk99Bpurl4lqc2sy9kzp8NrafTxPhM47RnyRPrvWNvRLLeMcR6ExXZNYeHYsfPMcqffb6OK8X84fFtfvXHeNNjn7uHmtt8ck/a/LyY+DweVeRNHwnFGn0mj0+nx1jaKYMNaR2ePVjefbL24o57JScREc0czmmTJfJab3ta1p6bWmZmeuZneUJBVbAAAAAAAAAAAAAAAAAAAAAAAAAAAAAAAAAAAAAAAAAAAAAAAAAAAAAAAAAAAAAAAAAAHHZyQClOlDkynGeFcQ4besTGowXpXeN9rdWZxzHri20tPnEuH202bPprxMZMGW+HJWe+LYbzjvWfZNZbrMnc1i+Wp0ef0TzHqNRSu2DiVfndOzsjJP0dRXs/WiLbetA8Vw71jJ7Y5p6p/5d481fFfRanNobTzZa+kxx/npzWiPjNZ3/AJVhAGsPpsAAAAAAAAAAAAAAAAAAAAAAAAAFAESKpFX8gdEPEuYLxXRaDPmpM7fOOpNMEejt1F9sc7emKTMx4Mo+jn5O61+pm4pxCax320WgiN58a31OSs7RPdPm8e/haGXi0mXL6tZ29880NS4r5VcL4XExqdRWLx/Dp9vJPw5Nd9v5to+LDDBgtktXHWtrXt9WlKza0+qKxEzM+5e3o38jnjfGppktpfmWmt2/ONf9C1on7WPTRM57Tt6MkY49cthHR70GcL5frFdHw/Djv6c9q+czW27N7ZsnWyTPvV9Cbw8KrHPknf4R0d/S4txfzq5r704fhjHHsy5ftX64pE8mO2bMYujnyDOE8PimXW+c4hmjtmuaepp4nv28zSY85HqyTaJ9MSyM4JwHBosVcGDT4cOKkdWmLDipjrWI7oitK1iIj2PTEzjw0xxtSsR1ONcR4xreI35erz5Mvui1p5MfhpH2a9kQ47J2SLyHAAAAAAAAAAAAAAAAAAAAAAAAAAAAAAAAAAAAAAAAAAAAAAAAAAAAAAAAAAAAAAAAAAAAAAAAAARZi95fHR98+4FTidKb5eG5q3tMR2+ZzTGPL6O6m9ck/ssoXh858u04lodZoMkROPU4L4rRMffpMRPunafdCzmx+kpanvjx9nim+CcQtw7X6fVx/CyVm3xpvteO2szDTJuPT5n4Bfh2s1ehvExfTZ74bRPf+jvNYnt+9G0+95jQZjadp9j7zxZK5KVvWd62rFon3xMbxPbAAougAAAAAAAAAAAAAAAAAAAAjrf9f9fl3rn9HPk28Z5g6ttPw/Lj08/9s1dbYMO0/ap169fNEx2746TX9ZcpjtedqxM9XOwNZr9PoqTk1OXHirHtvaK92/PM/CN5WxdzhPBs2tyRgwYM2bLPdiwYr5Ldvd2UrMx7ZZ0dHPyemkwdTLxPWZdTeNpnS6aZwYd/C14/T3j9m1N/Xuyc5N6NdDwXFXBo9Fp9PSOzbFirWZ9dr/WvafTNpmZS+HheS203mKx3z9HI+LedHQafemipbUX6OVP/AE8UfHeftz2Vjra/ejfyFeMcUmmXVeZ4fp7bTPn7ed1ExPbtXT45mtN+79LkrMfdnunKjo38ifg3B/N5MmD59qK7T53W7XpvHprgiIxRHqmsr/1x7OabxaHDj54jeffbn/4cW4t5c8W4lvW+b0WOf4eHekbfG283t222+DraXQ1w1jHSlKUiNq0pWK1iI7oitYiI28IfeIchnbbNBmZmd5559qNiISKqAAAAAAAAAAAAAAAAAAAAAAAAAAAAAAAAAAAAAAAAAAAAAAAAAAAAAAAAAAAAAAAAAAAAAAAAAAAAAAD52h9HEGtfy7OQP6N5g+fVrth4lgjNvEdnncUzizRPo3mIx229rHBsk8u7kL+keAfPq03y8NyxniYjeYx3+hm90Rtb3NbcNM4hi9Hmn3W+1Hb/AMvsvyA4p+38IxRad74JnDf3/Y9TvrMJARrpAAAAAAAAAAAAAAAD66XS2zXjFSl75LTtTHjpa17TM7REVrE2mZ9UEc/M8zaKxvaYiI6Zmdojtl8kL79HHkY8b4z1cmTTRodPbafPa76OSYn0001Z87/xfN+jbdlL0deQdwjh3m8us87xDNXtmue0008T2f1GOaxkjffsyzaJ9MJHDoM2Tn22j325vDpc+4t5d8J4dvWcvp8kfw8G153+Nt4pH5t/gwB5S5D1vGMnmdFotRqb77T5nFNq18Yvk7MdNu/abROzJXo5+T512q6mXiOsxaTFPbbTaaIz6iY8JyW2wYZ9cRl9kM9OC8vYNDipg0+nw4cNI2piw4qY61iO6IrSIiHobJrDwvHXnvPKn3dEfXxcW4t5z+IanemjpXTU9lv3mX80xyY7K83vlaTo38l7g3AYpbDoaZdRTaY1eq/TZd47d6zfeKbT2x1Ijb0LtVxx7vCExCYS9aVpG1YiI+HM5Jq9bn1l5yajJfLb+9e02nqjeeaPhHMjqJ2SPbDREJAAAAAAAAAAAAAAAAAAAAAAAAAAAAAAAAAAAAAAAAAAAAAAAAAAAAAAAAAAAAAAAAAAAAAAAAAAAAAAAAAAAAAHjc2cv04jpNXoskb49RgvhvG3oyVmvp7OyZiWnHmTgV+H6vV6HJExk0ue+C+/fPmrzWLfvREW97dLZrU8ujkP+juYZ1laxGLiOKM0TEdk5Me1Mvtmfo2QfFcW9K3/ALs7dk/8u4+avifodZm0Vp+znpy6/jx9PfWZ/LDHQBqz6iAAAAAAAAAIFAevy1yfq+KZIw6TSajUZJnbq4MNr7T+taI6tPbaYZH9G/kAcT13Vy6/Nh0OGdpnDSa59TMeE9SfMYpj9rJ7IZGLT5MvqVmfj7O/oa9xPyg4fwyu+q1GOk7c1N+VknqpXe3ht72LEzt2/ir7o96CeK8wTWdHw/NbFbu1WWvmtP7Yy5IiLx68fW9zYf0deSHwXgnm8kaKmq1FO7U67bPMWj7dMd4nFjnftia13j0SvNg00Y4itaxFY7qx2RHqiPR7ITWLhXtyW7K/X/hxvi3nWrG9OHYJmfZlz80dmOs799o6mFnR38nXWJpm4pxC1/TOi0MdSvo+jfU33vaPVipSf1mUPInQ1w3gNIpo+H4MUx35YpFstvXbLbrXtM+MyrdGyZxabHi9WsdfTPe4zxTyl4lxSf8AxWovav8Ah1nkY4/krtE9u8/ErCRLKawAAhIAAAAAAAAAAAAAAAAAAAAAAAAAAAAAAAAAAAAAAAAAAAAAAAAAAAAAAAAAAAAAAAAAAAAAAAAAAAAAAAAAAAAAAAAAiWLvl98hTruB4uJUrvl4bqIveYjt8zmrOLNv+rWZpf3Qyi2eVzNy7j4jpdVoctd8WpxWxZKz29l6zE9nq71jPj9JjtT3x4+xNcF4jbhuuwauv8LJW0x769Fo7azLS6Kx6XOjXNy3xTV8LzVmPNXmdPk2nq5sNp3xZazttMTWYrPhaJj0bzRzQ7VmszE80xOz7v0upx6rFTPitFqZKxasx0TExuAPLKAABEzt2q95A6CuLcfmvzTh2e+O3/acseZwR+t53JtFq+nekW39G73WlrTtWJmfhzsPVazBpaTk1GSmKkdNr2iseM+EKDlOLHN7Vx1ra17T1aY61m1rTPdWtYjrWmfCIlmx0c/J3bdXLxXiHWnsmdHoImtY3jtrfU5Ii9/DfHjx+9lJyB0J8L4DWsaPQYMV4jqzqOpFs1vHrZrb3nf09sQlcPDMl/XmKx3z4fVyji3nO4bpd6aSt9VePbX7GP8APaN5/lrMfFrw6OfI943xrqZJ0vzPT27s+u3x2mPGuniJyz7LxVlH0c+QDwvQ9TNrsufX5o7ZxWnzWmif9jj2vkj1Zclqz92GUsY4g6ibw8Pw4+fblT77c/h0OM8W84HF+Ib1rk/Z8c/cwfZnb43ne89kx1Q8nl7lLTcNxV0+m02HBirG1ceHFWlYiPVWI3971ohOxEJGI26HOL3teZteZtMzvMzMzMz75meeRIKvAAAAAAAAAAAAAAAAAAAAAAAAAAAAAAAAAAAAAAAAAAAAAAAAAAAAAAAAAAAAAAAAAAAAAAAAAAAAAAAAAAAAAAAAAAAAAAAAAjZIC0PT/wCT7pubtH5u+2PW4azOi1sV3tjmf6u8Rt18V52iazPrjua2Okzof4hy3ntp9bpclK7z5rV1rNtPmiPtY823VmZ7JmltrV9MemdwjpcY4Ni1mO2HNhx5cVvrY8uOt6z7a2iYRmq0NM/2vVt7/f1w6V5L+XGr4JHoLR6fTzO/o7TtNPfOO3Ptv7azExv7paVRtI5g8jXl7XWm9uGebmZ3n5rqM+niZmd5nbDkp3vlwbyLOXdJaLRw2ckx2xGq1Wozx6uzLltHxRH9k5N/Wrt2/LZ16POrwz0e84dTy9vV5OOa7+7lek8eQ1pct8oavimSMGk0ep1OWe6mnwXybdu29rVrNaVj02vaKx6Zhkf0ceQFxLXdTLr8+LQ4p2mcNJrn1G099bbT5nHb2Tf2s/OBcr6fh+OMOn02HDjjsimHFWkdnqrEb+2XrbM/FwvHXnvM2n3dENC4t50ddqN6aLHTTV6OVP8A1MnZMxFa/lnrWQ6N/JA4JwSaZY0carU12mNVrpnPaJjt62PHb9Bin10xxPrlerBp646xWta1rHZFa1iIj1RERtD7IS9MdaRtWIiPhDkms4hqdbf0mpy5Mtvfe0226t+aI+EbQjY2chcR4AAAAAAAAAAAAAAAAAAAAAAAAAAAAAAAAAAAAAAAAAAAAAAAAAAAAAAAAAAAAAAAAAAAAAAAAAAAAAAAAAAAAAAAAAAAAAAAAAAAAAAAAiUgI2NkgISAAAAAAAAAAAAAAAAAAAAAAAAAAAAAAAAAAAAAAAAAAAAAAAAAAAAAAAAAAAAAAAAAAAAAAAAAAAAAAAAAAAAAAAAAAAAAAAAAAAAAAAAAAAAAAAAAAAAAAAAAAAAAAAAAAAAAAAAAAAAAAAAAAAAAAAAAAAAAAAAAAAAAAAAAAAAAAAAAAAAAAAAAAAAAAAAAAAAAAAAAAAAAAAAAAAAAAAAAAAAAAAAAAAAAAAAAAAAAAAAAAAAAAAAAAAAAAAAAAAAAAAAAAAAAAAAAAAAAAAAAAAAAAAAAAAAAAAAAAAAAAAAAAAAAAAAAAAAAAAAAAAAAAAAAAAAAAAAAAAAAAAAAAAAAAAAAAAAAAAAAAAAAAAAAAAAAAAAAAAAAAAAAAAAAAAAAAAAAAAAAAAAAAAAAAAAAAAAAAAAAAAAAAAAAAAAAAAAAAAAAAAAAAAAAAAAAAAAAAAAAAAAAAAAAAAAAAAAAAAAAAAAAAAAAAAAAAAAAAAAAAAAAAAAAAAAAAAAAAAAAAAAAAAAAAAAAAAAAAAAAAAAAAAAAAAAAAAAAAAAAAAAAAAAAAAAAAAAAAAAAAAAAAAAAAAAAAAAAAAAAAAAAAAAAAAAAAAAAAAAAAAAAAAAAAAAAAAAAAAAAAAAAAAAAAAAAAAAAAAAAAAAAAAAAAAAAAAAAAAAAAAAAAAAAAAAAAAAAAAAAAAAAAAAAAAAAAAAAAAAAAAAAAAAAAAAAAAAAAAAAAAAAAAAAAAAAAAAAAAAAAAAAAAAAAAAAAAAAAAAAAAAAAAAAAAAAAAAAAAAAAAAAAAAAAAAAAAAAAAAAAAAAAAAAAAAAAAAAAAAAAAAAAAAAAAAAAAAAAAAAAAAAAAAAAAAAAAAAAAAAAAAAAAAAAAAAAAAAAAAAAAAAAAAAAAAAAAAAAAAAAAAAAAAAAAAAAAAAAAAAAAAAAAAAAAAAAAAAAAAAAAAAAAAAAAAAAAAAAAAAAAAAAAAAAAAAAAAAAAAAAAAAAAAAAAAAAAAAAAAAAAAAAAAAAAAAAAAAAAAAAAAAAAAAAAAAAAAAAAAAAAAAAAAAAAAAAAAAAAAAAAAAAAAAAAAAAAAAAAAAAAAAAAAAAAAAAAAAAAAAAAAAAAAAAAAAAAAAAAAAAAAAAAAAAAAAAAAAAAAAAAAAAAAAAAAAAAAAAAAAAAAAAAAAAAAAAAAAAAAAAAAAAAAAAAAAAAAAAAAAAAAAAAAAAAAAAAAAAAAAAAAAAAAAAAAAAAAAAAAAAAAAAAAAAAAAAAAAAAAAAAAAAAAAAAAAAAAAAAAAAAAAAAAAAAAAAAAAAAAAAAAAAAAAAAAAAAAAAAAAAAAAAAAAAAAAAAAAAAAAAAAAAAAAAAAAAAAAAAAAAAAAAAAAAAAAAAAAAAAAAAAAAAAAAAAAAAAAAAAAAAAAAAAAAAAAAAAAAAAAAAAAAAAAAAAAAAAAAAAAAAAAAAAAAAAAAAAAAAAAAAAAAAAAAAAAAAAAAAAAAAAAAAAAAAAAAAAAAAAAAAAAAAAAAAAAAAAAAAAAP//Z;" vertex="1" parent="1">
          <mxGeometry x="659" y="237" width="80" height="80" as="geometry" />
        </mxCell>
        <mxCell id="ZWZFDb_ZpwZTJIpMt9Q7-16" value="" style="shape=image;aspect=fixed;image=data:image/jpeg,/9j/4AAQSkZJRgABAQAAAQABAAD/4QAqRXhpZgAASUkqAAgAAAABADEBAgAHAAAAGgAAAAAAAABHb29nbGUAAP/bAIQAAwICCAUGBQUIBgYIBgYGCAYFBQYFBgcHBggFBQUFBQUGBgYFBgYFBgUGBQUFCgYGBwgJCQkFBQsNCggNBggJCAEDBAQGBQYIBgYICAgICAgICAgICAgICAgICAgICAgICAgICAgICAgICAgICAgICAgICAgICAgICAgICAgICAgI/8AAEQgDhAOEAwEiAAIRAQMRAf/EAB4AAQABBAMBAQAAAAAAAAAAAAABBgcICQIEBQMK/8QAVBABAAIBAgIFBwgGBQkFBwUAAAECAwQRBQYHEiExUQgTQWFxgZEJFCIyQlKhsSNicoKSwRVDorLSFiQzU3ODk9HwRFSUwuEZJVVjw9PxNEVko7P/xAAdAQEAAQUBAQEAAAAAAAAAAAAABQEDBAYHAggJ/8QARxEBAAIBAgEHCQUFBwIFBQAAAAECAwQRBRIhMXGBkaEGBxMyQVFhsdEiQnKSwRQzQ4KiFVJTYmPC4SOyJDRzk9IWF0RU8f/aAAwDAQACEQMRAD8A2pgAAAAAAAAAAAAAAAAAAAAAAAAAAAAAAAAAAAAAAAAAAAAAAAAAAAAAAAAAAAAAAAAAAAAAAAAAAAAAAAAAAAAAAAAAAAAAAAAAAAAAAAAAAAAAAAAAAAAAAAAAAAAAAAAAAAAAAAAAAAAAAAAAAAAAAAAAAAAAAAAAAAAAAAAAAAAAAAAAAAAAAAAAAAAAAAAAAAAAAAAAAAAAAAAAAAAAAAAAAAAAAAAAAAAAAAAAAAAAAAAAAAAAAAAAAAAAAAAAAAAAAAAAAAAAAAAAAAAAAAAAAAAAAAAAAAAAAAAAAAAAAAAAAAAAAAAAAAAAAAAAAAAAAAAAAAAAAAAAAAAAAAAAAAAAAAAAAAAAAAAAAAAAAAAAAAAAAAAAAAAAAAAAAAAAAAAAAAAAAAAAAAAAAAAAAAAAAAAAAAAAAAAAAAAAAAAAAAAAAAAAAAAAAAAAAAAAAAAAAAAAAAAAAAAAAAAAAAAAAAAAAAAAAAAAAAAAAAAAAAAAAAAAAAAAAAAAAAAAAAAAAAAAAAAAAAAAAAAAAAAAAAAAAAAAAAAAAAAAAAAAAAAAAAAAAAAAAAAAAAAAAAAAAAAAAAAAAAAAAAAAAAAAAAAAAAAAAAAAAAAAAAAAAAAAAAAAAAAAAAAAAAAAAAAAAAAAAAAAAAAAAAAAAAAAAAAAAAAAAAAAAAAAAAAAAAAAAAAAAAAAAAAAAAAAAAAAAAAAAAAAAAAAAAAAAAAAAAAAAAAAAAAAAAAAAAAAAAAAAAAAAAAAAAAAAAAAAAAAAAAAAAAAAAAAAAAAAAAAAAAAAAAAAAAAAAAAAAAAAAAAAAAAAAAAAAAAAAAAAAAAAAAAAAAAAAAAAAAAAAAAAAAAAAAAAAAAAAAAAAAAAAAAAAAAAAAAAAAAAAAAAAAAAAAAAAAAAAAAAAAAAAAAAAAAAAAAAAAAAAAAAAAAAAAAAAAAAAAAAAAAAAAAAAAAAAAAAAAAAAAAAAAAAAAAAAAAAAAAAAAAAAAAAAAAAAAAAAAAAAAAAAAAAAAAAAAAAAAAAAAAAAAAAAAAAAAAAAAAAAAAAAAAAAAAAAAAAAAAAAAAAAAAAAAAAAAAAAAAAAAAAAAAAAAAAAAAAAAAAAAAAAAAAAAAAAAAAAAAAAAAAAAAAAAAAAAAAAAAAAAAAAAAAAAAAAAAAAAAAAAAAAAAAAAAAAAAAAAAAAAAAAAAAAAAAAAAAAAAAAAAAAAAAAAAAAAAAAAAAAAAAAAAAAAAAAAAAAAAAAAAAAAAAAAAAAAAAAAAAAAAAAAAAAAAAAAAAAAAAAAAAAAAAAAAAAAAAAAAAAAAAAAAAAAAAAAAAAAAAAAAAAAAAAAAAAAAAAAAAAAAAAAAAAAAAAAAAAAAAAAAAAAAAAAAAAAAAAAAAAAAAAAAAAAAAAAAAAAAAAAAAAAAAAAAAAAAAAAAAAAAAAAAAAAAAAAAAAAAAAAAAAAAAAAAAAAAAAAAAAAAAAAAAAAAAAAAAAAAAAAAAAAAAAAAAAAAAAAAAAAAAAAAAAAAAAAAISgEiJR1gTuI6zhkzRWJmZiIjvmZiI+M9gpu+m6Xj6rm7S4d5vrdJTbv6+qw12+N4UpxXyheBaP/AE3H+E49u/znEdPX88i7GK9uisz1RMvFstK9NojrmFwkrJcS8tLlfT79bmLQW2/1Fsmf/wDwx5N1Ma75RDlTF3cVz5J8MXCOJejwnJpMdZ9sSya6HU26MOSf5LfRjW1unr05ccfzR9WSaWI/EPlOuW8W/Vx8Zzf7Lh2KN/Z5/W4fx2eHq/lU+CR/o+Fcdt+3h0GP+7xHLsv14VrLdGG/bG3z2WbcT0tenLXsnf5bs1EMFNT8q7oI+pwDiNv29Xpqf3YyPOz/ACsOH7PLmo/f4pj/APLo16OCa2f4U99f/ktzxbSf4kd1voz9Ru146j5V632eXojw6/EZn8tPDo5PlXNT6OAab97XZf5YoXP7C1v+H/VX6vH9s6T+/wD02+jY6hrZyfKta70cB0Pv1uo/ljfL/wBq1xD/AOA8P/8AGan/AAK/2Drf8P8Arp/8nn+2tJ/fn8tvo2WIa1f/AGrXEP8A4Dw//wAZqP8AC+2P5VrW+ngOi92tz/zxn9g63/D/AK6fU/trSf35/Lb6Nkm6WuXD8q5qPtcv4P3ddkj88UvU0vysFft8u3nx83xOsf3tLLzPAtbH8P8Aqr9XqOMaT/E8LfRsFN2COl+Vd0U/6Tl/X1/2et0+T+9jxfmqHQfKmcCvtGThvHMcz3zXTaHJWPXMxxKtvhSVq3B9ZXnnDbs2n5TK5HFdJP8AFr27x84Zm7m7Gbg/yi3Kuo2i3ENVp7T9nU8L1vZv430+DUY6+2bbLkct+U/y9xKa1wcf4Xe9vq4razHjye/Flml499WHk0Wox+viyRHvmltu/Zl01mC/q5KT1WhdHc3dTRcTx569fHkx5Kffx5K3r8a2mHa3YU8zKiYlyAFQAAAAAAAAAAAAAAAAAAAAAAAAAAAAAAAAAAAAAAAAAAAAAAAAAAAAAAAAAAAAAAAAAAAAAAAARukAQiZBO5uozmnpg4Vwqtravi3D8ER2TGXWYYmPbWLzaPfCzvNXyhXLHD+tWvEM2qvXupodHlyxbs+zlvGPBO/d25GVi0mfL+7x3t1Vn57bMXJqsOP171jrtHy6WSu4wJ5n+Vc0td40XANXlj7OTXa7BptvCZxaems60erzsLT8zfKfcd1O8afScM0keiYxZdRaPbOXJFZn1xWPYlsfAdbf+HyfxWiPDeZRuTjWkp0Xm34Yn5zs2nTL45tVFImbWrWI7Zm1oiNvGZmY2aXuZPLN5m4j1ovx3VY6W78elriwVjffunHjjJG37a1XH+btXxGd9VrtZqZ3331esz5/f+myX29yWx+S+af3mSteqJt8+SjcnlFjj1Mdp65iPlu3d8x+UDwPhvWjU8e4TitX62K3EtNOWPbhpltl/sra8f8AL+5W0e+3FbaiY9Gk0eoye6JtjpE+6Zad4rs5bpPH5L4I9fJeerkx+k/NH38oc0+rSsde8/T5Nn/HflS+DYd40/DuKaj7turgwx74yZetHs2mVu+OfKu5pmY03L2GI+zk1XErdnhvjxabafdkYCG6Rp5P6Kv3Jt+K0/pswb8b1Vui0R1Vj/ll3xn5T3mLNvGLT8G09Z7rV0Wpy3j1dfLrrY5/4ShOK+XvzXqZt/7783Wfsafh3DsfV9lo0dsvxvLH4Z9OF6SvRhx9tYn5sK/EdTbpy37LTHyXU4l5VHMep3jJzHxWYnvrXV2x1/hxxSI+CjeJdI/EdTMzl4pxDJM9/X1+omJ9sed2n4KdGZXTYa+rjpHVWsfoxbajLbpveeu0z+rnqM9ss9a9rXn717TafjaZl84r6oSMiI2WN5kNwA3AATugDc3NwAAFAADdMWQCqd0bgBubACrOROlbiXActM+g4lq9NevdGLPbzcxHb1bYLdbFes+mLUmPFso8j7y5Kc02x8E4l5nBxnbbBmpEY8PEOrG8xjpMzGLUbRMzirO1tp6sR9WNVbt8L4nk0ubDqsV7Uz4MlcuHLSZi1L47Rel4mO3eJiJ+PihuIcLw6ykxNYi/3bxHPv8AGfbHviUroeIZNNeJiZmv3qzM7bfD3T7tn6BzdZ3yVumuOb+X9FxO0xGqpvpuIUifq58MRF7beiMsbZI/a9S8MOQZsVsV7Y781qzMTHxh1DFkrlpW9eeLREw5ALS6AAAAAAAAAAAAAAAAAAAAAAAAAAAAAAAAAAAAAAAAAAAAAAAAAAAAAAAAAAAAAjcEiETYHIcYtu8XmbnfR8Lx+d1et0umptM9bU6jHi32jeerF7RN59VYmVaxNuaImep5m0RG8zER8Xto6zGfnv5QvlrhfWrj1mbXZax2Y+H6e16zt6PPZJxYYn0dt2PHPHyq2qydanDeB6fFH2NRxHU3z3mPRPzfTxgpS3+/yR6pS+DhGrzeritEe+32Y8dp7kXm4ppsXTkiZ91ftT4c3fLY/u8rj3Nml4fjtm1Or0unxV7b5NTqcWGtfXNsl61j4tPPOnlu8zcW60X4xkwY7RMTi0OLHp67T6N6Vm87eM239ay/GOO59dfz2o1GfPk/1upz5M1/dfJa0xHqT+HyXyz+9yVr8KxNp752j5obL5RY4/d0mfxc3y3bgecvLv5X4X1qzximqyV/q+HYM2qi37OelI01vdmWN5x+VV0uPrV0HBdRmmPqZdZqKYKT4TNMcZb18dpa40JzD5N6Snrcu8/Gdo/p2+aHy8d1FvV5NeqOfvnf5Mq+cflJ+Y9d166e+h0FJ+pOm0dc2aseE5dXObHbw38xErI82dPPGuLzadXxzimatu/FbXZq4vbGDHemCnspSFBCbxaDT4o+xipHx5MTPfPP4ojLrc+X18lp7Z27uhzy5JvM2tM2tPfa0zMz7ZneZ9+7gDPYkyADyAAAAAAAAAAAAAAAAAAAAAAAAAAAAAAAAzH+TT6X/wCi+N6ngWXJtpuLUicNbT9Guq09Z6u0ei2bHM0/chtKiWgDlvmHLw7V6TiGG01z6XNTPhvE7TFsV4tEb+FturPqlvR6JekDHzDwjhnGcUx1NZpqZZiPsXtSPO458JpeLV2nwhzXyl0nIy1z1jmvzW/FEc3fHyb/AMA1XKx2wz00nePwz9JVgA0xtgAAAAAAAAAAAAAAAAAAAAAAAAAAAAAAAAAAAAAAAAAAAAAAAAAAAAAAAAAAIRuBPY+Op1dcVZyXtWtY+ta9orWPba0xEMUvKt8uzT8qWy8I0FMWr4zEbZJvPW02hm0dnn+pas5csRO/mK2rPdvMNcfSX0+cY5lyWya/impzVtM7aat5w6ekTP1KafD1MUVj1xM+My2XQcBz6qIyWmMdJ6JtvMzHviPrMNf1nGcOnmaVib2jpiNto65+jbH0heWdy5wHr0z8YwZc9d4+aaCttXl3jf6FowRbHins/rr0j1saefPlVafTpwzgt7eimo4jnrj33jst5jTzk6sx37Tlnf1NeEJ3bdp/JvS4/X5WSfjO0d1dvGZaxm47qMnq7Uj4RvPfP6RC/nP/AJc3MvGetSeK20mG0TE4eGUjS9no/T1m2pidvTTLX2LGcT4pl1WS2bNmy5st53vmz5b5b3n71r5LWtafXMy6o2HFpcWGNsdK16qxHihMuoyZZ3ve1uuZTv8A+iJkGSx5kAFAAAAAAAAAAAAAAAAAAAAAAAAAAAAAAAAAAAAAAAAEtifyX3TF18XEOVct/p4t9bw+tp76WmK6rHX9m0xk2j70tdavegrpMvy1x7hXGaWmK6bURGojf6+HL+i1FJ8Ymlutt41qieKaSNVp70+9tvXrjnjv6Enw/U/s+et9+bfa3VPNPd0t6kWTDo8F4pTV4MGqx2i2LPiplxXiYmLVyVi9ZiY9Uw7zjExtO3udXid4iYSAKgAAAAAAAAAAAAAAAAAAAAAAAAAAAAAAAAAAAAAAAAAAAAAAAAAAAAAAAI2UB078+zwDgPGeLV+vpdJe+H1ZLV6mKZ9UXtWfcr9Z/wArbl63EOUuYtNSJm86K2SIjvnzFq5piPHspLI00VtmpFvVm9Ynq3jdj6iZjFea9MVtt17NK/EuJX1WbNqct5vmz5LZs2S0zNr3y2m+S0zPfvaZ92zrCJd0rG0REdDj0zvO8gCryAAAAAAAAAAAAAAAAAAAAAAAAAAAAAAAAAAAAAAAAAAAAAAJhADa/wDJydMP9M8uzwrLffV8GyfN+2d7X01/p6W/fMz1Im2GZn01ZZw00+RN0xf5M8z6G+TJ1dFxCY0Ot607ViM1ojBltv2R5rJNe3wtLcpjns/n/NyPjmk/Z9VaYjauT7Vev70dk/N07g2p9Pp4ifWp9mer2eDmA15OgAAAAAAAAAAAAAAAAAAAAAAAAAAAAAAAAAAAAAAAAAAAAAAAAAAAAAAAIdbiPD66jHlwXjemWlsd48a5KzW0fCZdpB8VJjfmaI+mvkO3AOO8Z4RaJj5rrMlMU7bdbFa85NPaPGJx3rG/p2lRLOL5ULoy+bcT4bzDSn0Nbh+a6q0R/W6aN8M2nxti3rEfqsHXbOHaj9o0+PJ7ZrtPXHNPi5Lr8E4M96eyJ3jqnoAEijwAAAAAAAAAAAAAAAAAAAAAAAAAAAAAAAAAAE7CqBOxsGyBE3jxj37GO8WnaJiZ8I7Z+Edqm8e9XZI9DBy/nyfV02ot+xpstvypLv6fo+1+T6vDOIW/Z0Gpn/6S3OWsdNqx1zD3GO0+ye6XgCuNL0H8ZzfU4HxW3s4dqP8A7b1cHkycxX+ry3xiY8f6PzRHxmsLc6rDHTkpHXav1e40+Weilp/ln6LZC7uDyR+Z8ndy3xL97DSn9/LV3sXkWc1X7uXdZ+9m0Vf72rhbnXaaP4uP89fq9/smf/Dv+W30WUF+sXkKc2W7uX8v73EeFV/vcRh2MfkC83T/APsMx654vwf+XE5n8HmeIaWP42L89fq9RotRP8LJ+S30Y/R4/Dae3s7d4n0bd+7eH5MvM2XifK/L+szbzmyaHHGS0995x16kX/eisS199FvyaXG9bqsU8U+b6DQ1tE6iK6vFqNVkrExNqYa6ecmGnXjePOXy71+7LZ/yzy/i4dpdNoMFIpp9LirgwY47q0xVitY7fVG+7SPKLXYM9cdMVovaszMzXniI2223+P6Nv4FpM2Gb3yRNYmIiInmmZ9+3w/V6gDSG3gAAAAAAAAAAAAAAAAAAAAAAAAAAAAAAAAAAAAAAAAAAAAAAAAAAAAAAACJSAsD5bnRl/T/KXFcVadbU6Kka/S7R29bST5zJSPDr4ovWfU01b+l+gzVaWuWmTHaImt62peJjeJi8TW0T47xMw0ceUJ0d25d5h4xwqYmKYdTa+n9eLPPncM+v6Nur7p8HQfJfU818E+z7de3mn9J7Wj+UOn2mmaPbHJns54W6Ab40wAAAAAAAAAAAAAAAAAAAABE229grCR6fBOWdTruzT6PVajt2/wA20ubNG/txY7xHvlczl7yRuZOIdScXANdFbd2TPSuGvxzXpt74Y99Rix+veleu0R4Sv0wZL+rS09UTK0Ayr5f+TU5m1W05K8K0sen5zxG9p91dJptTEz6pmPcudy58lDnmYtq+YsNY+1i0nDb2n93Pm1NI984Edk4zo8fTlrP4d5+UM+nC9VfoxzHXtHzlgMNpPLvyXnAsG059ZxXVeMWz4sMe75vhx2iPbMyuVy95CfK+iiI/oXHmmO6dXmz559v08m0++EZk8pdLX1YvbqjaPGY+TPpwDUW9aaV7d/k01zeI9MfF6fBeWdTruzTaPV6id9ttLpM+efhhxXmfY3l8v9CnB+H7fN+C8MxTX6tqcP0/Xj/eTjm/9pWWPDFYisViIjsiKxERHqiI7kbfyqj7mGeub7eEVn5s+nk5P3svdX6zHyaQOBeS7zHrtvNcucW7e7z+ktpff/nc4NvFX3Bvk+uadTtvw3Dg3/71r8Fdvb5mc7cIMC/lPqJ9WmOv5p/X9GbXyewR61rz3RHy/Vq04L8l7xzLt57XcLweO2TNm2/hxV3Vpwj5KLNO3zjmDDXx+b8Pvf4edz0/FsXGDfyg1tvvxHVWv0ZdeCaSv3ZnrtP/APGC3DPkpeHV289x3id/HzGn0mHf2TkpqNvhKreFfJh8uYtuvm4zn27/AD3EMNIn1f5totPMR7JZd7J2YduL6y3Tmt2c3yZNeF6WvRir27yxv4b8nnyng2n+iMuSY+1m4rxK+/7k6yMf9lVnDvI55X0/1eXOGW9ebTRmn45pvK8myWPbXai3TlyT/Pb6smujwV6MdI/lhb/h3k/cD023muA8Kpt3dTh+CNv/AOtUWm5D0OKIinD9FXbu6ukwx+WN7wxrZslvWtaeu0z+q/GKkdFax1Vj6Olg4Nhx/VwYa/s4qR+VXbikR6HIW5mZXIrEeyEbGyRRVGx1UgI2Nkimw49VKRUAAAAAAAAAAAAAAAAAAAAAAAAAAAAAAAAAAAAAAAAAAAAAAAAAAAAAAAAAAAARLXB8qR0X+a1XCOZMdPo6jHOg1toiduvhmcmltae6N6WyUjx29TY/KzXlcdGP+UPK3F9FFYnPjwzqtJ2dsZNLvlrt+1EWr70rwrU/s+ppf2b8m3Vbm8OlF8S0/p9PevtiOVHXHP8A8NKQDtDlIAKAAAAAAAAAbItaI7ZmI9siuyRVvKHRJxTjM1+ZcK1+pi31cmHSZfNTv3fp7Vrh7f218+Tvk5uZeIdS2XBo9FS3fOr1UTav7WLBXLbf2MHNrcGH95kpX4cqN+7pZeLSZsvqUtPVE/Ni/sNhvJ/yUVOy/EOYMlvvYOHaGmLb2anVZNR1vD/9NVfHlH5PXljh3Vtbh+XV3jvvr9XlzRb1zhi1MET+zSENl8otHT1Ztef8tdo77beCWx8D1N+mIr1zHyjfxag8WObz1a1m1vu1ibTPurvKvOU+gLjnFpr814DxXNW31c39H5seGd//AORnpi08e/I3UcsdFHDeFVrTScM0Gn6v1Zw6PFW0fvxXr/iqrqIXL5U2/h4oj42tM+ER+qWxeTsffyT/ACx+sy1Lcp/Ju8y62KWzYtDoqz9eup1tcmWsf7PS1zUtP++heLlb5KTunW8emfGmi0cRHs62bJaY8N9vc2ERCdkNl8oNZfotFY/y1j9d0pj4JpadNZt+KZ/TZiny38mty1perObDxDWTHfGo4jlx0mf2dJ82mI9XXldrlbyX+XuFTW2m5e4XS9fq576PHmzf8fPGXNPvuulsjZE5NdqMnr5ck/DlTt3b7eCTpo8GP1cdI/ljd1dHwrHh7MeHFSNttseKleyPR9GsO3AMKZ97LiIjoSI3NxVIjc3BIiZR1wchx66JyQpMxHPM7DmOrm4njp9bLjj9q9Y/OXnajnPS4+ydRj91t/yR+biWkwxvkz4qfiyVj9V2uK9vVraeqJl7UyhS2fpM0lf6y0/s47f8nm5ulvBH1cWafXtWI/G2/wCDXs/ljwXB6+t0/VW8XnupypZleHam3Riv2xt89ldbpmy22bpg+7pffbNt+EY5/N0M3S1mmfo4cMe3r2/KaoDN5yuAY+jUWvt7KYcs+M0iPFlV4Lq5+5t12r9V2N09ZZrL0n6qe6cVfZj/AMUy6ebn/V2/rtv2a1j8oQmXzs8Hr6tNTfqx1rHjffwZVeAamenkR2z+kL4dZO6wd+bNTbv1OX+Lb8odbJxvNbvz5v8Ai2/5orJ54NFHqaTNbrvSv6Sv18ncs9N6x2TP0ZB2yxHpj4uE6usfar/FDHi2tvPfkyT7b2/xPla0z6Z98zKMv54q/c0U/wA2WP0qvx5OT7cv9P8AyyHtxPHHflxx7b1/5vnbj2GP6/D78tP8THrY2YdvPFn+7osfbkt+kLkeTlfbknsr/wAsgZ5k0/8A3rT/APHx/wCJx/yp0v8A3vTf+Ix/4lgNhjz54tX7NHg/9zJ9Hv8A+naf4lvywv8A/wCVel/73pv/ABGP/GmOZtNP/atP/wAfH/iWA2Rsf/eLWf8A6eD/ANzIf/TlP8S35YZC4+O4bd2fDPsy0n8rO1TLFu2JiY8YY4O3ouK5cE748t6+qLzt8N9klpPPDvaI1OjiI9s48m8x2Wjn71jJ5OzEfYyc/umPpLIaLOa3XJvSP521cGfqxe3ZTNHZFp9EWj0TPdvHYuHF3deCce0fGdP+0aS/Kjfa1Z5r0ttvybR7J+PRPslq+p0uTTX5GSNp9k+yY98OQDYWIAAAAAAAAAAAAAAAAAAAAAAAAAAAAAAAAAAAAAAAAAAAAAAAAAAAAAAPnmpFomJiJrMbWiY3iYnsmJj0xMdmz6IsDSD5UHRnPLnM3GeHRWYwzqbanSeE4dVac2Pb0fR6002ju229C1bYx8p/0OWzafh/NOHHM/Nv8z4jNY3mmLLbfT5rbbz1aZP0cz6OvDXRMOzcK1UanTUv96I5NuuOad+vpco4lp5wZ719m+9eqfp0IAS6MAJn1gCouTOjrX8byea0HDtbq7b9WZ0umyZaUme6MmatfM4fHfJesdzI7kD5Nnj/ABHq31U6Th+KYiZ89l89mjt7YnFg61Ynb/5kx7GFn12DB+8yVr8N+fujn8GXh0mbN+7pa3x25u+eZihBWN5ivfM9lax2zMz6IjvmfVs2d8ifJccI0s0ya/iHENdePrYMVqaPT28YmMVb6qdu7eupp7GR/Ink6cD4FERo+DaHFaI2nN5iuTNbbum+bL18t5jxtaZa7n8ptPT93W156uTXvnn8E7g4Bntz3mtI757oad+S/J545xua/M+B8RzRbsjLOn8zi9W+fU2w4a7+NrwyA5F+TD45rOrfW6vh+gpO0zji9tZnr41tXD1MFZ9G9c94bTa4oiIiI2iO6I7NkxRr+fyl1N+bHWlI6uVPjzeCaxcAwV57za89e0eHP4sNeSfkwOC6Xa2s1ev1to2maecpp8e8d/Zhr15ifXff1r98leTBy/wWaX0vAeG0y07aanJpKZ89Zid966jURly1nft+jaF0NkoHNxDU5vXy3n4cqYjujaE1i0ODF6mOsfHbee+XxxaeKRtEREeiK1iI+Edjn1XKRHs3aIIhKNzcVSI3NwSOFrOnq+M4sP18uOv7V6x+EzusZdRjxRysl60iPba0VjvmYeorM80RM9UO+KW1fSNpcf8AXdafClbT/KIeNrOl/HG/UwXt4TaYrH/mn8Gqavyx4LpP3msw7x7KW9JP9HKZ2Ph+pv6uO3bG3z2XB3cZstPqulvPbspiw1j1xa8/HrVj8Hjann3V5O/PNfVSsV/GI3aXq/OrwbF+6jPm2/u44rHZNrQksfAtTbp5Neud/lEr4WyRHftHtl09VxvDije+bFX9rJWP5rDZ+K5cm82y5Lb+N7f83V2adqvPF7NNouqcuX/bWs/9ySp5OT9/L+Wv1n9F7dR0iaTH/XxafClL2/GtZr8ZeTqelvBH1ceW3tiKx8d5n8FqNhqWp87HGMv7uunxe7k45tMfntaJ7mfTyf09emb265iPlEfNcTVdL9vsaeI/avv+UPL1HSnqbb7earHqpMz8Zn+Sjxqup8vOO6j1tZkr8McVx/8AbEM+nCdLT+HE/i3n5y9zUc76rJvvqLx+x1a/DqxE/i83UcVy5Pr5stv2st7fnaXVGsZ+Ma7UTvl1Oe/XlvP6s+mmxU9WlI6qx9CZ38fiAirXm3PMzM++eee+V/koiEg87q7ACj0AAAAAAAAAAAAAAju7fy9S8/R/zF870/VtO+XF9G/rj7NvfH5LMqn6POLfN9XSsz9HL9C3tntrPuns97p3m/49bhfFMdbW2w6iYxZI9m9ualuy23P7plA8X0vpsEzEfap9qvv+Mdy9dUuNZcn2+5kAAAAAAAAAAAAAAAAAAAAAAAAAAAAAAAAAAAAAAAAAAAAAAAAAAAAAAIlIDzeYOB4tfp8+iz4qZdPqMdsWfDeN63reNrVmJ9Xwnbwa2enf5NXiGk1GbWcEnFq9FeZvXh2XNGLV6ft383jtkiMOqxx27TN8d4jaOrbvbN0pLRcQzaO0zinmnprPPWez3/FH6vQ4tVERkjo6JjmmGkDVeSzzHiv5u3LvE+tvtERpZtE+uLVmazHr3VNyv5DXNHEZiI4LkwVme3Jrs+HT1rH3pi17ZJj9mlp9TcyJ+3lPqJjmpjifftafDdDV8nsETz2vPw5vo1zdHvyVma3VycV4zip97S8LxWvMenadVqqY4nfu2rpo/alk50e+RDy3wTqXpwrHqc1O2M/EJnVW38YplmcUb9+3U7PUv6ITUcV1WfmvktEe6v2Y8NvFLYOG6fD6tImffPPPi62h4fTBjrix46Y8dI2pjx0rStYjurWtYitYjwiH32chEzzpKI2REECN/WKuQhxtkivfMR65ebWisbzMRHvmdoHLc3eJxDnDTYPrajHv92tutPwrvPxU7ruljDXsx48l58ZiKx/OWr67yp4Tod/T6vDWY+7F4tbsrXeZZ2LRZ8vqY7T8dto755leomy0Wv6VtRfspXHjjx2m8+rvmI/CVP6zmrU5/r6jJO/fEW6tf4aRWPwc813nY4Th3jT0zZ5j2xWMdO+88r+hL4uA6i3rTWvbvPhzeK+Gr4viw/Xy0r+1eI/9Xg67pK0uL+stefDHSZ/tT1a/is1a827ZmZnxmd0Oe67zva6+8aXT4cUey15tkt/tr4JjF5O44/eXtb4R9mP1lcjWdL/fGPTz6pyWiPjWu/8AeeHrOk7VZN9rUpH6td5j323/ACUmNB1nl7xzV+vq70ifZiiuOOyaxE+KVxcJ0uPoxxM++29vnzPR1nMOfNv18+W3jHXmI/hjaPwed6waXqNZn1E8rNlyZJ9972tPfaZSdMVaRtWIiPhEQbAMTdc2NwFFQAVAAAAAAAAAAAAAAAAAAAAAAAAAACt5rMWidpid4n2TvEg90tNZiY5pjnifjHQ8WX/5a4rGq0+LN6bVjre2Oyfxeotl0T8Y7culmfR5zH+Voj8JXLq++/JPi8cV4Xg1O+9uRFMn/qU+zbv6e1yfX6f9nz3p7N969U88fRyEJbejwAAAAAAAAAAAAAAAAAAAAAAAAAAAAAAAAAAAAAAAAAAAAAAAAAAAAAAABG6XCbKTOw5JdHW8Xx4I3yZaUj9a8R/PtUzxHpU02PeKdfJP6tZiv8V4jf3RKB1/HuHcPjfVanDj/wAtrxyp6qRvaeyJZWLS5c37ulrdUc3f0Ky66JyRC03EOlfNffzeOlI9EzHWt/KPwlTGv5iz6j/SZ8to+715iv8ABXav4OYcR87HC8G8aamXUTHtiPR077c+38qbw8A1F+e81pHfPdHN4r1cR5t0+Dsvmpv92J60/Cu6mOI9LWKu8YsV7z6LWnqV/K0/hC1k/wDUjl3EfOvxXUbxpqYtNHviPSXjtvHJ/o7U7h4Bgr682v8AD1Y8OfxVZr+k3U5d4rNMcT6K13n4z2qe1nGMuf6+bJbf0WtO3w7vwdQcz13lFxLXT/4nVZsnwm8xXsrG0R2Qm8WiwYvUx1jsiZ7550dVINemd2bsAG5sAKAAKgAAAAAAAAAAAAAAAAAAAAAAAAAAAAAAAAAAAo9Hl7ifzXUYc3orb6Xriey0fzX9w5etWto7piJifb2scZXm6OuM/ONJSszvfDPm7eyPqT767R7n0X5pOM8jNm4beebJHpcX4q7ReO2u09ktN8oNNvWuaPZ9m3VPR4796rREJfUTRwAAAAAAAAAAAAAAAAAAAAAAAAAAAAAAAAAAAAAAAAAAAAAAAAEAkQbgRKN3j8U5r0+m+vmrE/cietb+Gu8qQ4n0txG8YcNp/XyTER6pitZmZ98w1HinlZwrhm/7TqccWj7lZ5d/y13mO1n4NBnz+pS23vnmjvlce1nl8S5mw6b/AEmalZ+732/hjeVn+J876nU7xbNatZ+xj+j7t47Z+Lwpn0+nxcf4r53sdd68P00292TNPJjrild5nttXqbDp/J608+a+3wrz+M83hK5/FOlyld4xYptP3sk9Wvt2je0/gpPiPP8Aqs+8edilZ+zijq/j22/FTaXH+KeXPGeI7xk1N8dZ+5h/6df6drT2y2LBwrT4uikWn325/nzeDllyzeZta1rTPptMzP4uOwNEvkteZtaZmZ6Zmd5ntlLxWI6I26gBbV2RskAABUAAAAAAAAAAAAAAAAAAAAAAAAAAAAAAAAAAAAAAAAAAAAVb0a8Y8xqoxTP0c0dX96O2s+/uUk54M047VvE9tbRaP3Zif5J7gXErcM12DV05vRZK2n4132tHbXdhavDGfFfHP3o8fYyP3N3ncE4lGpw4s0fbrEz2+n0/i9F+g+nz1z4qZaTvW9a2rPvi0bx4OR2rNZms9MTtPYkBkPIAAAAAAAAAAAAAAAAAAAAAAAAAAAAAAAAAAAAAAAACASI3RNwcnHd8NVr6Yqza961rHptMRH4qO4x0p4cW9cVbZbeMfRp/FO8z7oa/xTj3D+GV5Wr1GPH/AJZne89VI3tM9UMrBpcuedsdJt8dubv6IVxEvM4rzHg00fpM1Kz93rRNp9lY+lPwWm4t0ganUbx1/N1n7OPs+Nvrfipu1pmd5neZ75mZmZ9sy4txfzuYKb04dgnJP+Jm+zXrikfantmGy6fyfvbnzW5Pwrzz39HzXM4r0s1rvXDim3he87R7do7Z9ijOKc56nU7xbNMV+5j+hHs7O2ffLxIhLivFfLXi/Et4zai1aT/DxTOOnVMVmJt/NMtl0/C9Ph9WkTPvt9qfHmjsRvv4+2Ug0e1ptO888++UtEADyAAqAAAAAAAAAAAAAAAAAAAAAAAAAAAAAAAAAAAAAAAAAAAAAAAAAAAAACi5vRNxfrUy6WZ7aT18fstv1oj2T2+9cWIWS6OtRNNdh2+1Fqz7Jjf+S9r7W82nEr6zgtK3ne2C9sO/vrG1q91bRHY5nxrDGPUzMdFoi3b0T4wkB1dAgAAAAAAAAAAAAAAAAAAAAAAAAAAAAAAAAAAAAAAADjaS0qK5556+aR5jHMTnmO2fRjie6Z8bepC8X4vpuE6a+q1VuTSvRH3rWnorWPbMsjT6e+e8Y8cbzPhHvn4Pc45zXh0UfpL/AEp+rjr22t7o7vbO0LfcY6VMuTeMVYx19Fp+lf8A5Vn4qMz57ZLTe1pta072tad5l893ydx/zl8S19rY9Lb9lw88RFP3sx/mye/4V22+LftJwTDiiJyR6S3x9WOqPru++s1+TPbr5Ml728bWmfd7PU68Qkcky58mW03yWte09NrTMzPbPO2CtIrG0RER7o5oAFhcgAFQAAAAAAAAAAAAAAAAAAAAAAAAAAAAAAAAAAAAAAAAAAAAAAAAAU3ANw3ARubG6REy7Wl4Zly/UxZLeuuO0x8dtvxZGLTZc08nHS1591azae6IlbtkrWN7TER8eZ1hUGl5C1eT+p6vrvasfhvL2NL0TZrdt82KvqiLWmPyj8W1aTyO41qtvRaPNtPttX0cf18lg34lpqdOSvZO/wAt1Do3XS0fRJij6+bLb1VitY/K0/i9/hvIOlwTFowxa0d1skzaf7UzEe6G7aHzVcYzTHp5w4K8282vy7R/LWJ5+1F5ePaesfZi1p6to75+ij+jHlm/nPnl6zFKxMYotG3Wme+0R3xER6fXK6KKYojaIjaI7ohy2fTnk3wDDwPRV0mGZtzza955pve3TO3sjoiI9kQ0jWaq2pyTktzeyI90JAbSwgAAAAAAAAAAAAAAAAAAAAAAAAAAAAAAAAAAAAAAAHj8zcajR6fLnnviNqR42t2Vj4/ksRqNTOS9slp3tad7T7e30/Bcvpc1MxiwY/Ra82t+7HZ+K2D5C86vFsmficaLefR6elZ5PsnJeN5tPxiNoj4Og8B09a4Zy/evMx2R7PmQA4e2kAFQAAAAAAAAAAAAAAAAAAAAAAAAAAAAAAAAAAAAAAAAAAAADdXZTcDcViszO0RMz7oU3B39HwDPm+pp8s7+nzcxHxtER+L3NH0ZarJtM1pSP1rxM/CIn82waPyd4nrP3Glz3+MY7RHfMRDDya3Bj9fJSP5o37oUoLjaPofnsnJqNvGMdP52n+T29H0W6WnbauS8+N8kxHwp1In3xLd9H5sOOajntjx4Y/1ckb91OXPgi8nHdLTom1vw1+uyzz76fh2TJ2Vx5Lfs0mf5L6aPlbT4fqafHE+PUiZ+MxO70qYIr2RER7IiG8aPzPX5p1OsiPfXFj37rXn/AGovJ5RR9zH22n9Ij9Vj9LyJq8ndp7RHjea1/C1t/wAHtaTomz22m+TFT1R1rz/drHw3XbhLddJ5qeD4dpy2z5pj+9eKxPXFIj5ozJx3U29Xk16o3+cyt3pOiPHHbfPkt4xWsVj+cvY0vRzpcffim+3pveZ/CJiPwVY4y3PSeRnBdLt6PRYZmPbevpJ/rmyOycR1N+nJbsnb5bOho+AYcP1MGOs+MY6xPx23d7qR4fg5SjdtWHS4cMcnFjpSPdWsVjwhgWva3PMzPXO5slEOTJeUbJBUAAAAAAAAAAAAAAAAAAAAAAAAAAAAAAAAAAAAAAAAAAAAUF0s6LrafFl2/wBHk2n2Xjb89lqV+ObuH+f0eop3z1Jmvtr9KPyWHfIHnY0E4eK01EdGfDWf5qTNZ8NnQuAZeVgmn920908/1AHEW0gAAAAAAAAAAAAAAAAAAAAAAAAAAAAAAAAAAAAAoAjdXZTdJu+mDTWyTEVpa0z6K1tafwiXtaHkXVZtpjBNYn05Jin4T9OP4UrpOE63Vztp9Pmy/gx2tHbMRtHax8mpxY/XvWvXMQ8FG64Oh6JLztOTNWvjWlZn8Z2/JUGi6LNNTbrecvP615iPhXbs9W7oGh82fG9TtN8VMEf6uSInbqryp7OZEZeN6anRabfhj9Z2Wf3d7ScCzZvqYMtvX1JiPjMQvjoeW8GD6mDFX1xjrvPtnbeffL0Yo6BovM90Tq9X11w0/wB15/RE5fKOf4ePttP6R9VmtH0ZarJ31x0j9e/b8Kxb8Xv6Pof7vOaiZ9WOkR7t7Tb8oXHirk6BovNlwPTbcvHfPPvy5LbflpyYntiURl41qr9For+GI/XeVJ6Po00uPaZx2vPje8z+HZD3dJwPFh+phx19cUjf47bu+N70nA+H6P8A8vpsOP8ADjrE9+26KyanLk9e9p65lwiiYcnHZN7RDHSS4xL55tVWkb2tWI8bWiI+MhEb9D67m63/ADR0/cF4XNq6njGgx3r9bFGppky/8HDOTL/YWm5m8v7gul60YKazV2junHgnFS3stnmlo38Zos3z46etesdsb93SntJwDiWs2/Z9LnvE/ejHaK/mmIr4smZsddgbzP8AKMam8zGj4Tgxx9m+qz2yWjw3x44pWfddabmXyyuYdfM/+8o01J/q9FpsOKI8Nsl65c1dvVkhgX4ngr0TM9UfXZvGj82nGc+05K4sEf6mSJn8tIv84bR8+rrjibWtWtY77WtERHtmdohRnMfTfwjhsf5xxbQ4/V86x2n2RFbWmZ9TU7xzn7X6+ZtqOI67PM+nPrM2T8LXmPweD1fTt2z3z4+3xYd+Lf3afmn6fVumk80sf/k6zrjFj/3Xt/tbLuY/Lw4BpOtGPNq9VaPs6XR22nbwyai2DHPtiyisvyjvD99o4RxKa+Nsmkrb+GM9o3/eYDjDnimaejkx2fVt2DzZcFpG14z5PjbLMeFIp+rZj0f+XDwPiuSmC+TUaLLeerWuuxVrSZnujz2LLlw13nsjr2rv4MgdNrK5a1vW0WpaN63rMTW0T3TExMxMT4w0mbMq/I08pLJw3VYuAazPa2g1N4posmW+/wA0y22iuOLWmZjDlns6sztW09neztLxKb2imSI5+iY+Ux+rR/KnzbU0untquG2vb0cTa+G88qZrHTOO0RE80c/JneZ2nafY2GxKXDHLm2B8/gAAAAAAAAAAAAAAAAAAAAAAAAAAAAAAAAAAAAAAAAAAAPnkx9aJr4xt8WPnGdH5nPnx/dyWiPZvvH4MhZ7lm+k7Qea1k39GWkWj1zH0bflDhHnc0HpeHYdVEc+HNyZn/Lkjb/uiI7W0+T+Xk5rU9lq+Nf8AjdSQD5JdCAAAAAAAAAAAAAAAAAAAAAAAAAAAAABQAiN1YiZ5oJkHoaLlzUZ/qYMto+91erH8VpiFRaDor1F9pvbHjjw3m1vhX6Pws2fQ+THFNdt+z6TNaJ+9NJrXr5Vto2R+XX4MXr5Kx8N957o3UaTK6ug6J8NO2+TJefDfqx+Eb7Ki4fynpsG010+PeO61q9a0eybbzHudH4f5p+K5tp1F8OCPdMzkt3V5u+0IbNx/BX1Itbwjx5/BZPRcHzZ/9HhyW37prWdv4piK/iqDRdGeqybdaKUifTe28/CsT2ryxSI9HwhLo+g80fDsW06rNmzT7Yrtip4b2/qQ2XygzW9Stax+afHm8FutB0RUjacme9v1cdYrHxmbTP4Kj4fyDpcP9TFp8bzNp/GdlRxA6JoPI7g2h2nDpMXKj7149JP9e6Iy8Q1OX1sluqPsx4bPjp9FTHG1aVrHhWsRH4Q+vVckbtvpjrSNqVisR0REREd0I+Zmek6pslG64ojZMvlqNRXHE2tatax32taIiPbM9kKB5r8oHg3Cet854vo6Wr34q5oy5Z28MOGMmW37tZeLWrXpmI652ZODS5tRPJw475J91KWtPdWJXD3N2K/NPyhPCNP1q6XT67V2juv5mNPit7LZpjLHvxQs/wA1/KHcSz9auk0Ok00fZvlnJnvt643x0ifXDCvrsNPvRPVzt20XkJxvV7TGmtjifbmmuPt2meV3VbBrXeHzDzzo+Gx1tTrdNgjv/TZ8dJnbv2rNotbb1RLVhzX5SfHeKdaM3GdZWlv6rTZPm1Ij7v8Am1cdr19V7StxqdRbLabXva9pnebXvN5mfGZtMzKPycXrHqVmfxTt9W/aLzT57bTq9VSnvripN5/NaaRH5ZbOeavLZ4BoOtFdZfVXjupo8N8kTMejrzFcce+0LO81fKQds10PBpmPRl12q6sxPo3wYKX3j/fwwkGBfiea3RtXqjf5t+0Xm04Pp9py1y55/wBS8xHdTkr+80eW/wAf128U1ODS1n7Ok00VmvsvltlvvH7XuWm5k6SOIcTm06riOsz9b61cmpyTSfbji0Y/7KnJkYF9Rkv61rT2t70fAuHaP/y+lw49vbGOvK/NMTbxRWuxskWE5shICoAAAAmt5rMWiZiYnetonaYmO2LR6d4mN+xAKTG8bT0T0tsXk19J3+UPAdDrLWidRSnmNZ/tcMRS0+rrxEW7fFdSste/yf3SV8z4nquB5LbYtfinNp4meyM+DbrVjw85jme77ktg9Ybxo83pcVbe2I2nrh8QeV/CP7K4pmwxG2O0+kxe7kX59o/DO9exzEJZrTAAAAAAAAAAAAAAAAAAAAAAAAAAAAAAAAAAAAAAAAAAHGYW+6WuH74sOfb6lprM+q0dn4wuE8Lnbh/n9HqKbdsV61fbXt/k1Hyt4f8At/CNXg6ZnFa1fxU+3Xxhn6DL6LUY7/5oieqeafmsSlEJfAUutQAPL0AAAAAAAAAAAAAAAAAAACgBurETJuId7Q8EzZ5+hhyW9cVnb4ztCpOH9Fuoybde2PHX07z17fCsbf2mycP8nOJ8Q2/ZtLmvE/e5ExX89tqx3sDNrcGH18lY+G+890byo3dK7HDuiXDTacl75J9vVj4R2/iqTQcr4NP9TDjifvdWJt/FO8/i6bw/zTcTz7TqcmLTxPTG85L91dqxP80oTN5QYa+pW159/qx48/gspoOXM+f6mDJMT3W6u1f4rbRPuVJw/ooz32m98dI9Mb9afwiI/FduKOUQ6Zw/zT8MwbTqcmXUT7t4x17q8/8AUhc3H89/UitOzefHm8FC6DonwU2m98mSfDrdWvwptb+0qTQcs4MH1MGOJ8erEz8bby9UdJ0Hk1wvQbfs2lw0mPvciLX/AD23t4oXLrM+X18lp+G87d0bQilNnNBu2SsREbRG0MNI4zYjI9CZgeTxrm3S6Gs5M+qwYaxG8zmzUp2R3z9K0TPuWc5w8tfgHDutFdbfVZK92LQ4LZd9v/mzNMEfvZIWr5aU9a0R1ylNHwvWa2eTpsGXLP8Akx2tHbMRtHavxMoizBzmz5Ru1utXQ8I6v3cut1ETPtnDgjaJ9XnbQsxzd5YvH+Jb1+fxp6T9jR4aY+yfRN5i1948azWUfk4lgr0TNuqP1nZv+h823GdTtOSmPBX/AFLxM/lpy53+E7Nn3FOOYdJScubPhw46/WyZstMdY9tr2rEe+Vpua/K64Bw2bVtxPHmvXvpo621Hui2OJpPuvLV7xnjufXX87qNRnz5P9ZqM+TNbt/Wy2tMR6o2dFH34tP3KxHxmd/CNnQ9F5psFdp1eqvf31xUikdXKtyp8GdPNfyjOCnWrouFZcs91curz1w0nwmK0rlvPjtPV9qzHNHl0cf1vXrjzaXSY7d1dJpYm8R4Tl1F89t/1qRT3MfRHX1+a/TeY+Feb5c7oGh8huC6Taa6WuS0fezTOWZ7LTyY7KwqbmLpN4jxKZnU8S1ubffeuTVZOrO/omlbRTb1dVTEQkYVrTad5mZ7W6YdNiwV5OGlKV91K1rHVEREADyyQAAAAAAAAAAAAAAAHt8k8034Tr9DxLHMxk0uemWNvTFZ+nXs7Zi1etG3tbhuVOYKcR0ek12O0Tj1OCmakx4ZKRb8JmY9zS9/1/wBe1sR8gbpF+fcEycKvbfLwzLNccT3+ZzzOXFt6sczan7qd4Vm2vOOeiY3jrj/hwrzp8J9NpMWvpH2sNvR5P/Tv0T/LfaP5mUyUQltD5hAAAAAAAAAAAAAAAAAAAAAAAAAAAAAAAAAAAAAAAAAAHzzY+tW1Z7pjaff2S+jjZ5tWLRNZ6JiYnqlWGPHFdH5nNmxfcyWiPZvO34bOqqzpL0HmtZa3oyVi3vjslSb89OP6GdDxHU6aY29HmvEfh33r4TDrujy+lw0v76x3+0Aa+zQAAAAAAAAAAAU3ARJsbpDd2dDwzJnnbHjvf9mszEe2e6PiyMOny57RTFS17T0VrWbTPVERMvFslaRvaYiPfM7Q6yN1ZcN6LtRk2m9qYo9f07fw1mI+NlV8L6LdPj2m83yz+tMRX3Vrt+My6Lwvzd8b120+h9BSfvZrRTm/Dz38ENn4zpcXNyuXPurG/jzR4rS4sU3mIitpme6KxMz7OyO/1Pf4byFqs+0+ZmlZ+1lnq/2e234QvLoeEYsEbUxUp+zWI/HvdvqOs8N80OnptbXam+SfbTFEUr1cq29pjqistfzeUN55sVIr8bc893NHzW54b0Rx35c0z41x12/tWifyVRw3kfS6faa4KzaPt33vb2723292z3oqnZ1Xh3kfwjh+3oNJi5UffvHpL/mvugc2v1Gb18ltvdE7R3Rs4UwxWNoiIjwiNvycuqk2bhFYrG0RER7o5vCEekRui1nockTLyuNcz6fQ0nLqNTgw0j7ebLTHH9q0b+5ZrnHy1uA8Nm1Y1ltVkjf9HosVsm8xv9Hzlupiif2rwtXy0p61ojrlJ6Pher1s7abBlyz/AJKWmO2dto7ZX53ceuwW5w+UbzX61NBwjFSv2c+u1E3t/wADBWlaz/v7exZPm7ysePcU60X4nfDjtvE4tHSuCNp7Or1qxN+zx60Sj8nE8NeiZt1R9dnRND5tOManactcenrP+JeJt+XHyp79mzvmHnfR8NpOXVazS6fHHffUanFir8b3r2+pZzm3y3+AaDrRTV31eSOzq6PDe1ZnwjLeKY5ifvVm0etrQ4hxHJqbzmy5cmXJPflzZLZLz6dpvebWmPe66NycWtPqViPjM7z3c0Oi6HzUaSm06vUZcs+2uOIx16t55dp64mrMzm/5RnNabV0HCqU8MutzdeY8J81h6sTHtyQslzb5WnMHE5tF+KZMGO39TocdNNWPVF6V+cTHo+lllaCBG31ma/Teezm+Toeg8juD6LacWlxzaPvZI9Lbvvvt2RDtcT4tl1VpyZs2bLeZ3m2bLfJO/jve1nV/6/63/kDEmZnpnf5twpStI5NKxWI6IrEREdkcwAouAAAAAAAAAAAAAAAAAAAAAAAAC+PkddIn9Dcx6Olr9XT8Q/zLNvO1YtlmPMWnw2ybR+9Cxz6aTVWw5MeakzF8V65cdo74titF6T6tprEruLJ6O9bx7JhE8V0FNfpM2lv0ZcdqdUzH2Z7J2luziUqK6H+eK8b4Pw3iVZj9Pgr5yPC9axXLHutEq03b9W0WiJjomN3wTqMFsGW+K8bWpa1LR7prO0+KQHpYAAAAAAAAAAAAAAAAAAAAAAAAAAAAAAAAAAAAAAAAESkBbzpb4fviwZ4j6l+rb2Xjs/GFr9l9edeH+f0eenpivWr7adqxMPjvzq8P/Z+LRqIjauoxVt/PT7FvCKz2uicAzcvBNP7lp7p5/qkBxZs4AAAAAKACuxuCN3pcM5bz6rbzeG8xP25r1ae3rTtE+7dl6bR59VeMeDHfJaebk0rNp8IWr5aY43vMVj3zOzzkTK4PC+iO9tpzZor+rjjefZ1p+jH8Mqw4XyLptNtNcUWtH28n0p9vb2R7odT4V5sOL6za2aKaak+3JO9+zHXeey01QGfjunx+rvefhzR3z+kSs9w/l7Pqf9Hhvb9bbq1/ittCruGdE2S205ctaR92n0p+M7RHwldPFSIjaI2j2ObsXC/NTwvTbW1VsmptHsmeRj/LXnmOuzXc/Hc9+akRSPhzz3z9FK8L6PdNg2mcfXtH2sv0v7P1Y+CpcWnrSIitYiI7oiIiI90PqOraHhOj0FeRpcGLFH+SkRM9c9M9sygsufJlne9rW653cdk7JEssAPnNgfQWL6ZfK24Zy1NtNN7arW17J0emms9SfDNl36mLv7p3t6mKHO3l78Z105K6amk0OGeysY8c580Rv6c2aepvMemmGkx6+9gZtdixc0zvPujnlvfCPInivFKxkxYvR4p6MmaeRWY98RtN7R8Yrt8WxnW6+mGJvfJSlI77XtFYjb1zMQtPzp5WXAeEb1ycVxZcsdk6fRVvqsm8fZnzNbY8c/7S9Yay+aukXX8VtNtXxDV59++uXPeaen+ri0U2/dmVORCKycWnopXb4zP6R9XVeH+afHG063VWt76YaxWPjHLvvMx/LDOPnH5RnHXrU0HCsl/u5tblikd31vN4ovPZPo60rFc5eWRx/ifWrGv+a4rb/o9DjrinafR56ZtmiYj0471lZIRmTW5r/emOrm+XP4ulcP8AIrg2h2nHpqXtH3s3/VnuvvWOysO5xXjWbV3nJn1GfPee22TUZ8mW0+ubZL3mZ9sukkYUzMt1pjrSIrSIrEc0RWIiPAAeXsAVVAAAAAAAAAAAAAAAAAAAAAAAAAAAAAAABRnZ8nf0g+e0vEuB3v8AS02Suq0sT/q9R1q5ax+zkpvt6ItHizLaovJZ5+/oXmPhuebbYdRf5pn3ns6uo2isz6Iit+rP/wCW1us77S3DhuXl4Yj215uz2PkDzj8L/Y+L2y1jamprGWPdy/Vv32jlT+JzASrlgAAAAAAAAAAAAAAAAAAAAAAAAAAAAAAAAAAAAAAAAiUokHzz4+tE18YmJ98bMfOL6PzOfNi+5ktH47x+EwyGtVajpQ5enHl+d1j6GTaMk/dtEbRM+HWhw3zrcIvq+H49Vjryp01977RzxjvG0z1RaImWzcB1EY800tO0Xjm646O/nUKIS+RZh0QAUVAffR6DJnt1MeO97eFKzO3tnuj2yv4sN8topjra9p5orWJtMz8IiJmVu14rG9piI988z4I3VvwnoqzZdpy2rjj7v1rez7sfGVacJ6O9Np9p835y8fayz1vhX6sfB1DhHm14xr9rZKRpqT97NO1tvhjje3fsgtRxrT4uaJm8+6vR3zzd260nDuA5tTMebw3t+tttX29ado2Vhwnokvba2bLWsd/Ux/Sn+KYiI90SufTDFYiIiIjwiOz/ANH0iHauE+arhml2tq7X1N459pnkY/y1557bbT7Ya1qOO58m8UiKR8Oee+fop/hXI2n0201xRa0fbyfSn29vZHuh71abbeDmOuaPh+m0VORpsWPFWPZSsV+UNfyZb5J3vabT8ZmUCRILSEgAAACAN2JPlneUtbg9J4Bock11+fH1tXqaT9LS4skdlaTHbGbLEzMT2TWO3wZU8X4jGmw59RbaK4sdslpnwpWbfyadekLmrJxbifEeI5LTa+p1N8kzM77RvNMVPV1cdaR7oRPEdROKkRXpt8va615uvJ/HxPW2z6ivKxaaK25E9F8lp+xE++I2mZj2zt7N3gXvNptaZmbWmZtaZ3mZmd5mZ33tMzvO8+mZ98A1B9cRERzR7OYAFQAAAAAAAAAAAAAAAAAAAAAAAAAAAAAAAAAAAAAAAHLFlmlq3rO1q2i1bemLVmJrMeyYifc27dBHPUcc4FwniO/08ulpXPHpjLjpGPNWfXF6zPvah2dvydvPfnNLxHglr/S0941OCsz9jN2ZOrHftF4/tJnheXk5Zr7LR4w435z+GftPDa6qsfa014mZ/wBO/wBm3dbkyzLAbY+UAAAAAAAAAAAAAAAAAAAAAAAAAAAAAAAAAAAAAAAAAAEbOvrtDXNS2K9YtS0bWrPr/wCTsoW8mOuSs0vEWraJiYmN4mJ6YmPbCsTMTvHNMdC0vMXRhkxTN8H6Snb+jmdr19Uei8fipDUcKy452thyR7cdvz22ZEbI83HhHwcR4r5qOH6rJOTS5L6blc80iIvjifhEzEx1RbZsun49mxxteIvt7eie+Pox2x8PyW7IxZJn1Y7f8nv8K6PNTn23pGOv3sk/+WO2fwXq81EeiPgnZiaHzRaHHblarUZc0R92sRjrPXtyrd0wuZfKHLaNqVrX4+tP6R4KJ4P0XYMW1slrZbeE/Rp/DE9vvmVYaTQ0xVitKVrXwrER+T7xA6/wzgWg4ZWK6TT48fN60V3vPXed7T3tfzarLnnfJebdc83d0I6iYhInmKghIAAAAAAAAAiUoBSvShjm3CeLVrv1p0WaK7ePmrNOdq7TMemJnf49rdfrdLGXHkxTH0b0tS3stExP5tPXStyhbg/GOKcNvWYnT6q8Ujxpk/S4bRPpiaXr2+MT4Nd4tSdqW9nPE9vP+j6G802qrE6vTTP2pjHkiPbMRvW3dM171KANcfRoAAAAAAAAAAAAAAAAAAAAAAAAAAAAAAAAAAAAAAAAAAvz5EfMM6TmvQY9/o6vFm094junfFbLj39k0mVhV6vI44LbVc2cImsTtp5y6i8xvtFaafJXtnu7ZvEMrS82am396Pm1nynrS3CdZGT1f2bL0++KTMf1bNptZS41cm9vhJIAAAAAAAAAAAAAAAAAAAAAAAAAAAAAAAAAAAAAAAAAAAAAAAAAAAAAAAAAAAAAAAIYFfKFdHHmdXoeP0r9HU1+a6qYj7eKJnBafXNN6+6Gey1nlJdHf9Pcv8U0cRE5q4LajSzt3ZdPE5ccd289aa9XaO/dh6vD6XFavt23jrjnbh5JcVnhnFdPnmdqTaMeT3TTJ9md+qdrdjU0JtWYmazG0x2TWe+sxO01n11neNkNGfcUTExvHtABUAAAAAAAAAAAAAAAAAAAAAAAAAAAAAAAAAAAABG4JHo8A5a1HEcsafTabPqMs/1eDFa8xv6Z6sTFY9dphkf0aeQNxPiHUza/Ni0GnntnFExm1VonvjqV/Q4JmO6bXvPjWGRi0+TL6lZn4+yO2Wv8T49oOGV5Wrz48c/3N97z1Urvae5jFp8Nsl6YqVtbJe0Vx46Vm172tO1a1rETNrTPZtENjPkZeTxfl7TX4rq6dXiGtpERhnaZ02H61ccz/rLz22jt27I9HbcHom8mPhXLPVy6fTRk1URtOt1Exky+vqTMdXDE+GOK+iF2K1bHo+H+hnl3ne3sj2R8et85+WPl/wD2rinRaKlseCZ/6l7c18kRO8V5Mb8mvtmN5mfh0OYCacYAAAAAAAAAAAAAAAAAAAAAAAAAAAAAAAAAAAAAAAAAAAAAAAAAAAAAAAAAAAAAAAAHDJSJiYnunsmPb3ubjaOxQaoPKg6PP6C5h4hpq16uDPb53puzs6uombWiP2b9aPgtQz1+UK6OvP6Hh/HMdfp6K9sGpmI78Woms1mdvRTJWJ9USwKlpOtw+jzWiOieeOqfp0PtvyM4r/aXCcGWZ3vSvosnv5eP7O8/irtbtAGC3gAAAAAAAAAAAAAAAAAAAAAAAAAAAAAAAACFQcndH+t41kjDotFqNRffaZxY5mlf28k7Y6beEzv6pVrWbTtEbz8FjNmx4KTfLetKx02taK1jrmZiFPJiN9o9M9m35R7Z8GXHRx8ntq9T5vNxPW49NjnabaTSxGbPP6ts1tsOKf2a5O/0Sys6N/Js4Py/FbafQ47Z4/7XqI89m9sXydbqdv3dkth4blvz2+xHx557vq5Zxfzk8M0W9NPM6rJHsx82OJ+OS0f9sWa8+jbyXONcf6mTFoL4NNbt+ea2tsGOYn7VKXiM2WPTE1p1Z+8yn6OPk99Bpurl4lqc2sy9kzp8NrafTxPhM47RnyRPrvWNvRLLeMcR6ExXZNYeHYsfPMcqffb6OK8X84fFtfvXHeNNjn7uHmtt8ck/a/LyY+DweVeRNHwnFGn0mj0+nx1jaKYMNaR2ePVjefbL24o57JScREc0czmmTJfJab3ta1p6bWmZmeuZneUJBVbAAAAAAAAAAAAAAAAAAAAAAAAAAAAAAAAAAAAAAAAAAAAAAAAAAAAAAAAAAAAAAAAAAHHZyQClOlDkynGeFcQ4besTGowXpXeN9rdWZxzHri20tPnEuH202bPprxMZMGW+HJWe+LYbzjvWfZNZbrMnc1i+Wp0ef0TzHqNRSu2DiVfndOzsjJP0dRXs/WiLbetA8Vw71jJ7Y5p6p/5d481fFfRanNobTzZa+kxx/npzWiPjNZ3/AJVhAGsPpsAAAAAAAAAAAAAAAAAAAAAAAAAFAESKpFX8gdEPEuYLxXRaDPmpM7fOOpNMEejt1F9sc7emKTMx4Mo+jn5O61+pm4pxCax320WgiN58a31OSs7RPdPm8e/haGXi0mXL6tZ29880NS4r5VcL4XExqdRWLx/Dp9vJPw5Nd9v5to+LDDBgtktXHWtrXt9WlKza0+qKxEzM+5e3o38jnjfGppktpfmWmt2/ONf9C1on7WPTRM57Tt6MkY49cthHR70GcL5frFdHw/Djv6c9q+czW27N7ZsnWyTPvV9Cbw8KrHPknf4R0d/S4txfzq5r704fhjHHsy5ftX64pE8mO2bMYujnyDOE8PimXW+c4hmjtmuaepp4nv28zSY85HqyTaJ9MSyM4JwHBosVcGDT4cOKkdWmLDipjrWI7oitK1iIj2PTEzjw0xxtSsR1ONcR4xreI35erz5Mvui1p5MfhpH2a9kQ47J2SLyHAAAAAAAAAAAAAAAAAAAAAAAAAAAAAAAAAAAAAAAAAAAAAAAAAAAAAAAAAAAAAAAAAAAAAAAAAARZi95fHR98+4FTidKb5eG5q3tMR2+ZzTGPL6O6m9ck/ssoXh858u04lodZoMkROPU4L4rRMffpMRPunafdCzmx+kpanvjx9nim+CcQtw7X6fVx/CyVm3xpvteO2szDTJuPT5n4Bfh2s1ehvExfTZ74bRPf+jvNYnt+9G0+95jQZjadp9j7zxZK5KVvWd62rFon3xMbxPbAAougAAAAAAAAAAAAAAAAAAAAjrf9f9fl3rn9HPk28Z5g6ttPw/Lj08/9s1dbYMO0/ap169fNEx2746TX9ZcpjtedqxM9XOwNZr9PoqTk1OXHirHtvaK92/PM/CN5WxdzhPBs2tyRgwYM2bLPdiwYr5Ldvd2UrMx7ZZ0dHPyemkwdTLxPWZdTeNpnS6aZwYd/C14/T3j9m1N/Xuyc5N6NdDwXFXBo9Fp9PSOzbFirWZ9dr/WvafTNpmZS+HheS203mKx3z9HI+LedHQafemipbUX6OVP/AE8UfHeftz2Vjra/ejfyFeMcUmmXVeZ4fp7bTPn7ed1ExPbtXT45mtN+79LkrMfdnunKjo38ifg3B/N5MmD59qK7T53W7XpvHprgiIxRHqmsr/1x7OabxaHDj54jeffbn/4cW4t5c8W4lvW+b0WOf4eHekbfG283t222+DraXQ1w1jHSlKUiNq0pWK1iI7oitYiI28IfeIchnbbNBmZmd5559qNiISKqAAAAAAAAAAAAAAAAAAAAAAAAAAAAAAAAAAAAAAAAAAAAAAAAAAAAAAAAAAAAAAAAAAAAAAAAAAAAAAD52h9HEGtfy7OQP6N5g+fVrth4lgjNvEdnncUzizRPo3mIx229rHBsk8u7kL+keAfPq03y8NyxniYjeYx3+hm90Rtb3NbcNM4hi9Hmn3W+1Hb/AMvsvyA4p+38IxRad74JnDf3/Y9TvrMJARrpAAAAAAAAAAAAAAAD66XS2zXjFSl75LTtTHjpa17TM7REVrE2mZ9UEc/M8zaKxvaYiI6Zmdojtl8kL79HHkY8b4z1cmTTRodPbafPa76OSYn0001Z87/xfN+jbdlL0deQdwjh3m8us87xDNXtmue0008T2f1GOaxkjffsyzaJ9MJHDoM2Tn22j325vDpc+4t5d8J4dvWcvp8kfw8G153+Nt4pH5t/gwB5S5D1vGMnmdFotRqb77T5nFNq18Yvk7MdNu/abROzJXo5+T512q6mXiOsxaTFPbbTaaIz6iY8JyW2wYZ9cRl9kM9OC8vYNDipg0+nw4cNI2piw4qY61iO6IrSIiHobJrDwvHXnvPKn3dEfXxcW4t5z+IanemjpXTU9lv3mX80xyY7K83vlaTo38l7g3AYpbDoaZdRTaY1eq/TZd47d6zfeKbT2x1Ijb0LtVxx7vCExCYS9aVpG1YiI+HM5Jq9bn1l5yajJfLb+9e02nqjeeaPhHMjqJ2SPbDREJAAAAAAAAAAAAAAAAAAAAAAAAAAAAAAAAAAAAAAAAAAAAAAAAAAAAAAAAAAAAAAAAAAAAAAAAAAAAAAAAAAAAAHjc2cv04jpNXoskb49RgvhvG3oyVmvp7OyZiWnHmTgV+H6vV6HJExk0ue+C+/fPmrzWLfvREW97dLZrU8ujkP+juYZ1laxGLiOKM0TEdk5Me1Mvtmfo2QfFcW9K3/ALs7dk/8u4+avifodZm0Vp+znpy6/jx9PfWZ/LDHQBqz6iAAAAAAAAAIFAevy1yfq+KZIw6TSajUZJnbq4MNr7T+taI6tPbaYZH9G/kAcT13Vy6/Nh0OGdpnDSa59TMeE9SfMYpj9rJ7IZGLT5MvqVmfj7O/oa9xPyg4fwyu+q1GOk7c1N+VknqpXe3ht72LEzt2/ir7o96CeK8wTWdHw/NbFbu1WWvmtP7Yy5IiLx68fW9zYf0deSHwXgnm8kaKmq1FO7U67bPMWj7dMd4nFjnftia13j0SvNg00Y4itaxFY7qx2RHqiPR7ITWLhXtyW7K/X/hxvi3nWrG9OHYJmfZlz80dmOs799o6mFnR38nXWJpm4pxC1/TOi0MdSvo+jfU33vaPVipSf1mUPInQ1w3gNIpo+H4MUx35YpFstvXbLbrXtM+MyrdGyZxabHi9WsdfTPe4zxTyl4lxSf8AxWovav8Ah1nkY4/krtE9u8/ErCRLKawAAhIAAAAAAAAAAAAAAAAAAAAAAAAAAAAAAAAAAAAAAAAAAAAAAAAAAAAAAAAAAAAAAAAAAAAAAAAAAAAAAAAAAAAAAAAAiWLvl98hTruB4uJUrvl4bqIveYjt8zmrOLNv+rWZpf3Qyi2eVzNy7j4jpdVoctd8WpxWxZKz29l6zE9nq71jPj9JjtT3x4+xNcF4jbhuuwauv8LJW0x769Fo7azLS6Kx6XOjXNy3xTV8LzVmPNXmdPk2nq5sNp3xZazttMTWYrPhaJj0bzRzQ7VmszE80xOz7v0upx6rFTPitFqZKxasx0TExuAPLKAABEzt2q95A6CuLcfmvzTh2e+O3/acseZwR+t53JtFq+nekW39G73WlrTtWJmfhzsPVazBpaTk1GSmKkdNr2iseM+EKDlOLHN7Vx1ra17T1aY61m1rTPdWtYjrWmfCIlmx0c/J3bdXLxXiHWnsmdHoImtY3jtrfU5Ii9/DfHjx+9lJyB0J8L4DWsaPQYMV4jqzqOpFs1vHrZrb3nf09sQlcPDMl/XmKx3z4fVyji3nO4bpd6aSt9VePbX7GP8APaN5/lrMfFrw6OfI943xrqZJ0vzPT27s+u3x2mPGuniJyz7LxVlH0c+QDwvQ9TNrsufX5o7ZxWnzWmif9jj2vkj1Zclqz92GUsY4g6ibw8Pw4+fblT77c/h0OM8W84HF+Ib1rk/Z8c/cwfZnb43ne89kx1Q8nl7lLTcNxV0+m02HBirG1ceHFWlYiPVWI3971ohOxEJGI26HOL3teZteZtMzvMzMzMz75meeRIKvAAAAAAAAAAAAAAAAAAAAAAAAAAAAAAAAAAAAAAAAAAAAAAAAAAAAAAAAAAAAAAAAAAAAAAAAAAAAAAAAAAAAAAAAAAAAAAAAAjZIC0PT/wCT7pubtH5u+2PW4azOi1sV3tjmf6u8Rt18V52iazPrjua2Okzof4hy3ntp9bpclK7z5rV1rNtPmiPtY823VmZ7JmltrV9MemdwjpcY4Ni1mO2HNhx5cVvrY8uOt6z7a2iYRmq0NM/2vVt7/f1w6V5L+XGr4JHoLR6fTzO/o7TtNPfOO3Ptv7azExv7paVRtI5g8jXl7XWm9uGebmZ3n5rqM+niZmd5nbDkp3vlwbyLOXdJaLRw2ckx2xGq1Wozx6uzLltHxRH9k5N/Wrt2/LZ16POrwz0e84dTy9vV5OOa7+7lek8eQ1pct8oavimSMGk0ep1OWe6mnwXybdu29rVrNaVj02vaKx6Zhkf0ceQFxLXdTLr8+LQ4p2mcNJrn1G099bbT5nHb2Tf2s/OBcr6fh+OMOn02HDjjsimHFWkdnqrEb+2XrbM/FwvHXnvM2n3dENC4t50ddqN6aLHTTV6OVP8A1MnZMxFa/lnrWQ6N/JA4JwSaZY0carU12mNVrpnPaJjt62PHb9Bin10xxPrlerBp646xWta1rHZFa1iIj1RERtD7IS9MdaRtWIiPhDkms4hqdbf0mpy5Mtvfe0226t+aI+EbQjY2chcR4AAAAAAAAAAAAAAAAAAAAAAAAAAAAAAAAAAAAAAAAAAAAAAAAAAAAAAAAAAAAAAAAAAAAAAAAAAAAAAAAAAAAAAAAAAAAAAAAAAAAAAAAiUgI2NkgISAAAAAAAAAAAAAAAAAAAAAAAAAAAAAAAAAAAAAAAAAAAAAAAAAAAAAAAAAAAAAAAAAAAAAAAAAAAAAAAAAAAAAAAAAAAAAAAAAAAAAAAAAAAAAAAAAAAAAAAAAAAAAAAAAAAAAAAAAAAAAAAAAAAAAAAAAAAAAAAAAAAAAAAAAAAAAAAAAAAAAAAAAAAAAAAAAAAAAAAAAAAAAAAAAAAAAAAAAAAAAAAAAAAAAAAAAAAAAAAAAAAAAAAAAAAAAAAAAAAAAAAAAAAAAAAAAAAAAAAAAAAAAAAAAAAAAAAAAAAAAAAAAAAAAAAAAAAAAAAAAAAAAAAAAAAAAAAAAAAAAAAAAAAAAAAAAAAAAAAAAAAAAAAAAAAAAAAAAAAAAAAAAAAAAAAAAAAAAAAAAAAAAAAAAAAAAAAAAAAAAAAAAAAAAAAAAAAAAAAAAAAAAAAAAAAAAAAAAAAAAAAAAAAAAAAAAAAAAAAAAAAAAAAAAAAAAAAAAAAAAAAAAAAAAAAAAAAAAAAAAAAAAAAAAAAAAAAAAAAAAAAAAAAAAAAAAAAAAAAAAAAAAAAAAAAAAAAAAAAAAAAAAAAAAAAAAAAAAAAAAAAAAAAAAAAAAAAAAAAAAAAAAAAAAAAAAAAAAAAAAAAAAAAAAAAAAAAAAAAAAAAAAAAAAAAAAAAAAAAAAAAAAAAAAAAAAAAAAAAAAAAAAAAAAAAAAAAAAAAAAAAAAAAAAAAAAAAAAAAAAAAAAAAAAAAAAAAAAAAAAAAAAAAAAAAAAAAAAAAAAAAAAAAAAAAAAAAAAAAAAAAAAAAAAAAAAAAAAAAAAAAAAAAAAAAAAAAAAAAAAAAAAAAAAAAAAAAAAAAAAAAAAAAAAAAAAAAAAAAAAAAAAAAAAAAAAAAAAAAAAAAAAAAAAAAAAAAAAAAAAAAAAAAAAAAAAAAAAAAAAAAAAAAAAAAAAAAAAAAAAAAAAAAAAAAAAAAAAAAAAAAAAAAAAAAAAAAAAAAAAAAAAAAAAAAAAAAAAAAAAAAAAAAAAAAAAAAAAAAAAAAAAAAAAAAAAAAAAAAAAAAAAAAAAAAAAAAAAAAAAAAAAAAAAAAAAAAAAAAAAAAAAAAAAAAAAAAAAAAAAAAAAAAAAAAAAAAAAAAAAAAAAAAAAAAAAAAAAAAAAAAAAAAAAAAAAAAAAAAAAAAAAAAAAAAAAAAAAAAAAAAAAAAAAAAAAAAAAAAAAAAAAAAAAAAAAAAAAAAAAAAAAAAAAAAAAAAAAAAAAAAAAAAAAAAAAAAAAAAAAAAAAAAAAAAAAAAAAAAAAAAAAAAAAAAAAAAAAAAAAAAAAAAAAAAAAAAAAAAAAAAAAAAAAAAAAAAAAAAAAAAAAAAAAAAAAAAAAAAAAAAAAAAAAAAAAAAAAAAAAAAAAAAAAAAAAAAAAAAAAAAAAAAAAAAAAAAAAAAAAAAAAAAAAAAAAAAAAAAAAAAAAAAAAAAAAAAAAAAAAAAAAAAAAAAAAAAAAAAAAAAAAAAAAAAAAAAAAAAAAAAAAAAAAAAAAAAAAAAAAP//Z;" vertex="1" parent="1">
          <mxGeometry x="1364" y="223" width="80" height="80" as="geometry" />
        </mxCell>
        <mxCell id="ZWZFDb_ZpwZTJIpMt9Q7-17" value="" style="shape=image;aspect=fixed;image=data:image/jpeg,/9j/4AAQSkZJRgABAQAAAQABAAD/4QAqRXhpZgAASUkqAAgAAAABADEBAgAHAAAAGgAAAAAAAABHb29nbGUAAP/bAIQAAwICCAUGBQUIBgYIBgYGCAYFBQYFBgcHBggFBQUFBQUGBgYFBgYFBgUGBQUFCgYGBwgJCQkFBQsNCggNBggJCAEDBAQGBQYIBgYICAgICAgICAgICAgICAgICAgICAgICAgICAgICAgICAgICAgICAgICAgICAgICAgICAgICAgI/8AAEQgDhAOEAwEiAAIRAQMRAf/EAB4AAQABBAMBAQAAAAAAAAAAAAABBgcICQIEBQMK/8QAVBABAAIBAgIFBwgGBQkFBwUAAAECAwQRBQYHEiExUQgTQWFxgZEJFCIyQlKhsSNicoKSwRVDorLSFiQzU3ODk9HwRFSUwuEZJVVjw9PxNEVko7P/xAAdAQEAAQUBAQEAAAAAAAAAAAAABQEDBAYHAggJ/8QARxEBAAIBAgEHCQUFBwIFBQAAAAECAwQRBRIhMXGBkaEGBxMyQVFhsdEiQnKSwRQzQ4KiFVJTYmPC4SOyJDRzk9IWF0RU8f/aAAwDAQACEQMRAD8A2pgAAAAAAAAAAAAAAAAAAAAAAAAAAAAAAAAAAAAAAAAAAAAAAAAAAAAAAAAAAAAAAAAAAAAAAAAAAAAAAAAAAAAAAAAAAAAAAAAAAAAAAAAAAAAAAAAAAAAAAAAAAAAAAAAAAAAAAAAAAAAAAAAAAAAAAAAAAAAAAAAAAAAAAAAAAAAAAAAAAAAAAAAAAAAAAAAAAAAAAAAAAAAAAAAAAAAAAAAAAAAAAAAAAAAAAAAAAAAAAAAAAAAAAAAAAAAAAAAAAAAAAAAAAAAAAAAAAAAAAAAAAAAAAAAAAAAAAAAAAAAAAAAAAAAAAAAAAAAAAAAAAAAAAAAAAAAAAAAAAAAAAAAAAAAAAAAAAAAAAAAAAAAAAAAAAAAAAAAAAAAAAAAAAAAAAAAAAAAAAAAAAAAAAAAAAAAAAAAAAAAAAAAAAAAAAAAAAAAAAAAAAAAAAAAAAAAAAAAAAAAAAAAAAAAAAAAAAAAAAAAAAAAAAAAAAAAAAAAAAAAAAAAAAAAAAAAAAAAAAAAAAAAAAAAAAAAAAAAAAAAAAAAAAAAAAAAAAAAAAAAAAAAAAAAAAAAAAAAAAAAAAAAAAAAAAAAAAAAAAAAAAAAAAAAAAAAAAAAAAAAAAAAAAAAAAAAAAAAAAAAAAAAAAAAAAAAAAAAAAAAAAAAAAAAAAAAAAAAAAAAAAAAAAAAAAAAAAAAAAAAAAAAAAAAAAAAAAAAAAAAAAAAAAAAAAAAAAAAAAAAAAAAAAAAAAAAAAAAAAAAAAAAAAAAAAAAAAAAAAAAAAAAAAAAAAAAAAAAAAAAAAAAAAAAAAAAAAAAAAAAAAAAAAAAAAAAAAAAAAAAAAAAAAAAAAAAAAAAAAAAAAAAAAAAAAAAAAAAAAAAAAAAAAAAAAAAAAAAAAAAAAAAAAAAAAAAAAAAAAAAAAAAAAAAAAAAAAAAAAAAAAAAAAAAAAAAAAAAAAAAAAAAAAAAAAAAAAAAAAAAAAAAAAAAAAAAAAAAAAAAAAAAAAAAAAAAAAAAAAAAAAAAAAAAAAAAAAAAAAAAAAAAAAAAAAAAAAAAAAAAAAAAAAAAAAAAAAAAAAAAAAAAAAAAAAAAAAAAAAAAAAAAAAAAAAAAAAAAAAAAAAAAAAAAAAAAAAAAAAAAAAAAAAAAAAAAAAAAAAAAAAAAAAAAAAAAAAAAAAAAAAAAAAAAAAAAAAAAAAAAAAAAAAAAAAAAAAAAAAAAAAAAAAAAAAAAAAAAAAAAAAAAAAAAAAAAAAAAAAAAAAAAAAAAAAAAAAAAAAAAAAAAAAAAAAAAAAAAAAAAAAAAAAAAAAAAAAAAAAAAAAAAAAAAAAAAAAAAAAAAAAAAAAAAAAAAAAAAAAAAAAAAAAAAAAAAAAAAAAAAAAAAAAAAAAAAAAAAAAAAAAAAAAAAAAAAAAAAAAAAAAAAAAAAAAAAAAAAAAAAAAAAAAAAAAAAAAAAAAAAAAAAAAAAAAAAAAAAAAAAAAAAAAAAAAAAAAAAAAAAAAAAAAAAAAAAAAAAAAAAAAAAAAAAAAAAAISgEiJR1gTuI6zhkzRWJmZiIjvmZiI+M9gpu+m6Xj6rm7S4d5vrdJTbv6+qw12+N4UpxXyheBaP/AE3H+E49u/znEdPX88i7GK9uisz1RMvFstK9NojrmFwkrJcS8tLlfT79bmLQW2/1Fsmf/wDwx5N1Ma75RDlTF3cVz5J8MXCOJejwnJpMdZ9sSya6HU26MOSf5LfRjW1unr05ccfzR9WSaWI/EPlOuW8W/Vx8Zzf7Lh2KN/Z5/W4fx2eHq/lU+CR/o+Fcdt+3h0GP+7xHLsv14VrLdGG/bG3z2WbcT0tenLXsnf5bs1EMFNT8q7oI+pwDiNv29Xpqf3YyPOz/ACsOH7PLmo/f4pj/APLo16OCa2f4U99f/ktzxbSf4kd1voz9Ru146j5V632eXojw6/EZn8tPDo5PlXNT6OAab97XZf5YoXP7C1v+H/VX6vH9s6T+/wD02+jY6hrZyfKta70cB0Pv1uo/ljfL/wBq1xD/AOA8P/8AGan/AAK/2Drf8P8Arp/8nn+2tJ/fn8tvo2WIa1f/AGrXEP8A4Dw//wAZqP8AC+2P5VrW+ngOi92tz/zxn9g63/D/AK6fU/trSf35/Lb6Nkm6WuXD8q5qPtcv4P3ddkj88UvU0vysFft8u3nx83xOsf3tLLzPAtbH8P8Aqr9XqOMaT/E8LfRsFN2COl+Vd0U/6Tl/X1/2et0+T+9jxfmqHQfKmcCvtGThvHMcz3zXTaHJWPXMxxKtvhSVq3B9ZXnnDbs2n5TK5HFdJP8AFr27x84Zm7m7Gbg/yi3Kuo2i3ENVp7T9nU8L1vZv430+DUY6+2bbLkct+U/y9xKa1wcf4Xe9vq4razHjye/Flml499WHk0Wox+viyRHvmltu/Zl01mC/q5KT1WhdHc3dTRcTx569fHkx5Kffx5K3r8a2mHa3YU8zKiYlyAFQAAAAAAAAAAAAAAAAAAAAAAAAAAAAAAAAAAAAAAAAAAAAAAAAAAAAAAAAAAAAAAAAAAAAAAAARukAQiZBO5uozmnpg4Vwqtravi3D8ER2TGXWYYmPbWLzaPfCzvNXyhXLHD+tWvEM2qvXupodHlyxbs+zlvGPBO/d25GVi0mfL+7x3t1Vn57bMXJqsOP171jrtHy6WSu4wJ5n+Vc0td40XANXlj7OTXa7BptvCZxaems60erzsLT8zfKfcd1O8afScM0keiYxZdRaPbOXJFZn1xWPYlsfAdbf+HyfxWiPDeZRuTjWkp0Xm34Yn5zs2nTL45tVFImbWrWI7Zm1oiNvGZmY2aXuZPLN5m4j1ovx3VY6W78elriwVjffunHjjJG37a1XH+btXxGd9VrtZqZ3331esz5/f+myX29yWx+S+af3mSteqJt8+SjcnlFjj1Mdp65iPlu3d8x+UDwPhvWjU8e4TitX62K3EtNOWPbhpltl/sra8f8AL+5W0e+3FbaiY9Gk0eoye6JtjpE+6Zad4rs5bpPH5L4I9fJeerkx+k/NH38oc0+rSsde8/T5Nn/HflS+DYd40/DuKaj7turgwx74yZetHs2mVu+OfKu5pmY03L2GI+zk1XErdnhvjxabafdkYCG6Rp5P6Kv3Jt+K0/pswb8b1Vui0R1Vj/ll3xn5T3mLNvGLT8G09Z7rV0Wpy3j1dfLrrY5/4ShOK+XvzXqZt/7783Wfsafh3DsfV9lo0dsvxvLH4Z9OF6SvRhx9tYn5sK/EdTbpy37LTHyXU4l5VHMep3jJzHxWYnvrXV2x1/hxxSI+CjeJdI/EdTMzl4pxDJM9/X1+omJ9sed2n4KdGZXTYa+rjpHVWsfoxbajLbpveeu0z+rnqM9ss9a9rXn717TafjaZl84r6oSMiI2WN5kNwA3AATugDc3NwAAFAADdMWQCqd0bgBubACrOROlbiXActM+g4lq9NevdGLPbzcxHb1bYLdbFes+mLUmPFso8j7y5Kc02x8E4l5nBxnbbBmpEY8PEOrG8xjpMzGLUbRMzirO1tp6sR9WNVbt8L4nk0ubDqsV7Uz4MlcuHLSZi1L47Rel4mO3eJiJ+PihuIcLw6ykxNYi/3bxHPv8AGfbHviUroeIZNNeJiZmv3qzM7bfD3T7tn6BzdZ3yVumuOb+X9FxO0xGqpvpuIUifq58MRF7beiMsbZI/a9S8MOQZsVsV7Y781qzMTHxh1DFkrlpW9eeLREw5ALS6AAAAAAAAAAAAAAAAAAAAAAAAAAAAAAAAAAAAAAAAAAAAAAAAAAAAAAAAAAAAAjcEiETYHIcYtu8XmbnfR8Lx+d1et0umptM9bU6jHi32jeerF7RN59VYmVaxNuaImep5m0RG8zER8Xto6zGfnv5QvlrhfWrj1mbXZax2Y+H6e16zt6PPZJxYYn0dt2PHPHyq2qydanDeB6fFH2NRxHU3z3mPRPzfTxgpS3+/yR6pS+DhGrzeritEe+32Y8dp7kXm4ppsXTkiZ91ftT4c3fLY/u8rj3Nml4fjtm1Or0unxV7b5NTqcWGtfXNsl61j4tPPOnlu8zcW60X4xkwY7RMTi0OLHp67T6N6Vm87eM239ay/GOO59dfz2o1GfPk/1upz5M1/dfJa0xHqT+HyXyz+9yVr8KxNp752j5obL5RY4/d0mfxc3y3bgecvLv5X4X1qzximqyV/q+HYM2qi37OelI01vdmWN5x+VV0uPrV0HBdRmmPqZdZqKYKT4TNMcZb18dpa40JzD5N6Snrcu8/Gdo/p2+aHy8d1FvV5NeqOfvnf5Mq+cflJ+Y9d166e+h0FJ+pOm0dc2aseE5dXObHbw38xErI82dPPGuLzadXxzimatu/FbXZq4vbGDHemCnspSFBCbxaDT4o+xipHx5MTPfPP4ojLrc+X18lp7Z27uhzy5JvM2tM2tPfa0zMz7ZneZ9+7gDPYkyADyAAAAAAAAAAAAAAAAAAAAAAAAAAAAAAAAzH+TT6X/wCi+N6ngWXJtpuLUicNbT9Guq09Z6u0ei2bHM0/chtKiWgDlvmHLw7V6TiGG01z6XNTPhvE7TFsV4tEb+FturPqlvR6JekDHzDwjhnGcUx1NZpqZZiPsXtSPO458JpeLV2nwhzXyl0nIy1z1jmvzW/FEc3fHyb/AMA1XKx2wz00nePwz9JVgA0xtgAAAAAAAAAAAAAAAAAAAAAAAAAAAAAAAAAAAAAAAAAAAAAAAAAAAAAAAAAAIRuBPY+Op1dcVZyXtWtY+ta9orWPba0xEMUvKt8uzT8qWy8I0FMWr4zEbZJvPW02hm0dnn+pas5csRO/mK2rPdvMNcfSX0+cY5lyWya/impzVtM7aat5w6ekTP1KafD1MUVj1xM+My2XQcBz6qIyWmMdJ6JtvMzHviPrMNf1nGcOnmaVib2jpiNto65+jbH0heWdy5wHr0z8YwZc9d4+aaCttXl3jf6FowRbHins/rr0j1saefPlVafTpwzgt7eimo4jnrj33jst5jTzk6sx37Tlnf1NeEJ3bdp/JvS4/X5WSfjO0d1dvGZaxm47qMnq7Uj4RvPfP6RC/nP/AJc3MvGetSeK20mG0TE4eGUjS9no/T1m2pidvTTLX2LGcT4pl1WS2bNmy5st53vmz5b5b3n71r5LWtafXMy6o2HFpcWGNsdK16qxHihMuoyZZ3ve1uuZTv8A+iJkGSx5kAFAAAAAAAAAAAAAAAAAAAAAAAAAAAAAAAAAAAAAAAAEtifyX3TF18XEOVct/p4t9bw+tp76WmK6rHX9m0xk2j70tdavegrpMvy1x7hXGaWmK6bURGojf6+HL+i1FJ8Ymlutt41qieKaSNVp70+9tvXrjnjv6Enw/U/s+et9+bfa3VPNPd0t6kWTDo8F4pTV4MGqx2i2LPiplxXiYmLVyVi9ZiY9Uw7zjExtO3udXid4iYSAKgAAAAAAAAAAAAAAAAAAAAAAAAAAAAAAAAAAAAAAAAAAAAAAAAAAAAAAAI2UB078+zwDgPGeLV+vpdJe+H1ZLV6mKZ9UXtWfcr9Z/wArbl63EOUuYtNSJm86K2SIjvnzFq5piPHspLI00VtmpFvVm9Ynq3jdj6iZjFea9MVtt17NK/EuJX1WbNqct5vmz5LZs2S0zNr3y2m+S0zPfvaZ92zrCJd0rG0REdDj0zvO8gCryAAAAAAAAAAAAAAAAAAAAAAAAAAAAAAAAAAAAAAAAAAAAAAJhADa/wDJydMP9M8uzwrLffV8GyfN+2d7X01/p6W/fMz1Im2GZn01ZZw00+RN0xf5M8z6G+TJ1dFxCY0Ot607ViM1ojBltv2R5rJNe3wtLcpjns/n/NyPjmk/Z9VaYjauT7Vev70dk/N07g2p9Pp4ifWp9mer2eDmA15OgAAAAAAAAAAAAAAAAAAAAAAAAAAAAAAAAAAAAAAAAAAAAAAAAAAAAAAAIdbiPD66jHlwXjemWlsd48a5KzW0fCZdpB8VJjfmaI+mvkO3AOO8Z4RaJj5rrMlMU7bdbFa85NPaPGJx3rG/p2lRLOL5ULoy+bcT4bzDSn0Nbh+a6q0R/W6aN8M2nxti3rEfqsHXbOHaj9o0+PJ7ZrtPXHNPi5Lr8E4M96eyJ3jqnoAEijwAAAAAAAAAAAAAAAAAAAAAAAAAAAAAAAAAAE7CqBOxsGyBE3jxj37GO8WnaJiZ8I7Z+Edqm8e9XZI9DBy/nyfV02ot+xpstvypLv6fo+1+T6vDOIW/Z0Gpn/6S3OWsdNqx1zD3GO0+ye6XgCuNL0H8ZzfU4HxW3s4dqP8A7b1cHkycxX+ry3xiY8f6PzRHxmsLc6rDHTkpHXav1e40+Weilp/ln6LZC7uDyR+Z8ndy3xL97DSn9/LV3sXkWc1X7uXdZ+9m0Vf72rhbnXaaP4uP89fq9/smf/Dv+W30WUF+sXkKc2W7uX8v73EeFV/vcRh2MfkC83T/APsMx654vwf+XE5n8HmeIaWP42L89fq9RotRP8LJ+S30Y/R4/Dae3s7d4n0bd+7eH5MvM2XifK/L+szbzmyaHHGS0995x16kX/eisS199FvyaXG9bqsU8U+b6DQ1tE6iK6vFqNVkrExNqYa6ecmGnXjePOXy71+7LZ/yzy/i4dpdNoMFIpp9LirgwY47q0xVitY7fVG+7SPKLXYM9cdMVovaszMzXniI2223+P6Nv4FpM2Gb3yRNYmIiInmmZ9+3w/V6gDSG3gAAAAAAAAAAAAAAAAAAAAAAAAAAAAAAAAAAAAAAAAAAAAAAAAAAAAAAACJSAsD5bnRl/T/KXFcVadbU6Kka/S7R29bST5zJSPDr4ovWfU01b+l+gzVaWuWmTHaImt62peJjeJi8TW0T47xMw0ceUJ0d25d5h4xwqYmKYdTa+n9eLPPncM+v6Nur7p8HQfJfU818E+z7de3mn9J7Wj+UOn2mmaPbHJns54W6Ab40wAAAAAAAAAAAAAAAAAAAABE229grCR6fBOWdTruzT6PVajt2/wA20ubNG/txY7xHvlczl7yRuZOIdScXANdFbd2TPSuGvxzXpt74Y99Rix+veleu0R4Sv0wZL+rS09UTK0Ayr5f+TU5m1W05K8K0sen5zxG9p91dJptTEz6pmPcudy58lDnmYtq+YsNY+1i0nDb2n93Pm1NI984Edk4zo8fTlrP4d5+UM+nC9VfoxzHXtHzlgMNpPLvyXnAsG059ZxXVeMWz4sMe75vhx2iPbMyuVy95CfK+iiI/oXHmmO6dXmz559v08m0++EZk8pdLX1YvbqjaPGY+TPpwDUW9aaV7d/k01zeI9MfF6fBeWdTruzTaPV6id9ttLpM+efhhxXmfY3l8v9CnB+H7fN+C8MxTX6tqcP0/Xj/eTjm/9pWWPDFYisViIjsiKxERHqiI7kbfyqj7mGeub7eEVn5s+nk5P3svdX6zHyaQOBeS7zHrtvNcucW7e7z+ktpff/nc4NvFX3Bvk+uadTtvw3Dg3/71r8Fdvb5mc7cIMC/lPqJ9WmOv5p/X9GbXyewR61rz3RHy/Vq04L8l7xzLt57XcLweO2TNm2/hxV3Vpwj5KLNO3zjmDDXx+b8Pvf4edz0/FsXGDfyg1tvvxHVWv0ZdeCaSv3ZnrtP/APGC3DPkpeHV289x3id/HzGn0mHf2TkpqNvhKreFfJh8uYtuvm4zn27/AD3EMNIn1f5totPMR7JZd7J2YduL6y3Tmt2c3yZNeF6WvRir27yxv4b8nnyng2n+iMuSY+1m4rxK+/7k6yMf9lVnDvI55X0/1eXOGW9ebTRmn45pvK8myWPbXai3TlyT/Pb6smujwV6MdI/lhb/h3k/cD023muA8Kpt3dTh+CNv/AOtUWm5D0OKIinD9FXbu6ukwx+WN7wxrZslvWtaeu0z+q/GKkdFax1Vj6Olg4Nhx/VwYa/s4qR+VXbikR6HIW5mZXIrEeyEbGyRRVGx1UgI2Nkimw49VKRUAAAAAAAAAAAAAAAAAAAAAAAAAAAAAAAAAAAAAAAAAAAAAAAAAAAAAAAAAAAARLXB8qR0X+a1XCOZMdPo6jHOg1toiduvhmcmltae6N6WyUjx29TY/KzXlcdGP+UPK3F9FFYnPjwzqtJ2dsZNLvlrt+1EWr70rwrU/s+ppf2b8m3Vbm8OlF8S0/p9PevtiOVHXHP8A8NKQDtDlIAKAAAAAAAAAbItaI7ZmI9siuyRVvKHRJxTjM1+ZcK1+pi31cmHSZfNTv3fp7Vrh7f218+Tvk5uZeIdS2XBo9FS3fOr1UTav7WLBXLbf2MHNrcGH95kpX4cqN+7pZeLSZsvqUtPVE/Ni/sNhvJ/yUVOy/EOYMlvvYOHaGmLb2anVZNR1vD/9NVfHlH5PXljh3Vtbh+XV3jvvr9XlzRb1zhi1MET+zSENl8otHT1Ztef8tdo77beCWx8D1N+mIr1zHyjfxag8WObz1a1m1vu1ibTPurvKvOU+gLjnFpr814DxXNW31c39H5seGd//AORnpi08e/I3UcsdFHDeFVrTScM0Gn6v1Zw6PFW0fvxXr/iqrqIXL5U2/h4oj42tM+ER+qWxeTsffyT/ACx+sy1Lcp/Ju8y62KWzYtDoqz9eup1tcmWsf7PS1zUtP++heLlb5KTunW8emfGmi0cRHs62bJaY8N9vc2ERCdkNl8oNZfotFY/y1j9d0pj4JpadNZt+KZ/TZiny38mty1perObDxDWTHfGo4jlx0mf2dJ82mI9XXldrlbyX+XuFTW2m5e4XS9fq576PHmzf8fPGXNPvuulsjZE5NdqMnr5ck/DlTt3b7eCTpo8GP1cdI/ljd1dHwrHh7MeHFSNttseKleyPR9GsO3AMKZ97LiIjoSI3NxVIjc3BIiZR1wchx66JyQpMxHPM7DmOrm4njp9bLjj9q9Y/OXnajnPS4+ydRj91t/yR+biWkwxvkz4qfiyVj9V2uK9vVraeqJl7UyhS2fpM0lf6y0/s47f8nm5ulvBH1cWafXtWI/G2/wCDXs/ljwXB6+t0/VW8XnupypZleHam3Riv2xt89ldbpmy22bpg+7pffbNt+EY5/N0M3S1mmfo4cMe3r2/KaoDN5yuAY+jUWvt7KYcs+M0iPFlV4Lq5+5t12r9V2N09ZZrL0n6qe6cVfZj/AMUy6ebn/V2/rtv2a1j8oQmXzs8Hr6tNTfqx1rHjffwZVeAamenkR2z+kL4dZO6wd+bNTbv1OX+Lb8odbJxvNbvz5v8Ai2/5orJ54NFHqaTNbrvSv6Sv18ncs9N6x2TP0ZB2yxHpj4uE6usfar/FDHi2tvPfkyT7b2/xPla0z6Z98zKMv54q/c0U/wA2WP0qvx5OT7cv9P8AyyHtxPHHflxx7b1/5vnbj2GP6/D78tP8THrY2YdvPFn+7osfbkt+kLkeTlfbknsr/wAsgZ5k0/8A3rT/APHx/wCJx/yp0v8A3vTf+Ix/4lgNhjz54tX7NHg/9zJ9Hv8A+naf4lvywv8A/wCVel/73pv/ABGP/GmOZtNP/atP/wAfH/iWA2Rsf/eLWf8A6eD/ANzIf/TlP8S35YZC4+O4bd2fDPsy0n8rO1TLFu2JiY8YY4O3ouK5cE748t6+qLzt8N9klpPPDvaI1OjiI9s48m8x2Wjn71jJ5OzEfYyc/umPpLIaLOa3XJvSP521cGfqxe3ZTNHZFp9EWj0TPdvHYuHF3deCce0fGdP+0aS/Kjfa1Z5r0ttvybR7J+PRPslq+p0uTTX5GSNp9k+yY98OQDYWIAAAAAAAAAAAAAAAAAAAAAAAAAAAAAAAAAAAAAAAAAAAAAAAAAAAAAAPnmpFomJiJrMbWiY3iYnsmJj0xMdmz6IsDSD5UHRnPLnM3GeHRWYwzqbanSeE4dVac2Pb0fR6002ju229C1bYx8p/0OWzafh/NOHHM/Nv8z4jNY3mmLLbfT5rbbz1aZP0cz6OvDXRMOzcK1UanTUv96I5NuuOad+vpco4lp5wZ719m+9eqfp0IAS6MAJn1gCouTOjrX8byea0HDtbq7b9WZ0umyZaUme6MmatfM4fHfJesdzI7kD5Nnj/ABHq31U6Th+KYiZ89l89mjt7YnFg61Ynb/5kx7GFn12DB+8yVr8N+fujn8GXh0mbN+7pa3x25u+eZihBWN5ivfM9lax2zMz6IjvmfVs2d8ifJccI0s0ya/iHENdePrYMVqaPT28YmMVb6qdu7eupp7GR/Ink6cD4FERo+DaHFaI2nN5iuTNbbum+bL18t5jxtaZa7n8ptPT93W156uTXvnn8E7g4Bntz3mtI757oad+S/J545xua/M+B8RzRbsjLOn8zi9W+fU2w4a7+NrwyA5F+TD45rOrfW6vh+gpO0zji9tZnr41tXD1MFZ9G9c94bTa4oiIiI2iO6I7NkxRr+fyl1N+bHWlI6uVPjzeCaxcAwV57za89e0eHP4sNeSfkwOC6Xa2s1ev1to2maecpp8e8d/Zhr15ifXff1r98leTBy/wWaX0vAeG0y07aanJpKZ89Zid966jURly1nft+jaF0NkoHNxDU5vXy3n4cqYjujaE1i0ODF6mOsfHbee+XxxaeKRtEREeiK1iI+Edjn1XKRHs3aIIhKNzcVSI3NwSOFrOnq+M4sP18uOv7V6x+EzusZdRjxRysl60iPba0VjvmYeorM80RM9UO+KW1fSNpcf8AXdafClbT/KIeNrOl/HG/UwXt4TaYrH/mn8Gqavyx4LpP3msw7x7KW9JP9HKZ2Ph+pv6uO3bG3z2XB3cZstPqulvPbspiw1j1xa8/HrVj8Hjann3V5O/PNfVSsV/GI3aXq/OrwbF+6jPm2/u44rHZNrQksfAtTbp5Neud/lEr4WyRHftHtl09VxvDije+bFX9rJWP5rDZ+K5cm82y5Lb+N7f83V2adqvPF7NNouqcuX/bWs/9ySp5OT9/L+Wv1n9F7dR0iaTH/XxafClL2/GtZr8ZeTqelvBH1ceW3tiKx8d5n8FqNhqWp87HGMv7uunxe7k45tMfntaJ7mfTyf09emb265iPlEfNcTVdL9vsaeI/avv+UPL1HSnqbb7earHqpMz8Zn+Sjxqup8vOO6j1tZkr8McVx/8AbEM+nCdLT+HE/i3n5y9zUc76rJvvqLx+x1a/DqxE/i83UcVy5Pr5stv2st7fnaXVGsZ+Ma7UTvl1Oe/XlvP6s+mmxU9WlI6qx9CZ38fiAirXm3PMzM++eee+V/koiEg87q7ACj0AAAAAAAAAAAAAAju7fy9S8/R/zF870/VtO+XF9G/rj7NvfH5LMqn6POLfN9XSsz9HL9C3tntrPuns97p3m/49bhfFMdbW2w6iYxZI9m9ualuy23P7plA8X0vpsEzEfap9qvv+Mdy9dUuNZcn2+5kAAAAAAAAAAAAAAAAAAAAAAAAAAAAAAAAAAAAAAAAAAAAAAAAAAAAAAIlIDzeYOB4tfp8+iz4qZdPqMdsWfDeN63reNrVmJ9Xwnbwa2enf5NXiGk1GbWcEnFq9FeZvXh2XNGLV6ft383jtkiMOqxx27TN8d4jaOrbvbN0pLRcQzaO0zinmnprPPWez3/FH6vQ4tVERkjo6JjmmGkDVeSzzHiv5u3LvE+tvtERpZtE+uLVmazHr3VNyv5DXNHEZiI4LkwVme3Jrs+HT1rH3pi17ZJj9mlp9TcyJ+3lPqJjmpjifftafDdDV8nsETz2vPw5vo1zdHvyVma3VycV4zip97S8LxWvMenadVqqY4nfu2rpo/alk50e+RDy3wTqXpwrHqc1O2M/EJnVW38YplmcUb9+3U7PUv6ITUcV1WfmvktEe6v2Y8NvFLYOG6fD6tImffPPPi62h4fTBjrix46Y8dI2pjx0rStYjurWtYitYjwiH32chEzzpKI2REECN/WKuQhxtkivfMR65ebWisbzMRHvmdoHLc3eJxDnDTYPrajHv92tutPwrvPxU7ruljDXsx48l58ZiKx/OWr67yp4Tod/T6vDWY+7F4tbsrXeZZ2LRZ8vqY7T8dto755leomy0Wv6VtRfspXHjjx2m8+rvmI/CVP6zmrU5/r6jJO/fEW6tf4aRWPwc813nY4Th3jT0zZ5j2xWMdO+88r+hL4uA6i3rTWvbvPhzeK+Gr4viw/Xy0r+1eI/9Xg67pK0uL+stefDHSZ/tT1a/is1a827ZmZnxmd0Oe67zva6+8aXT4cUey15tkt/tr4JjF5O44/eXtb4R9mP1lcjWdL/fGPTz6pyWiPjWu/8AeeHrOk7VZN9rUpH6td5j323/ACUmNB1nl7xzV+vq70ifZiiuOOyaxE+KVxcJ0uPoxxM++29vnzPR1nMOfNv18+W3jHXmI/hjaPwed6waXqNZn1E8rNlyZJ9972tPfaZSdMVaRtWIiPhEQbAMTdc2NwFFQAVAAAAAAAAAAAAAAAAAAAAAAAAAACt5rMWidpid4n2TvEg90tNZiY5pjnifjHQ8WX/5a4rGq0+LN6bVjre2Oyfxeotl0T8Y7culmfR5zH+Voj8JXLq++/JPi8cV4Xg1O+9uRFMn/qU+zbv6e1yfX6f9nz3p7N969U88fRyEJbejwAAAAAAAAAAAAAAAAAAAAAAAAAAAAAAAAAAAAAAAAAAAAAAAAAAAAAAABG6XCbKTOw5JdHW8Xx4I3yZaUj9a8R/PtUzxHpU02PeKdfJP6tZiv8V4jf3RKB1/HuHcPjfVanDj/wAtrxyp6qRvaeyJZWLS5c37ulrdUc3f0Ky66JyRC03EOlfNffzeOlI9EzHWt/KPwlTGv5iz6j/SZ8to+715iv8ABXav4OYcR87HC8G8aamXUTHtiPR077c+38qbw8A1F+e81pHfPdHN4r1cR5t0+Dsvmpv92J60/Cu6mOI9LWKu8YsV7z6LWnqV/K0/hC1k/wDUjl3EfOvxXUbxpqYtNHviPSXjtvHJ/o7U7h4Bgr682v8AD1Y8OfxVZr+k3U5d4rNMcT6K13n4z2qe1nGMuf6+bJbf0WtO3w7vwdQcz13lFxLXT/4nVZsnwm8xXsrG0R2Qm8WiwYvUx1jsiZ7550dVINemd2bsAG5sAKAAKgAAAAAAAAAAAAAAAAAAAAAAAAAAAAAAAAAAAo9Hl7ifzXUYc3orb6Xriey0fzX9w5etWto7piJifb2scZXm6OuM/ONJSszvfDPm7eyPqT767R7n0X5pOM8jNm4beebJHpcX4q7ReO2u09ktN8oNNvWuaPZ9m3VPR4796rREJfUTRwAAAAAAAAAAAAAAAAAAAAAAAAAAAAAAAAAAAAAAAAAAAAAAAAEAkQbgRKN3j8U5r0+m+vmrE/cietb+Gu8qQ4n0txG8YcNp/XyTER6pitZmZ98w1HinlZwrhm/7TqccWj7lZ5d/y13mO1n4NBnz+pS23vnmjvlce1nl8S5mw6b/AEmalZ+732/hjeVn+J876nU7xbNatZ+xj+j7t47Z+Lwpn0+nxcf4r53sdd68P00292TNPJjrild5nttXqbDp/J608+a+3wrz+M83hK5/FOlyld4xYptP3sk9Wvt2je0/gpPiPP8Aqs+8edilZ+zijq/j22/FTaXH+KeXPGeI7xk1N8dZ+5h/6df6drT2y2LBwrT4uikWn325/nzeDllyzeZta1rTPptMzP4uOwNEvkteZtaZmZ6Zmd5ntlLxWI6I26gBbV2RskAABUAAAAAAAAAAAAAAAAAAAAAAAAAAAAAAAAAAAAAAAAAAAAVb0a8Y8xqoxTP0c0dX96O2s+/uUk54M047VvE9tbRaP3Zif5J7gXErcM12DV05vRZK2n4132tHbXdhavDGfFfHP3o8fYyP3N3ncE4lGpw4s0fbrEz2+n0/i9F+g+nz1z4qZaTvW9a2rPvi0bx4OR2rNZms9MTtPYkBkPIAAAAAAAAAAAAAAAAAAAAAAAAAAAAAAAAAAAAAAAACASI3RNwcnHd8NVr6Yqza961rHptMRH4qO4x0p4cW9cVbZbeMfRp/FO8z7oa/xTj3D+GV5Wr1GPH/AJZne89VI3tM9UMrBpcuedsdJt8dubv6IVxEvM4rzHg00fpM1Kz93rRNp9lY+lPwWm4t0ganUbx1/N1n7OPs+Nvrfipu1pmd5neZ75mZmZ9sy4txfzuYKb04dgnJP+Jm+zXrikfantmGy6fyfvbnzW5Pwrzz39HzXM4r0s1rvXDim3he87R7do7Z9ijOKc56nU7xbNMV+5j+hHs7O2ffLxIhLivFfLXi/Et4zai1aT/DxTOOnVMVmJt/NMtl0/C9Ph9WkTPvt9qfHmjsRvv4+2Ug0e1ptO888++UtEADyAAqAAAAAAAAAAAAAAAAAAAAAAAAAAAAAAAAAAAAAAAAAAAAAAAAAAAAACi5vRNxfrUy6WZ7aT18fstv1oj2T2+9cWIWS6OtRNNdh2+1Fqz7Jjf+S9r7W82nEr6zgtK3ne2C9sO/vrG1q91bRHY5nxrDGPUzMdFoi3b0T4wkB1dAgAAAAAAAAAAAAAAAAAAAAAAAAAAAAAAAAAAAAAAADjaS0qK5556+aR5jHMTnmO2fRjie6Z8bepC8X4vpuE6a+q1VuTSvRH3rWnorWPbMsjT6e+e8Y8cbzPhHvn4Pc45zXh0UfpL/AEp+rjr22t7o7vbO0LfcY6VMuTeMVYx19Fp+lf8A5Vn4qMz57ZLTe1pta072tad5l893ydx/zl8S19rY9Lb9lw88RFP3sx/mye/4V22+LftJwTDiiJyR6S3x9WOqPru++s1+TPbr5Ml728bWmfd7PU68Qkcky58mW03yWte09NrTMzPbPO2CtIrG0RER7o5oAFhcgAFQAAAAAAAAAAAAAAAAAAAAAAAAAAAAAAAAAAAAAAAAAAAAAAAAAU3ANw3ARubG6REy7Wl4Zly/UxZLeuuO0x8dtvxZGLTZc08nHS1591azae6IlbtkrWN7TER8eZ1hUGl5C1eT+p6vrvasfhvL2NL0TZrdt82KvqiLWmPyj8W1aTyO41qtvRaPNtPttX0cf18lg34lpqdOSvZO/wAt1Do3XS0fRJij6+bLb1VitY/K0/i9/hvIOlwTFowxa0d1skzaf7UzEe6G7aHzVcYzTHp5w4K8282vy7R/LWJ5+1F5ePaesfZi1p6to75+ij+jHlm/nPnl6zFKxMYotG3Wme+0R3xER6fXK6KKYojaIjaI7ohy2fTnk3wDDwPRV0mGZtzza955pve3TO3sjoiI9kQ0jWaq2pyTktzeyI90JAbSwgAAAAAAAAAAAAAAAAAAAAAAAAAAAAAAAAAAAAAAAHj8zcajR6fLnnviNqR42t2Vj4/ksRqNTOS9slp3tad7T7e30/Bcvpc1MxiwY/Ra82t+7HZ+K2D5C86vFsmficaLefR6elZ5PsnJeN5tPxiNoj4Og8B09a4Zy/evMx2R7PmQA4e2kAFQAAAAAAAAAAAAAAAAAAAAAAAAAAAAAAAAAAAAAAAAAAAADdXZTcDcViszO0RMz7oU3B39HwDPm+pp8s7+nzcxHxtER+L3NH0ZarJtM1pSP1rxM/CIn82waPyd4nrP3Glz3+MY7RHfMRDDya3Bj9fJSP5o37oUoLjaPofnsnJqNvGMdP52n+T29H0W6WnbauS8+N8kxHwp1In3xLd9H5sOOajntjx4Y/1ckb91OXPgi8nHdLTom1vw1+uyzz76fh2TJ2Vx5Lfs0mf5L6aPlbT4fqafHE+PUiZ+MxO70qYIr2RER7IiG8aPzPX5p1OsiPfXFj37rXn/AGovJ5RR9zH22n9Ij9Vj9LyJq8ndp7RHjea1/C1t/wAHtaTomz22m+TFT1R1rz/drHw3XbhLddJ5qeD4dpy2z5pj+9eKxPXFIj5ozJx3U29Xk16o3+cyt3pOiPHHbfPkt4xWsVj+cvY0vRzpcffim+3pveZ/CJiPwVY4y3PSeRnBdLt6PRYZmPbevpJ/rmyOycR1N+nJbsnb5bOho+AYcP1MGOs+MY6xPx23d7qR4fg5SjdtWHS4cMcnFjpSPdWsVjwhgWva3PMzPXO5slEOTJeUbJBUAAAAAAAAAAAAAAAAAAAAAAAAAAAAAAAAAAAAAAAAAAAAUF0s6LrafFl2/wBHk2n2Xjb89lqV+ObuH+f0eop3z1Jmvtr9KPyWHfIHnY0E4eK01EdGfDWf5qTNZ8NnQuAZeVgmn920908/1AHEW0gAAAAAAAAAAAAAAAAAAAAAAAAAAAAAAAAAAAAAoAjdXZTdJu+mDTWyTEVpa0z6K1tafwiXtaHkXVZtpjBNYn05Jin4T9OP4UrpOE63Vztp9Pmy/gx2tHbMRtHax8mpxY/XvWvXMQ8FG64Oh6JLztOTNWvjWlZn8Z2/JUGi6LNNTbrecvP615iPhXbs9W7oGh82fG9TtN8VMEf6uSInbqryp7OZEZeN6anRabfhj9Z2Wf3d7ScCzZvqYMtvX1JiPjMQvjoeW8GD6mDFX1xjrvPtnbeffL0Yo6BovM90Tq9X11w0/wB15/RE5fKOf4ePttP6R9VmtH0ZarJ31x0j9e/b8Kxb8Xv6Pof7vOaiZ9WOkR7t7Tb8oXHirk6BovNlwPTbcvHfPPvy5LbflpyYntiURl41qr9For+GI/XeVJ6Po00uPaZx2vPje8z+HZD3dJwPFh+phx19cUjf47bu+N70nA+H6P8A8vpsOP8ADjrE9+26KyanLk9e9p65lwiiYcnHZN7RDHSS4xL55tVWkb2tWI8bWiI+MhEb9D67m63/ADR0/cF4XNq6njGgx3r9bFGppky/8HDOTL/YWm5m8v7gul60YKazV2junHgnFS3stnmlo38Zos3z46etesdsb93SntJwDiWs2/Z9LnvE/ejHaK/mmIr4smZsddgbzP8AKMam8zGj4Tgxx9m+qz2yWjw3x44pWfddabmXyyuYdfM/+8o01J/q9FpsOKI8Nsl65c1dvVkhgX4ngr0TM9UfXZvGj82nGc+05K4sEf6mSJn8tIv84bR8+rrjibWtWtY77WtERHtmdohRnMfTfwjhsf5xxbQ4/V86x2n2RFbWmZ9TU7xzn7X6+ZtqOI67PM+nPrM2T8LXmPweD1fTt2z3z4+3xYd+Lf3afmn6fVumk80sf/k6zrjFj/3Xt/tbLuY/Lw4BpOtGPNq9VaPs6XR22nbwyai2DHPtiyisvyjvD99o4RxKa+Nsmkrb+GM9o3/eYDjDnimaejkx2fVt2DzZcFpG14z5PjbLMeFIp+rZj0f+XDwPiuSmC+TUaLLeerWuuxVrSZnujz2LLlw13nsjr2rv4MgdNrK5a1vW0WpaN63rMTW0T3TExMxMT4w0mbMq/I08pLJw3VYuAazPa2g1N4posmW+/wA0y22iuOLWmZjDlns6sztW09neztLxKb2imSI5+iY+Ux+rR/KnzbU0untquG2vb0cTa+G88qZrHTOO0RE80c/JneZ2nafY2GxKXDHLm2B8/gAAAAAAAAAAAAAAAAAAAAAAAAAAAAAAAAAAAAAAAAAAAPnkx9aJr4xt8WPnGdH5nPnx/dyWiPZvvH4MhZ7lm+k7Qea1k39GWkWj1zH0bflDhHnc0HpeHYdVEc+HNyZn/Lkjb/uiI7W0+T+Xk5rU9lq+Nf8AjdSQD5JdCAAAAAAAAAAAAAAAAAAAAAAAAAAAAABQAiN1YiZ5oJkHoaLlzUZ/qYMto+91erH8VpiFRaDor1F9pvbHjjw3m1vhX6Pws2fQ+THFNdt+z6TNaJ+9NJrXr5Vto2R+XX4MXr5Kx8N957o3UaTK6ug6J8NO2+TJefDfqx+Eb7Ki4fynpsG010+PeO61q9a0eybbzHudH4f5p+K5tp1F8OCPdMzkt3V5u+0IbNx/BX1Itbwjx5/BZPRcHzZ/9HhyW37prWdv4piK/iqDRdGeqybdaKUifTe28/CsT2ryxSI9HwhLo+g80fDsW06rNmzT7Yrtip4b2/qQ2XygzW9Stax+afHm8FutB0RUjacme9v1cdYrHxmbTP4Kj4fyDpcP9TFp8bzNp/GdlRxA6JoPI7g2h2nDpMXKj7149JP9e6Iy8Q1OX1sluqPsx4bPjp9FTHG1aVrHhWsRH4Q+vVckbtvpjrSNqVisR0REREd0I+Zmek6pslG64ojZMvlqNRXHE2tatax32taIiPbM9kKB5r8oHg3Cet854vo6Wr34q5oy5Z28MOGMmW37tZeLWrXpmI652ZODS5tRPJw475J91KWtPdWJXD3N2K/NPyhPCNP1q6XT67V2juv5mNPit7LZpjLHvxQs/wA1/KHcSz9auk0Ok00fZvlnJnvt643x0ifXDCvrsNPvRPVzt20XkJxvV7TGmtjifbmmuPt2meV3VbBrXeHzDzzo+Gx1tTrdNgjv/TZ8dJnbv2rNotbb1RLVhzX5SfHeKdaM3GdZWlv6rTZPm1Ij7v8Am1cdr19V7StxqdRbLabXva9pnebXvN5mfGZtMzKPycXrHqVmfxTt9W/aLzT57bTq9VSnvripN5/NaaRH5ZbOeavLZ4BoOtFdZfVXjupo8N8kTMejrzFcce+0LO81fKQds10PBpmPRl12q6sxPo3wYKX3j/fwwkGBfiea3RtXqjf5t+0Xm04Pp9py1y55/wBS8xHdTkr+80eW/wAf128U1ODS1n7Ok00VmvsvltlvvH7XuWm5k6SOIcTm06riOsz9b61cmpyTSfbji0Y/7KnJkYF9Rkv61rT2t70fAuHaP/y+lw49vbGOvK/NMTbxRWuxskWE5shICoAAAAmt5rMWiZiYnetonaYmO2LR6d4mN+xAKTG8bT0T0tsXk19J3+UPAdDrLWidRSnmNZ/tcMRS0+rrxEW7fFdSste/yf3SV8z4nquB5LbYtfinNp4meyM+DbrVjw85jme77ktg9Ybxo83pcVbe2I2nrh8QeV/CP7K4pmwxG2O0+kxe7kX59o/DO9exzEJZrTAAAAAAAAAAAAAAAAAAAAAAAAAAAAAAAAAAAAAAAAAAHGYW+6WuH74sOfb6lprM+q0dn4wuE8Lnbh/n9HqKbdsV61fbXt/k1Hyt4f8At/CNXg6ZnFa1fxU+3Xxhn6DL6LUY7/5oieqeafmsSlEJfAUutQAPL0AAAAAAAAAAAAAAAAAAACgBurETJuId7Q8EzZ5+hhyW9cVnb4ztCpOH9Fuoybde2PHX07z17fCsbf2mycP8nOJ8Q2/ZtLmvE/e5ExX89tqx3sDNrcGH18lY+G+890byo3dK7HDuiXDTacl75J9vVj4R2/iqTQcr4NP9TDjifvdWJt/FO8/i6bw/zTcTz7TqcmLTxPTG85L91dqxP80oTN5QYa+pW159/qx48/gspoOXM+f6mDJMT3W6u1f4rbRPuVJw/ooz32m98dI9Mb9afwiI/FduKOUQ6Zw/zT8MwbTqcmXUT7t4x17q8/8AUhc3H89/UitOzefHm8FC6DonwU2m98mSfDrdWvwptb+0qTQcs4MH1MGOJ8erEz8bby9UdJ0Hk1wvQbfs2lw0mPvciLX/AD23t4oXLrM+X18lp+G87d0bQilNnNBu2SsREbRG0MNI4zYjI9CZgeTxrm3S6Gs5M+qwYaxG8zmzUp2R3z9K0TPuWc5w8tfgHDutFdbfVZK92LQ4LZd9v/mzNMEfvZIWr5aU9a0R1ylNHwvWa2eTpsGXLP8Akx2tHbMRtHavxMoizBzmz5Ru1utXQ8I6v3cut1ETPtnDgjaJ9XnbQsxzd5YvH+Jb1+fxp6T9jR4aY+yfRN5i1948azWUfk4lgr0TNuqP1nZv+h823GdTtOSmPBX/AFLxM/lpy53+E7Nn3FOOYdJScubPhw46/WyZstMdY9tr2rEe+Vpua/K64Bw2bVtxPHmvXvpo621Hui2OJpPuvLV7xnjufXX87qNRnz5P9ZqM+TNbt/Wy2tMR6o2dFH34tP3KxHxmd/CNnQ9F5psFdp1eqvf31xUikdXKtyp8GdPNfyjOCnWrouFZcs91curz1w0nwmK0rlvPjtPV9qzHNHl0cf1vXrjzaXSY7d1dJpYm8R4Tl1F89t/1qRT3MfRHX1+a/TeY+Feb5c7oGh8huC6Taa6WuS0fezTOWZ7LTyY7KwqbmLpN4jxKZnU8S1ubffeuTVZOrO/omlbRTb1dVTEQkYVrTad5mZ7W6YdNiwV5OGlKV91K1rHVEREADyyQAAAAAAAAAAAAAAAHt8k8034Tr9DxLHMxk0uemWNvTFZ+nXs7Zi1etG3tbhuVOYKcR0ek12O0Tj1OCmakx4ZKRb8JmY9zS9/1/wBe1sR8gbpF+fcEycKvbfLwzLNccT3+ZzzOXFt6sczan7qd4Vm2vOOeiY3jrj/hwrzp8J9NpMWvpH2sNvR5P/Tv0T/LfaP5mUyUQltD5hAAAAAAAAAAAAAAAAAAAAAAAAAAAAAAAAAAAAAAAAAAHzzY+tW1Z7pjaff2S+jjZ5tWLRNZ6JiYnqlWGPHFdH5nNmxfcyWiPZvO34bOqqzpL0HmtZa3oyVi3vjslSb89OP6GdDxHU6aY29HmvEfh33r4TDrujy+lw0v76x3+0Aa+zQAAAAAAAAAAAU3ARJsbpDd2dDwzJnnbHjvf9mszEe2e6PiyMOny57RTFS17T0VrWbTPVERMvFslaRvaYiPfM7Q6yN1ZcN6LtRk2m9qYo9f07fw1mI+NlV8L6LdPj2m83yz+tMRX3Vrt+My6Lwvzd8b120+h9BSfvZrRTm/Dz38ENn4zpcXNyuXPurG/jzR4rS4sU3mIitpme6KxMz7OyO/1Pf4byFqs+0+ZmlZ+1lnq/2e234QvLoeEYsEbUxUp+zWI/HvdvqOs8N80OnptbXam+SfbTFEUr1cq29pjqistfzeUN55sVIr8bc893NHzW54b0Rx35c0z41x12/tWifyVRw3kfS6faa4KzaPt33vb2723292z3oqnZ1Xh3kfwjh+3oNJi5UffvHpL/mvugc2v1Gb18ltvdE7R3Rs4UwxWNoiIjwiNvycuqk2bhFYrG0RER7o5vCEekRui1nockTLyuNcz6fQ0nLqNTgw0j7ebLTHH9q0b+5ZrnHy1uA8Nm1Y1ltVkjf9HosVsm8xv9Hzlupiif2rwtXy0p61ojrlJ6Pher1s7abBlyz/AJKWmO2dto7ZX53ceuwW5w+UbzX61NBwjFSv2c+u1E3t/wADBWlaz/v7exZPm7ysePcU60X4nfDjtvE4tHSuCNp7Or1qxN+zx60Sj8nE8NeiZt1R9dnRND5tOManactcenrP+JeJt+XHyp79mzvmHnfR8NpOXVazS6fHHffUanFir8b3r2+pZzm3y3+AaDrRTV31eSOzq6PDe1ZnwjLeKY5ifvVm0etrQ4hxHJqbzmy5cmXJPflzZLZLz6dpvebWmPe66NycWtPqViPjM7z3c0Oi6HzUaSm06vUZcs+2uOIx16t55dp64mrMzm/5RnNabV0HCqU8MutzdeY8J81h6sTHtyQslzb5WnMHE5tF+KZMGO39TocdNNWPVF6V+cTHo+lllaCBG31ma/Teezm+Toeg8juD6LacWlxzaPvZI9Lbvvvt2RDtcT4tl1VpyZs2bLeZ3m2bLfJO/jve1nV/6/63/kDEmZnpnf5twpStI5NKxWI6IrEREdkcwAouAAAAAAAAAAAAAAAAAAAAAAAAC+PkddIn9Dcx6Olr9XT8Q/zLNvO1YtlmPMWnw2ybR+9Cxz6aTVWw5MeakzF8V65cdo74titF6T6tprEruLJ6O9bx7JhE8V0FNfpM2lv0ZcdqdUzH2Z7J2luziUqK6H+eK8b4Pw3iVZj9Pgr5yPC9axXLHutEq03b9W0WiJjomN3wTqMFsGW+K8bWpa1LR7prO0+KQHpYAAAAAAAAAAAAAAAAAAAAAAAAAAAAAAAAAAAAAAAAESkBbzpb4fviwZ4j6l+rb2Xjs/GFr9l9edeH+f0eenpivWr7adqxMPjvzq8P/Z+LRqIjauoxVt/PT7FvCKz2uicAzcvBNP7lp7p5/qkBxZs4AAAAAKACuxuCN3pcM5bz6rbzeG8xP25r1ae3rTtE+7dl6bR59VeMeDHfJaebk0rNp8IWr5aY43vMVj3zOzzkTK4PC+iO9tpzZor+rjjefZ1p+jH8Mqw4XyLptNtNcUWtH28n0p9vb2R7odT4V5sOL6za2aKaak+3JO9+zHXeey01QGfjunx+rvefhzR3z+kSs9w/l7Pqf9Hhvb9bbq1/ittCruGdE2S205ctaR92n0p+M7RHwldPFSIjaI2j2ObsXC/NTwvTbW1VsmptHsmeRj/LXnmOuzXc/Hc9+akRSPhzz3z9FK8L6PdNg2mcfXtH2sv0v7P1Y+CpcWnrSIitYiI7oiIiI90PqOraHhOj0FeRpcGLFH+SkRM9c9M9sygsufJlne9rW653cdk7JEssAPnNgfQWL6ZfK24Zy1NtNN7arW17J0emms9SfDNl36mLv7p3t6mKHO3l78Z105K6amk0OGeysY8c580Rv6c2aepvMemmGkx6+9gZtdixc0zvPujnlvfCPInivFKxkxYvR4p6MmaeRWY98RtN7R8Yrt8WxnW6+mGJvfJSlI77XtFYjb1zMQtPzp5WXAeEb1ycVxZcsdk6fRVvqsm8fZnzNbY8c/7S9Yay+aukXX8VtNtXxDV59++uXPeaen+ri0U2/dmVORCKycWnopXb4zP6R9XVeH+afHG063VWt76YaxWPjHLvvMx/LDOPnH5RnHXrU0HCsl/u5tblikd31vN4ovPZPo60rFc5eWRx/ifWrGv+a4rb/o9DjrinafR56ZtmiYj0471lZIRmTW5r/emOrm+XP4ulcP8AIrg2h2nHpqXtH3s3/VnuvvWOysO5xXjWbV3nJn1GfPee22TUZ8mW0+ubZL3mZ9sukkYUzMt1pjrSIrSIrEc0RWIiPAAeXsAVVAAAAAAAAAAAAAAAAAAAAAAAAAAAAAAABRnZ8nf0g+e0vEuB3v8AS02Suq0sT/q9R1q5ax+zkpvt6ItHizLaovJZ5+/oXmPhuebbYdRf5pn3ns6uo2isz6Iit+rP/wCW1us77S3DhuXl4Yj215uz2PkDzj8L/Y+L2y1jamprGWPdy/Vv32jlT+JzASrlgAAAAAAAAAAAAAAAAAAAAAAAAAAAAAAAAAAAAAAAAiUokHzz4+tE18YmJ98bMfOL6PzOfNi+5ktH47x+EwyGtVajpQ5enHl+d1j6GTaMk/dtEbRM+HWhw3zrcIvq+H49Vjryp01977RzxjvG0z1RaImWzcB1EY800tO0Xjm646O/nUKIS+RZh0QAUVAffR6DJnt1MeO97eFKzO3tnuj2yv4sN8topjra9p5orWJtMz8IiJmVu14rG9piI988z4I3VvwnoqzZdpy2rjj7v1rez7sfGVacJ6O9Np9p835y8fayz1vhX6sfB1DhHm14xr9rZKRpqT97NO1tvhjje3fsgtRxrT4uaJm8+6vR3zzd260nDuA5tTMebw3t+tttX29ado2Vhwnokvba2bLWsd/Ux/Sn+KYiI90SufTDFYiIiIjwiOz/ANH0iHauE+arhml2tq7X1N459pnkY/y1557bbT7Ya1qOO58m8UiKR8Oee+fop/hXI2n0201xRa0fbyfSn29vZHuh71abbeDmOuaPh+m0VORpsWPFWPZSsV+UNfyZb5J3vabT8ZmUCRILSEgAAACAN2JPlneUtbg9J4Bock11+fH1tXqaT9LS4skdlaTHbGbLEzMT2TWO3wZU8X4jGmw59RbaK4sdslpnwpWbfyadekLmrJxbifEeI5LTa+p1N8kzM77RvNMVPV1cdaR7oRPEdROKkRXpt8va615uvJ/HxPW2z6ivKxaaK25E9F8lp+xE++I2mZj2zt7N3gXvNptaZmbWmZtaZ3mZmd5mZ33tMzvO8+mZ98A1B9cRERzR7OYAFQAAAAAAAAAAAAAAAAAAAAAAAAAAAAAAAAAAAAAAAHLFlmlq3rO1q2i1bemLVmJrMeyYifc27dBHPUcc4FwniO/08ulpXPHpjLjpGPNWfXF6zPvah2dvydvPfnNLxHglr/S0941OCsz9jN2ZOrHftF4/tJnheXk5Zr7LR4w435z+GftPDa6qsfa014mZ/wBO/wBm3dbkyzLAbY+UAAAAAAAAAAAAAAAAAAAAAAAAAAAAAAAAAAAAAAAAAAEbOvrtDXNS2K9YtS0bWrPr/wCTsoW8mOuSs0vEWraJiYmN4mJ6YmPbCsTMTvHNMdC0vMXRhkxTN8H6Snb+jmdr19Uei8fipDUcKy452thyR7cdvz22ZEbI83HhHwcR4r5qOH6rJOTS5L6blc80iIvjifhEzEx1RbZsun49mxxteIvt7eie+Pox2x8PyW7IxZJn1Y7f8nv8K6PNTn23pGOv3sk/+WO2fwXq81EeiPgnZiaHzRaHHblarUZc0R92sRjrPXtyrd0wuZfKHLaNqVrX4+tP6R4KJ4P0XYMW1slrZbeE/Rp/DE9vvmVYaTQ0xVitKVrXwrER+T7xA6/wzgWg4ZWK6TT48fN60V3vPXed7T3tfzarLnnfJebdc83d0I6iYhInmKghIAAAAAAAAAiUoBSvShjm3CeLVrv1p0WaK7ePmrNOdq7TMemJnf49rdfrdLGXHkxTH0b0tS3stExP5tPXStyhbg/GOKcNvWYnT6q8Ujxpk/S4bRPpiaXr2+MT4Nd4tSdqW9nPE9vP+j6G802qrE6vTTP2pjHkiPbMRvW3dM171KANcfRoAAAAAAAAAAAAAAAAAAAAAAAAAAAAAAAAAAAAAAAAAAvz5EfMM6TmvQY9/o6vFm094junfFbLj39k0mVhV6vI44LbVc2cImsTtp5y6i8xvtFaafJXtnu7ZvEMrS82am396Pm1nynrS3CdZGT1f2bL0++KTMf1bNptZS41cm9vhJIAAAAAAAAAAAAAAAAAAAAAAAAAAAAAAAAAAAAAAAAAAAAAAAAAAAAAAAAAAAAAAAIYFfKFdHHmdXoeP0r9HU1+a6qYj7eKJnBafXNN6+6Gey1nlJdHf9Pcv8U0cRE5q4LajSzt3ZdPE5ccd289aa9XaO/dh6vD6XFavt23jrjnbh5JcVnhnFdPnmdqTaMeT3TTJ9md+qdrdjU0JtWYmazG0x2TWe+sxO01n11neNkNGfcUTExvHtABUAAAAAAAAAAAAAAAAAAAAAAAAAAAAAAAAAAAABG4JHo8A5a1HEcsafTabPqMs/1eDFa8xv6Z6sTFY9dphkf0aeQNxPiHUza/Ni0GnntnFExm1VonvjqV/Q4JmO6bXvPjWGRi0+TL6lZn4+yO2Wv8T49oOGV5Wrz48c/3N97z1Urvae5jFp8Nsl6YqVtbJe0Vx46Vm172tO1a1rETNrTPZtENjPkZeTxfl7TX4rq6dXiGtpERhnaZ02H61ccz/rLz22jt27I9HbcHom8mPhXLPVy6fTRk1URtOt1Exky+vqTMdXDE+GOK+iF2K1bHo+H+hnl3ne3sj2R8et85+WPl/wD2rinRaKlseCZ/6l7c18kRO8V5Mb8mvtmN5mfh0OYCacYAAAAAAAAAAAAAAAAAAAAAAAAAAAAAAAAAAAAAAAAAAAAAAAAAAAAAAAAAAAAAAAAHDJSJiYnunsmPb3ubjaOxQaoPKg6PP6C5h4hpq16uDPb53puzs6uombWiP2b9aPgtQz1+UK6OvP6Hh/HMdfp6K9sGpmI78Woms1mdvRTJWJ9USwKlpOtw+jzWiOieeOqfp0PtvyM4r/aXCcGWZ3vSvosnv5eP7O8/irtbtAGC3gAAAAAAAAAAAAAAAAAAAAAAAAAAAAAAAACFQcndH+t41kjDotFqNRffaZxY5mlf28k7Y6beEzv6pVrWbTtEbz8FjNmx4KTfLetKx02taK1jrmZiFPJiN9o9M9m35R7Z8GXHRx8ntq9T5vNxPW49NjnabaTSxGbPP6ts1tsOKf2a5O/0Sys6N/Js4Py/FbafQ47Z4/7XqI89m9sXydbqdv3dkth4blvz2+xHx557vq5Zxfzk8M0W9NPM6rJHsx82OJ+OS0f9sWa8+jbyXONcf6mTFoL4NNbt+ea2tsGOYn7VKXiM2WPTE1p1Z+8yn6OPk99Bpurl4lqc2sy9kzp8NrafTxPhM47RnyRPrvWNvRLLeMcR6ExXZNYeHYsfPMcqffb6OK8X84fFtfvXHeNNjn7uHmtt8ck/a/LyY+DweVeRNHwnFGn0mj0+nx1jaKYMNaR2ePVjefbL24o57JScREc0czmmTJfJab3ta1p6bWmZmeuZneUJBVbAAAAAAAAAAAAAAAAAAAAAAAAAAAAAAAAAAAAAAAAAAAAAAAAAAAAAAAAAAAAAAAAAAHHZyQClOlDkynGeFcQ4besTGowXpXeN9rdWZxzHri20tPnEuH202bPprxMZMGW+HJWe+LYbzjvWfZNZbrMnc1i+Wp0ef0TzHqNRSu2DiVfndOzsjJP0dRXs/WiLbetA8Vw71jJ7Y5p6p/5d481fFfRanNobTzZa+kxx/npzWiPjNZ3/AJVhAGsPpsAAAAAAAAAAAAAAAAAAAAAAAAAFAESKpFX8gdEPEuYLxXRaDPmpM7fOOpNMEejt1F9sc7emKTMx4Mo+jn5O61+pm4pxCax320WgiN58a31OSs7RPdPm8e/haGXi0mXL6tZ29880NS4r5VcL4XExqdRWLx/Dp9vJPw5Nd9v5to+LDDBgtktXHWtrXt9WlKza0+qKxEzM+5e3o38jnjfGppktpfmWmt2/ONf9C1on7WPTRM57Tt6MkY49cthHR70GcL5frFdHw/Djv6c9q+czW27N7ZsnWyTPvV9Cbw8KrHPknf4R0d/S4txfzq5r704fhjHHsy5ftX64pE8mO2bMYujnyDOE8PimXW+c4hmjtmuaepp4nv28zSY85HqyTaJ9MSyM4JwHBosVcGDT4cOKkdWmLDipjrWI7oitK1iIj2PTEzjw0xxtSsR1ONcR4xreI35erz5Mvui1p5MfhpH2a9kQ47J2SLyHAAAAAAAAAAAAAAAAAAAAAAAAAAAAAAAAAAAAAAAAAAAAAAAAAAAAAAAAAAAAAAAAAAAAAAAAAARZi95fHR98+4FTidKb5eG5q3tMR2+ZzTGPL6O6m9ck/ssoXh858u04lodZoMkROPU4L4rRMffpMRPunafdCzmx+kpanvjx9nim+CcQtw7X6fVx/CyVm3xpvteO2szDTJuPT5n4Bfh2s1ehvExfTZ74bRPf+jvNYnt+9G0+95jQZjadp9j7zxZK5KVvWd62rFon3xMbxPbAAougAAAAAAAAAAAAAAAAAAAAjrf9f9fl3rn9HPk28Z5g6ttPw/Lj08/9s1dbYMO0/ap169fNEx2746TX9ZcpjtedqxM9XOwNZr9PoqTk1OXHirHtvaK92/PM/CN5WxdzhPBs2tyRgwYM2bLPdiwYr5Ldvd2UrMx7ZZ0dHPyemkwdTLxPWZdTeNpnS6aZwYd/C14/T3j9m1N/Xuyc5N6NdDwXFXBo9Fp9PSOzbFirWZ9dr/WvafTNpmZS+HheS203mKx3z9HI+LedHQafemipbUX6OVP/AE8UfHeftz2Vjra/ejfyFeMcUmmXVeZ4fp7bTPn7ed1ExPbtXT45mtN+79LkrMfdnunKjo38ifg3B/N5MmD59qK7T53W7XpvHprgiIxRHqmsr/1x7OabxaHDj54jeffbn/4cW4t5c8W4lvW+b0WOf4eHekbfG283t222+DraXQ1w1jHSlKUiNq0pWK1iI7oitYiI28IfeIchnbbNBmZmd5559qNiISKqAAAAAAAAAAAAAAAAAAAAAAAAAAAAAAAAAAAAAAAAAAAAAAAAAAAAAAAAAAAAAAAAAAAAAAAAAAAAAAD52h9HEGtfy7OQP6N5g+fVrth4lgjNvEdnncUzizRPo3mIx229rHBsk8u7kL+keAfPq03y8NyxniYjeYx3+hm90Rtb3NbcNM4hi9Hmn3W+1Hb/AMvsvyA4p+38IxRad74JnDf3/Y9TvrMJARrpAAAAAAAAAAAAAAAD66XS2zXjFSl75LTtTHjpa17TM7REVrE2mZ9UEc/M8zaKxvaYiI6Zmdojtl8kL79HHkY8b4z1cmTTRodPbafPa76OSYn0001Z87/xfN+jbdlL0deQdwjh3m8us87xDNXtmue0008T2f1GOaxkjffsyzaJ9MJHDoM2Tn22j325vDpc+4t5d8J4dvWcvp8kfw8G153+Nt4pH5t/gwB5S5D1vGMnmdFotRqb77T5nFNq18Yvk7MdNu/abROzJXo5+T512q6mXiOsxaTFPbbTaaIz6iY8JyW2wYZ9cRl9kM9OC8vYNDipg0+nw4cNI2piw4qY61iO6IrSIiHobJrDwvHXnvPKn3dEfXxcW4t5z+IanemjpXTU9lv3mX80xyY7K83vlaTo38l7g3AYpbDoaZdRTaY1eq/TZd47d6zfeKbT2x1Ijb0LtVxx7vCExCYS9aVpG1YiI+HM5Jq9bn1l5yajJfLb+9e02nqjeeaPhHMjqJ2SPbDREJAAAAAAAAAAAAAAAAAAAAAAAAAAAAAAAAAAAAAAAAAAAAAAAAAAAAAAAAAAAAAAAAAAAAAAAAAAAAAAAAAAAAAHjc2cv04jpNXoskb49RgvhvG3oyVmvp7OyZiWnHmTgV+H6vV6HJExk0ue+C+/fPmrzWLfvREW97dLZrU8ujkP+juYZ1laxGLiOKM0TEdk5Me1Mvtmfo2QfFcW9K3/ALs7dk/8u4+avifodZm0Vp+znpy6/jx9PfWZ/LDHQBqz6iAAAAAAAAAIFAevy1yfq+KZIw6TSajUZJnbq4MNr7T+taI6tPbaYZH9G/kAcT13Vy6/Nh0OGdpnDSa59TMeE9SfMYpj9rJ7IZGLT5MvqVmfj7O/oa9xPyg4fwyu+q1GOk7c1N+VknqpXe3ht72LEzt2/ir7o96CeK8wTWdHw/NbFbu1WWvmtP7Yy5IiLx68fW9zYf0deSHwXgnm8kaKmq1FO7U67bPMWj7dMd4nFjnftia13j0SvNg00Y4itaxFY7qx2RHqiPR7ITWLhXtyW7K/X/hxvi3nWrG9OHYJmfZlz80dmOs799o6mFnR38nXWJpm4pxC1/TOi0MdSvo+jfU33vaPVipSf1mUPInQ1w3gNIpo+H4MUx35YpFstvXbLbrXtM+MyrdGyZxabHi9WsdfTPe4zxTyl4lxSf8AxWovav8Ah1nkY4/krtE9u8/ErCRLKawAAhIAAAAAAAAAAAAAAAAAAAAAAAAAAAAAAAAAAAAAAAAAAAAAAAAAAAAAAAAAAAAAAAAAAAAAAAAAAAAAAAAAAAAAAAAAiWLvl98hTruB4uJUrvl4bqIveYjt8zmrOLNv+rWZpf3Qyi2eVzNy7j4jpdVoctd8WpxWxZKz29l6zE9nq71jPj9JjtT3x4+xNcF4jbhuuwauv8LJW0x769Fo7azLS6Kx6XOjXNy3xTV8LzVmPNXmdPk2nq5sNp3xZazttMTWYrPhaJj0bzRzQ7VmszE80xOz7v0upx6rFTPitFqZKxasx0TExuAPLKAABEzt2q95A6CuLcfmvzTh2e+O3/acseZwR+t53JtFq+nekW39G73WlrTtWJmfhzsPVazBpaTk1GSmKkdNr2iseM+EKDlOLHN7Vx1ra17T1aY61m1rTPdWtYjrWmfCIlmx0c/J3bdXLxXiHWnsmdHoImtY3jtrfU5Ii9/DfHjx+9lJyB0J8L4DWsaPQYMV4jqzqOpFs1vHrZrb3nf09sQlcPDMl/XmKx3z4fVyji3nO4bpd6aSt9VePbX7GP8APaN5/lrMfFrw6OfI943xrqZJ0vzPT27s+u3x2mPGuniJyz7LxVlH0c+QDwvQ9TNrsufX5o7ZxWnzWmif9jj2vkj1Zclqz92GUsY4g6ibw8Pw4+fblT77c/h0OM8W84HF+Ib1rk/Z8c/cwfZnb43ne89kx1Q8nl7lLTcNxV0+m02HBirG1ceHFWlYiPVWI3971ohOxEJGI26HOL3teZteZtMzvMzMzMz75meeRIKvAAAAAAAAAAAAAAAAAAAAAAAAAAAAAAAAAAAAAAAAAAAAAAAAAAAAAAAAAAAAAAAAAAAAAAAAAAAAAAAAAAAAAAAAAAAAAAAAAjZIC0PT/wCT7pubtH5u+2PW4azOi1sV3tjmf6u8Rt18V52iazPrjua2Okzof4hy3ntp9bpclK7z5rV1rNtPmiPtY823VmZ7JmltrV9MemdwjpcY4Ni1mO2HNhx5cVvrY8uOt6z7a2iYRmq0NM/2vVt7/f1w6V5L+XGr4JHoLR6fTzO/o7TtNPfOO3Ptv7azExv7paVRtI5g8jXl7XWm9uGebmZ3n5rqM+niZmd5nbDkp3vlwbyLOXdJaLRw2ckx2xGq1Wozx6uzLltHxRH9k5N/Wrt2/LZ16POrwz0e84dTy9vV5OOa7+7lek8eQ1pct8oavimSMGk0ep1OWe6mnwXybdu29rVrNaVj02vaKx6Zhkf0ceQFxLXdTLr8+LQ4p2mcNJrn1G099bbT5nHb2Tf2s/OBcr6fh+OMOn02HDjjsimHFWkdnqrEb+2XrbM/FwvHXnvM2n3dENC4t50ddqN6aLHTTV6OVP8A1MnZMxFa/lnrWQ6N/JA4JwSaZY0carU12mNVrpnPaJjt62PHb9Bin10xxPrlerBp646xWta1rHZFa1iIj1RERtD7IS9MdaRtWIiPhDkms4hqdbf0mpy5Mtvfe0226t+aI+EbQjY2chcR4AAAAAAAAAAAAAAAAAAAAAAAAAAAAAAAAAAAAAAAAAAAAAAAAAAAAAAAAAAAAAAAAAAAAAAAAAAAAAAAAAAAAAAAAAAAAAAAAAAAAAAAAiUgI2NkgISAAAAAAAAAAAAAAAAAAAAAAAAAAAAAAAAAAAAAAAAAAAAAAAAAAAAAAAAAAAAAAAAAAAAAAAAAAAAAAAAAAAAAAAAAAAAAAAAAAAAAAAAAAAAAAAAAAAAAAAAAAAAAAAAAAAAAAAAAAAAAAAAAAAAAAAAAAAAAAAAAAAAAAAAAAAAAAAAAAAAAAAAAAAAAAAAAAAAAAAAAAAAAAAAAAAAAAAAAAAAAAAAAAAAAAAAAAAAAAAAAAAAAAAAAAAAAAAAAAAAAAAAAAAAAAAAAAAAAAAAAAAAAAAAAAAAAAAAAAAAAAAAAAAAAAAAAAAAAAAAAAAAAAAAAAAAAAAAAAAAAAAAAAAAAAAAAAAAAAAAAAAAAAAAAAAAAAAAAAAAAAAAAAAAAAAAAAAAAAAAAAAAAAAAAAAAAAAAAAAAAAAAAAAAAAAAAAAAAAAAAAAAAAAAAAAAAAAAAAAAAAAAAAAAAAAAAAAAAAAAAAAAAAAAAAAAAAAAAAAAAAAAAAAAAAAAAAAAAAAAAAAAAAAAAAAAAAAAAAAAAAAAAAAAAAAAAAAAAAAAAAAAAAAAAAAAAAAAAAAAAAAAAAAAAAAAAAAAAAAAAAAAAAAAAAAAAAAAAAAAAAAAAAAAAAAAAAAAAAAAAAAAAAAAAAAAAAAAAAAAAAAAAAAAAAAAAAAAAAAAAAAAAAAAAAAAAAAAAAAAAAAAAAAAAAAAAAAAAAAAAAAAAAAAAAAAAAAAAAAAAAAAAAAAAAAAAAAAAAAAAAAAAAAAAAAAAAAAAAAAAAAAAAAAAAAAAAAAAAAAAAAAAAAAAAAAAAAAAAAAAAAAAAAAAAAAAAAAAAAAAAAAAAAAAAAAAAAAAAAAAAAAAAAAAAAAAAAAAAAAAAAAAAAAAAAAAAAAAAAAAAAAAAAAAAAAAAAAAAAAAAAAAAAAAAAAAAAAAAAAAAAAAAAAAAAAAAAAAAAAAAAAAAAAAAAAAAAAAAAAAAAAAAAAAAAAAAAAAAAAAAAAAAAAAAAAAAAAAAAAAAAAAAAAAAAAAAAAAAAAAAAAAAAAAAAAAAAAAAAAAAAAAAAAAAAAAAAAAAAAAAAAAAAAAAAAAAAAAAAAAAAAAAAAAAAAAAAAAAAAAAAAAAAAAAAAAAAAAAAAAAAAAAAAAAAAAAAAAAAAAAAAAAAAAAAAAAAAAAAAAAAAAAAAAAAAAAAAAAAAAAAAAAAAAAAAAAAAAAAAAAAAAAAAAAAAAAAAAAAAAAAAAAAAAAAAAAAAAAAAAAAAAAAAAAAAAAAAAAAAAAAAAAAAAAAAAAAAAAAAAAAAAAAAAAAAAAAAAAAAAAAAAAAAAAAAAAAAAAAAAAAAAAAAAAAAAAAAAAAAAAAAAAAAAAAAAAAAAAAAAAAAAAAAAAAAAAAAAAAAAAAAAAAAAAAAAAAAAAAAAAAAAAAAAAAAAAAAAAAAAAAAAAAAAAAAAAAAAAAAAAAAAAAAAAAAAAAAAAAAAAAAAAAAAAAAAAAAAAAAAAAAAAAAAAAAAAAAAAAAAAAAAAAAAAAAAAAAAAAAAP//Z;" vertex="1" parent="1">
          <mxGeometry x="2804.5" y="240" width="80" height="80" as="geometry" />
        </mxCell>
        <mxCell id="ZWZFDb_ZpwZTJIpMt9Q7-18" value="" style="shape=image;aspect=fixed;image=data:image/png,iVBORw0KGgoAAAANSUhEUgAAAR4AAACwCAMAAADudvHOAAAAhFBMVEX3mB/////3kwD3kQD82bn2jwD3lxn+7d73lhT84sv3lAv/+/b81bL3lRD//vz959P+9+/6v4X6w4370Kf5uHb3nCr4p0z5sGP+8+j6yZz3miP6wYr96tj6xpP817T838T5smj4oTz4oDf4o0H4qVL83b/5tnH6u3z5rVz5smf7yZn2hwDpyfC5AAAQJElEQVR4nO1dCVfqOhDGxMZSKIsogqIoyqLv//+/R4FkZtKkNAtLvX73nHuO1kL6dbZMJpPWzR8q0Lr0AK4b56an1ynQO/O3euNc9NwtR8Onz8eU8WT7j+XPH5v1z+2sc6av98UZ6Jm8rT8SvqUkFaIlIUSaZ1uuxGrUv2JZOjE9nduH1pYYoEWHyBlnm9HktMPwxinp6XS/El5BjcJW5R5f7044Em+cjp75N2fpcWqkFGX8Y3R9WnYiejrTlNfn5sAQ4+trE6GT0DMYclZDp8rI+aZ/igF54wT0DNZJ5sPNDikfXxNB8el55f7kFBD86Xr8WGx6bjMWRM5OgpLhtRjpuPRMxtzL5uhgYh51XN6ISs80cfVWNgj+fRXzjYj0DMY8EjkF8vwaBCgePUvnQKcaIhlGG5s3otEzjCk6e7DxxRUsEj29qIolkWazOMPzRhx6Jo/5CdgpLPQyyvi8EYWemd8Uog6SUYwBeiMGPe04wY4Z/D7CCL0RgZ55cjpyCn4u6cDC6WmfwihfCz/B9PRPKzs7fl5jPKkXQum5O7Xs7Pi5mH0OpGdwOp+FkVzKvwfSs4g7kbCCXyjLGkbPJizzVR8ivcz8Ioie6TkMzx75V6wndkIIPWdwWoDLhIcB9PTSs5hlieQSKfoAer5PMw21QaQXSED707M8n+HZI3uI+Nw14U1PL3xFwhVJO+aT14I3PQ/n8ukA8RzzyWvBl57ZuVWrALNMvk5nlHzp+Tyr15LgAzKIXn803Cye0zx9XnytR+34oaMnPbeXEJ5tcLiCIdxNx4kqOSuKzRhPPmNXCXnS83gR4YG5V2/0aSoCERlfTGPKkB893csIT6uVPhVf37m3F8gIlgwHx8Z/YnqeLyQ8W+e+FZ+fIzUgWbwJiBc9F7I8BfJVv3U84mJZpASRFz2XcVt7pLUScIKvjj/GiejpX0546iN7jlFE5UPP6rxzUU8IHmEO4kFP55xpnhAkt5egZ3T+yagnwvnxoOeShtkRSWgJlTs9kyYYZonQFQ53epqjW1uIVths3p2erzMtbcVB/nReejpN0q0t+NtZ6Zk3jJ4WC5nBO9Pzcv4kahiy9Tnp+WiOWz8gCZhduNLTNNPToinGU9PTiOmoBu4vPq70NCrqOSDzz4650jNsxGxdQ342esaNs8xb+Kc2XOm5XJY5ALm3b3ekp9eUXA+B/+qzIz2Nmq4DvH2XIz1N9OtbcN+8mCM9Zy/qiQNv1+5IT7eBYU9LLq6enp4mRoVbiMV56Jk2k54WOw89P01LZxyQnIee14bSk69eu22Pwo1/RLlaRScu/rwaOa5c/CPSs0fRiUu8uOxudqFnNhRNFR6AyPjjtLaa1afnbVGrD1gDIFiyqilCdenpPp9yu7E30oxLVPW3KyHnm1pWqB497cea5AiOoGsiXNE/DN1WSrcx6105z5+my7vJoNOZ3LW7Q2M1pg1p8l5DxerQ0/muKzli028DtBkIVxf6X/TzxFjd1tfTkXyuLtFy2Iyv9T06g27d11gg5z8x6Lktv1EbGN0TS90cKge4p1eyF7hHW2YUj+pKD19J+atx9Xz57OBb2eMxE3ScngeHSbqWV3kny/EMlnPfqFyxLtyjZZTSjbqCkyns05rBeXcYrzhWw3qMnsHCwZejV70D1a4ctutrOzI41hKaj0SChabDvCo7+uKSdGEflRboCD2zzKUeAytJASoJYqwuaPV3ZKsEra5CgvWgdJxr36Ph3WU1JWVVJVLV9MzdvHlpRYAm7jPLBSHwPQ/k4ThYB2WZs/fKQd/cCKdRJ1NPepaOiXemW8s1fVSwzU9YKGmyiqaUQLDU8rWWWO/M2n0thnEsS0/sqlpFz60jO+WcHB0ng4wvmbvRVCdtWQISpywzx9rQXSRFSJQ8EcF1XG7i1mRiBT3OjWeUW1dCNKCPCjTcYhFhpEKJ3IMcl5Qq8Ql/2/mU2p8muNDANS3FbLvk7fS47/dTbn2pvO6C2BgYBOlMwmn0gW9BjEqbhPtl4Z5ceJuA89gzCz9Wetybh4Bbf1FPQIulIKVJ6mASarLwOjVyXJJpZOCGxEzhje7OmQW2uTHBSo/7hjZw65/qndMYGEWN6OP1aAlPKyAikoQiA6fVGqXf8BnutdfMWAVko+fbPe+l3HovUREOXXRGeoECat2i42AyUYWB0jIzcMO6g0IJ5ZV7+ayxiZKFnpHHcp9SnTaHgZKKjgxGgIxnpo0LTR6QYEnLjPyWXuaIAgefOhvTFgMzPT49nUAIphnoBPEhyA+h5VamDQu5LnSDssyW4KlF5iZeKyqGEnozPQuP1BfM1r9S0AC6KJ+aXoDaPiuvIcECxyWNFbJfG50eECwvegyFHEZ6Xn1SyjBuht+6JQZGM09ZeDyXdgYeGyIiZYbRR5SkB0LDqdeSQVYyzyZ6vKpUwEwUAgPlauQZ0PtVAqpunMrwB7JBEBFBzAzSs9YNDE8kPBdUSj1ITfSMfXZNgFsvjCioMZlCZZCfU1sKUznBXEkbBNkg3il9DKLnBPUQegm9gR6/IhWQ7EI3IJwjVh6FJmpBUVH2IT0YxLxgq9Q8HoXYA6+BVkKvgTbQ49fhgKv7Of0arAHI+KmAUQk0k2KksqYoIlK6iCuZ1vHFR8vJlOnxCXnwk+zevYDPJfmbRBlWZeCkHk4SVWUiuYCICAJkEiU9Rt88pZW6lOlxyyVJgFvfWwkwESSvDC9HtUeSIWSbc+naZUgNjgviA5Rz3LL2GH1Rm6O8t4Eez/YYQMf+2SDWI34QTQkOe1dUfmLElFmRUQvYGZxnJsnhVRJ5dZKmLkv0+ESEJPrf34/y7tiWIZt0UDr1m3WuKJXOAWZcSEMZzX32PyO38CcNWnV6PNsLQ3h78FRIh/H8B9nmg0Cop/0U6kPkZwDnmGKUst4T9O15YJEZJHbW6dEj0ZoAmyKDEQhZSKAAvz64LhUpJijW3l+Cn0nqIiv1bx6MPpIsGkM4NtToGXhWvYNbl+EeBMhk1QamjQebJI1W8aOSi72Gg0jSmZtpd/rd63P9xdxqYOOv0eNZeYoCFDlG5IBxbgotM+9Zk5QUwqREa88xmHdtWObd6f11JCVDH6/R49nhAIJk5afQO8DLEjn0ZtylgsTH4aciilaitQ+pwXHRtS9795DuIkaZDXqzlB7fLROmKAf0DZt7RcdhRqnoKgRGsby3S2CnSu7UWlyxjFDAhlwCpcdTt5CbQiu9ysqQBpmQd999mVK2ggEVDUxo5G3YwMo/bMUVTkvsZoB2UXq+/fwWWlsHD4ysDM5bgcbshEpa8B2FsNJT/AQGzbTRRfBvS31X+LEZEFpRejwFE0wB0k5krnG5L7C2m3Bjx4XkpbBLYALMQp0mX+YOYZNQCw2vidDje2wAmBm8+gkpMbwqh3bmCXTrPjhSE4bCLoHjerC47JSnQ1MX5+DjD9Tsj9Dz5unWIYuDE3jIP6LPRbZ5KyLKv+2nWUoMdyk1pYYVKZac54ZCZb+sAxq6/EhCz73f/BctZeIHQb/GFTfqzRSzDSVL+79QmlfYJWXEj3Tjyvjjvc5QYAsmlSog9HhaZnDrJOhGIQ5Oe4JQbX9LHBfSvK1dAnd4dAti0QuUmqHAk2mU2SP0eM7Wwa3fJgzAIRWK4ymSxFHatOcVYskMmfY64YbgY5LoaAWJTy4Tl4Qev49Ei1H9LgY6AhopHaQ6tiIibbE0pmp5dZOC47JZZoqUYUcf1ihGvSZMj2d/8zqb6JHJRrMNrnJP0uMpPX3JwHHVFGqBlxnC2gwphcD0dDzpOc4OSWpAGcsmk1TJaZma53eZslG1m74olbgJ3VGuphXh9NTaxoptNtjmF3X0lsouS1Pd52rGRS0zbKIo+xHUqacXplwyJRZODyO5axuQgoDWdBN5rywGVN6uk6ikHV1InC5v91iWM3c4z+rzKAoR6anXYeDFVFfQ/+8Q80LV6Ye89qyEklhmtApYLlJBS/thrisePTX3QCNTCTOazn8HxwWzDlUat1GOi8TMqEilTA9OEwf1QolHT80GAx2jbZaREUzVlCwOZXikFZhV0YPrw65EepBbb/9MNaA1EbRHCdRRWmZUkyGj367kgVpmVONhiBYRPUFhodFzecU9yK0/8YyCwUIVLkiCpQBpSCAhpAoS+vJWygLKIhlKJVDpa1DSUJnA0KgZl4OWfSl610gI9GJCbF7Sd/0ajZlR5q1coIFMc2DcY4qafXoSIrduqLXGhslYMXh41WBe9CpePWZGpePlaLpatByglm4JPfUmNwTIrRtaAKDkDlpgpMvYN9S86O0c9JgZKXOpHABy94Et4JSKE3rcexxgt25qxYsGbK0isOU7ytTtrqP0oCY+eHU87BgWZR0JPe5ZEqQ9PdPNyPjgWlRtmRNPr/UyXt0/4TZpNKnMkRkMPABK6QShx71JPnbrphHh/YEQiWTaBjO8kqHb7ZLC401jE9h5nCd4i2DgYQgqU0VXKpy7EiJLYczEYuMDD6rPYvGz6NfK9pesAL6ND3vmV1gpAzvAQZ6T0vPjaHywWze7PWR8UKI/Jd9KPLTmugydADmtHu3M5su5lmsO7EgOgRmlx3UFBLl1S5koqgZBr5TaZi0u7tiv7ZAePcH1J3ShQumvVoLgGPkgt24JNFCVGPImNMFI65PJrm1jnvnIRuTgE45QWi2ogAW79VKJevlPIBahBXA0RqFbJ42hWPXm/G5oZ0708jR6jN7ZChwU2wINpEcgYLS6mnbUoCkAc56Z27dq91ahS6TY+unFc04rgUgPJrZXhowPBMDU/lI7SqYctjxznlr6WI5YcI0YLt3V6XEqxOd3CtYtMPnDRP7NBCwbn8GtuvUVE7h2a1N2wRej0hECs/ssQnUPnvKUCnfvXb4A2u7YhS43tu3BfX7sn1pqAYQfgyWf98vZoNPr9TqD2Xz6zo4cilcP5GCLEj0XOMzXG6JoJ8fZ7n/O4pQ30+RwedPAW/x9Lk0CPdfcsCPHazvXb4F2bLeBnhNsk2oM9BOZTLsBL3Yo6+WRaMVmxq22q0b3tgxAaau/eaN2/G1kjUBeaqRhpmcQbwNHg5CWlgFsTSJmjTxwIQwiL3dZs7UYCSzOayCEqZbC2qDGufdTwyGM23zs3Z/Ca++bBMGMWxAqeof1/yF+UmGuUqrqPDd5buJpUz7IPiznK1b2LeyN/w0DbU8+HmkKeh97m/gVQvCR9fmPtZRtZ79dwdhjRd/vow2Je++/2kILXtr27UTPNgL6BecL2MAX1Q2ta/WK/4mSxL0+sMxudRzouRmsk99ngjJ+f/Q08roHMQzWv0uCBGP3Nc6Srn+Mx+A1i9zr5HLIeWtU6xx7pzNylptYyyWXRMrZe92DSh2PEBp0NwlvcK5MZDx5v61/QrvzgeM3vfnLh+ORK9cAkeaMs/Gr2wG37vTsKOqPhl9pcljovW7sB5m0NsPurJa9CafngMldey63V10vlvP+ncfBbuH0/H780VOJP3oq8UdPJf7oqcQfPZX4o6cS/wOBCu5pQw5qHAAAAABJRU5ErkJggg==;" vertex="1" parent="1">
          <mxGeometry x="2894.5" y="254" width="74.75" height="46" as="geometry" />
        </mxCell>
        <mxCell id="ZWZFDb_ZpwZTJIpMt9Q7-19" value="&lt;div&gt;&lt;font style=&quot;font-size: 24px&quot;&gt;Externos&lt;/font&gt;&lt;/div&gt;" style="html=1;shadow=0;dashed=0;shape=mxgraph.bootstrap.rrect;rSize=5;strokeWidth=1;whiteSpace=wrap;align=center;verticalAlign=middle;spacingLeft=0;fontStyle=1;fontSize=14;spacing=5;fillColor=#003469;strokeColor=#001DBC;fontColor=#ffffff;" vertex="1" parent="1">
          <mxGeometry x="924" y="1199.9" width="1020" height="60" as="geometry" />
        </mxCell>
        <mxCell id="ZWZFDb_ZpwZTJIpMt9Q7-20" value="" style="html=1;shadow=0;dashed=0;shape=mxgraph.bootstrap.rrect;rSize=5;strokeColor=#006EAF;html=1;whiteSpace=wrap;fillColor=#FFFFFF;fontColor=#ffffff;align=left;spacing=15;fontSize=14;verticalAlign=top;spacingTop=40;gradientColor=#ffffff;rotation=0;" vertex="1" parent="1">
          <mxGeometry x="924" y="1280" width="1020" height="310" as="geometry" />
        </mxCell>
        <mxCell id="ZWZFDb_ZpwZTJIpMt9Q7-21" value="&lt;font style=&quot;font-size: 24px&quot;&gt;SVP&lt;/font&gt;" style="html=1;shadow=0;dashed=0;shape=mxgraph.bootstrap.rrect;rSize=5;strokeWidth=1;whiteSpace=wrap;align=center;verticalAlign=middle;spacingLeft=0;fontStyle=1;fontSize=14;spacing=5;fillColor=#007FFF;strokeColor=#001DBC;fontColor=#ffffff;" vertex="1" parent="1">
          <mxGeometry x="564" y="783.9" width="260" height="68.1" as="geometry" />
        </mxCell>
        <mxCell id="ZWZFDb_ZpwZTJIpMt9Q7-22" value="&lt;font style=&quot;font-size: 24px&quot;&gt;SVE&lt;/font&gt;" style="html=1;shadow=0;dashed=0;shape=mxgraph.bootstrap.rrect;rSize=5;strokeWidth=1;whiteSpace=wrap;align=center;verticalAlign=middle;spacingLeft=0;fontStyle=1;fontSize=14;spacing=5;fillColor=#007FFF;strokeColor=#001DBC;fontColor=#ffffff;" vertex="1" parent="1">
          <mxGeometry x="564" y="928.45" width="260" height="65.55" as="geometry" />
        </mxCell>
        <mxCell id="ZWZFDb_ZpwZTJIpMt9Q7-23" value="&lt;font style=&quot;font-size: 24px&quot;&gt;&amp;nbsp; &amp;nbsp; Sucursales&amp;nbsp;&lt;/font&gt;" style="html=1;shadow=0;dashed=0;shape=mxgraph.bootstrap.rrect;rSize=5;strokeWidth=1;whiteSpace=wrap;align=center;verticalAlign=middle;spacingLeft=0;fontStyle=1;fontSize=14;spacing=5;fillColor=#007FFF;strokeColor=#001DBC;fontColor=#ffffff;" vertex="1" parent="1">
          <mxGeometry x="564" y="1082" width="260" height="68" as="geometry" />
        </mxCell>
        <mxCell id="ZWZFDb_ZpwZTJIpMt9Q7-24" value="&lt;font style=&quot;font-size: 24px&quot;&gt;Otros Canales&lt;/font&gt;" style="html=1;shadow=0;dashed=0;shape=mxgraph.bootstrap.rrect;rSize=5;strokeWidth=1;whiteSpace=wrap;align=center;verticalAlign=middle;spacingLeft=0;fontStyle=1;fontSize=14;spacing=5;fillColor=#007FFF;strokeColor=#001DBC;fontColor=#ffffff;" vertex="1" parent="1">
          <mxGeometry x="564" y="1227" width="260" height="68" as="geometry" />
        </mxCell>
        <mxCell id="ZWZFDb_ZpwZTJIpMt9Q7-25" value="" style="endArrow=block;startArrow=block;endFill=1;startFill=1;html=1;fontSize=14;" edge="1" parent="1">
          <mxGeometry width="160" relative="1" as="geometry">
            <mxPoint x="474" y="798.65" as="sourcePoint" />
            <mxPoint x="558" y="799" as="targetPoint" />
          </mxGeometry>
        </mxCell>
        <mxCell id="ZWZFDb_ZpwZTJIpMt9Q7-26" value="" style="endArrow=block;startArrow=block;endFill=1;startFill=1;html=1;fontSize=14;" edge="1" parent="1">
          <mxGeometry width="160" relative="1" as="geometry">
            <mxPoint x="834" y="808.6500000000001" as="sourcePoint" />
            <mxPoint x="918" y="809" as="targetPoint" />
          </mxGeometry>
        </mxCell>
        <mxCell id="ZWZFDb_ZpwZTJIpMt9Q7-27" value="" style="endArrow=block;startArrow=block;endFill=1;startFill=1;html=1;fontSize=14;entryX=0.444;entryY=1;entryDx=0;entryDy=0;entryPerimeter=0;" edge="1" parent="1">
          <mxGeometry width="160" relative="1" as="geometry">
            <mxPoint x="1407" y="1200" as="sourcePoint" />
            <mxPoint x="1406.88" y="1100" as="targetPoint" />
            <Array as="points" />
          </mxGeometry>
        </mxCell>
        <mxCell id="ZWZFDb_ZpwZTJIpMt9Q7-28" value="" style="endArrow=block;startArrow=block;endFill=1;startFill=1;html=1;fontSize=14;" edge="1" parent="1">
          <mxGeometry width="160" relative="1" as="geometry">
            <mxPoint x="1940" y="807" as="sourcePoint" />
            <mxPoint x="2054" y="807" as="targetPoint" />
          </mxGeometry>
        </mxCell>
        <mxCell id="ILqtCExF3n78J6rjXaP5-1" style="edgeStyle=orthogonalEdgeStyle;rounded=0;orthogonalLoop=1;jettySize=auto;html=1;" edge="1" parent="1" source="ZWZFDb_ZpwZTJIpMt9Q7-30" target="ZWZFDb_ZpwZTJIpMt9Q7-31">
          <mxGeometry relative="1" as="geometry" />
        </mxCell>
        <mxCell id="ZWZFDb_ZpwZTJIpMt9Q7-30" value="&lt;font style=&quot;font-size: 24px&quot;&gt;Clientes&lt;/font&gt;" style="html=1;shadow=0;dashed=0;shape=mxgraph.bootstrap.rrect;rSize=5;strokeWidth=1;whiteSpace=wrap;align=center;verticalAlign=middle;spacingLeft=0;fontStyle=1;fontSize=14;spacing=5;fillColor=#3399FF;strokeColor=#001DBC;fontColor=#ffffff;" vertex="1" parent="1">
          <mxGeometry x="1635" y="380" width="230" height="90.77" as="geometry" />
        </mxCell>
        <mxCell id="ZWZFDb_ZpwZTJIpMt9Q7-31" value="&lt;font style=&quot;font-size: 24px&quot;&gt;Paradoc&lt;/font&gt;" style="html=1;shadow=0;dashed=0;shape=mxgraph.bootstrap.rrect;rSize=5;strokeWidth=1;whiteSpace=wrap;align=center;verticalAlign=middle;spacingLeft=0;fontStyle=1;fontSize=14;spacing=5;fillColor=#3399FF;strokeColor=#001DBC;fontColor=#ffffff;" vertex="1" parent="1">
          <mxGeometry x="1629" y="626.95" width="240" height="90.44" as="geometry" />
        </mxCell>
        <mxCell id="ZWZFDb_ZpwZTJIpMt9Q7-32" value="&lt;font style=&quot;font-size: 24px&quot;&gt;Contabilidad&lt;/font&gt;" style="html=1;shadow=0;dashed=0;shape=mxgraph.bootstrap.rrect;rSize=5;strokeWidth=1;whiteSpace=wrap;align=center;verticalAlign=middle;spacingLeft=0;fontStyle=1;fontSize=14;spacing=5;fillColor=#3399FF;strokeColor=#001DBC;fontColor=#ffffff;" vertex="1" parent="1">
          <mxGeometry x="1634" y="850" width="240" height="90" as="geometry" />
        </mxCell>
        <mxCell id="ZWZFDb_ZpwZTJIpMt9Q7-33" value="&lt;font style=&quot;font-size: 24px&quot;&gt;Todo 1&lt;/font&gt;" style="html=1;shadow=0;dashed=0;shape=mxgraph.bootstrap.rrect;rSize=5;strokeWidth=1;whiteSpace=wrap;align=center;verticalAlign=middle;spacingLeft=0;fontStyle=1;fontSize=14;spacing=5;fillColor=#3399FF;strokeColor=#001DBC;fontColor=#ffffff;" vertex="1" parent="1">
          <mxGeometry x="1024" y="1393.61" width="200" height="82.77" as="geometry" />
        </mxCell>
        <mxCell id="ZWZFDb_ZpwZTJIpMt9Q7-34" value="&lt;font style=&quot;font-size: 24px&quot;&gt;Cifín&lt;/font&gt;" style="html=1;shadow=0;dashed=0;shape=mxgraph.bootstrap.rrect;rSize=5;strokeWidth=1;whiteSpace=wrap;align=center;verticalAlign=middle;spacingLeft=0;fontStyle=1;fontSize=14;spacing=5;fillColor=#3399FF;strokeColor=#001DBC;fontColor=#ffffff;" vertex="1" parent="1">
          <mxGeometry x="1669" y="1393.61" width="200" height="82.77" as="geometry" />
        </mxCell>
        <mxCell id="ZWZFDb_ZpwZTJIpMt9Q7-35" style="edgeStyle=orthogonalEdgeStyle;rounded=0;orthogonalLoop=1;jettySize=auto;html=1;fontSize=14;" edge="1" parent="1" source="ZWZFDb_ZpwZTJIpMt9Q7-39" target="ZWZFDb_ZpwZTJIpMt9Q7-30">
          <mxGeometry relative="1" as="geometry">
            <Array as="points">
              <mxPoint x="1534" y="415" />
              <mxPoint x="1534" y="415" />
            </Array>
          </mxGeometry>
        </mxCell>
        <mxCell id="ZWZFDb_ZpwZTJIpMt9Q7-36" style="edgeStyle=orthogonalEdgeStyle;rounded=0;orthogonalLoop=1;jettySize=auto;html=1;fontSize=14;" edge="1" parent="1" source="ZWZFDb_ZpwZTJIpMt9Q7-39" target="ZWZFDb_ZpwZTJIpMt9Q7-41">
          <mxGeometry relative="1" as="geometry" />
        </mxCell>
        <mxCell id="ZWZFDb_ZpwZTJIpMt9Q7-37" style="edgeStyle=orthogonalEdgeStyle;rounded=0;orthogonalLoop=1;jettySize=auto;html=1;fontSize=14;" edge="1" parent="1" source="ZWZFDb_ZpwZTJIpMt9Q7-39" target="ZWZFDb_ZpwZTJIpMt9Q7-32">
          <mxGeometry relative="1" as="geometry">
            <Array as="points">
              <mxPoint x="1504" y="480" />
              <mxPoint x="1504" y="890" />
            </Array>
          </mxGeometry>
        </mxCell>
        <mxCell id="ZWZFDb_ZpwZTJIpMt9Q7-38" style="edgeStyle=orthogonalEdgeStyle;rounded=0;orthogonalLoop=1;jettySize=auto;html=1;fontSize=14;" edge="1" parent="1" source="ZWZFDb_ZpwZTJIpMt9Q7-39" target="ZWZFDb_ZpwZTJIpMt9Q7-40">
          <mxGeometry relative="1" as="geometry">
            <Array as="points">
              <mxPoint x="1034" y="442.385" />
              <mxPoint x="1034" y="856.835" />
            </Array>
          </mxGeometry>
        </mxCell>
        <mxCell id="ZWZFDb_ZpwZTJIpMt9Q7-39" value="&lt;font style=&quot;font-size: 24px&quot;&gt;Componentes de Integración&lt;/font&gt;" style="html=1;shadow=0;dashed=0;shape=mxgraph.bootstrap.rrect;rSize=5;strokeWidth=1;whiteSpace=wrap;align=center;verticalAlign=middle;spacingLeft=0;fontStyle=1;fontSize=14;spacing=5;fillColor=#3399FF;strokeColor=#001DBC;fontColor=#ffffff;" vertex="1" parent="1">
          <mxGeometry x="1094" y="372" width="200" height="140.77" as="geometry" />
        </mxCell>
        <mxCell id="ZWZFDb_ZpwZTJIpMt9Q7-40" value="&lt;font style=&quot;font-size: 24px&quot;&gt;MDM&lt;/font&gt;" style="html=1;shadow=0;dashed=0;shape=mxgraph.bootstrap.rrect;rSize=5;strokeWidth=1;whiteSpace=wrap;align=center;verticalAlign=middle;spacingLeft=0;fontStyle=1;fontSize=14;spacing=5;fillColor=#3399FF;strokeColor=#001DBC;fontColor=#ffffff;" vertex="1" parent="1">
          <mxGeometry x="1069" y="831.9000000000001" width="250" height="93.55" as="geometry" />
        </mxCell>
        <mxCell id="ZWZFDb_ZpwZTJIpMt9Q7-41" value="&lt;font style=&quot;font-size: 24px&quot;&gt;Listas de Control&lt;/font&gt;" style="html=1;shadow=0;dashed=0;shape=mxgraph.bootstrap.rrect;rSize=5;strokeWidth=1;whiteSpace=wrap;align=center;verticalAlign=middle;spacingLeft=0;fontStyle=1;fontSize=14;spacing=5;fillColor=#3399FF;strokeColor=#001DBC;fontColor=#ffffff;" vertex="1" parent="1">
          <mxGeometry x="1069" y="605.13" width="250" height="89.82" as="geometry" />
        </mxCell>
        <mxCell id="ZWZFDb_ZpwZTJIpMt9Q7-42" value="&lt;font style=&quot;font-size: 24px&quot;&gt;Mastercard&lt;/font&gt;" style="html=1;shadow=0;dashed=0;shape=mxgraph.bootstrap.rrect;rSize=5;strokeWidth=1;whiteSpace=wrap;align=center;verticalAlign=middle;spacingLeft=0;fontStyle=1;fontSize=14;spacing=5;fillColor=#3399FF;strokeColor=#001DBC;fontColor=#ffffff;" vertex="1" parent="1">
          <mxGeometry x="1344" y="1393.61" width="200" height="82.77" as="geometry" />
        </mxCell>
        <mxCell id="ZWZFDb_ZpwZTJIpMt9Q7-43" value="" style="shape=image;aspect=fixed;image=data:image/jpeg,/9j/4AAQSkZJRgABAQEAYABgAAD/2wBDAAIBAQIBAQICAgICAgICAwUDAwMDAwYEBAMFBwYHBwcGBwcICQsJCAgKCAcHCg0KCgsMDAwMBwkODw0MDgsMDAz/2wBDAQICAgMDAwYDAwYMCAcIDAwMDAwMDAwMDAwMDAwMDAwMDAwMDAwMDAwMDAwMDAwMDAwMDAwMDAwMDAwMDAwMDAz/wAARCAArADEDASIAAhEBAxEB/8QAHwAAAQUBAQEBAQEAAAAAAAAAAAECAwQFBgcICQoL/8QAtRAAAgEDAwIEAwUFBAQAAAF9AQIDAAQRBRIhMUEGE1FhByJxFDKBkaEII0KxwRVS0fAkM2JyggkKFhcYGRolJicoKSo0NTY3ODk6Q0RFRkdISUpTVFVWV1hZWmNkZWZnaGlqc3R1dnd4eXqDhIWGh4iJipKTlJWWl5iZmqKjpKWmp6ipqrKztLW2t7i5usLDxMXGx8jJytLT1NXW19jZ2uHi4+Tl5ufo6erx8vP09fb3+Pn6/8QAHwEAAwEBAQEBAQEBAQAAAAAAAAECAwQFBgcICQoL/8QAtREAAgECBAQDBAcFBAQAAQJ3AAECAxEEBSExBhJBUQdhcRMiMoEIFEKRobHBCSMzUvAVYnLRChYkNOEl8RcYGRomJygpKjU2Nzg5OkNERUZHSElKU1RVVldYWVpjZGVmZ2hpanN0dXZ3eHl6goOEhYaHiImKkpOUlZaXmJmaoqOkpaanqKmqsrO0tba3uLm6wsPExcbHyMnK0tPU1dbX2Nna4uPk5ebn6Onq8vP09fb3+Pn6/9oADAMBAAIRAxEAPwD97fE3ijTvBmhXOp6te22nafZoZJri4kEccSjqSTwK84/Zt/bY+Gn7XOoeILb4f+JrXxDJ4YmWC/MAO1GbOCpPDD5TyOK+Df8Ag6Y8XeIdB/Zm+H9hpmoXdpourazcR6tDE+1LoLGhiV8dQCW46V85/wDBAPwJ8Sv2ePG2o/EAQ2MXgvxRpTWn2eaTL3ThwySBR02lSOT0Y128RYrIeHeFKnE2fYtUY3tBP7TT+FLeUmk2kvU8TDY3H4zPI5RgqLmrXk+ya37JLS7Z+6lFeARftb6vJKq/2dYcnHG7/Gvj/wCJH/Bcb4xap471fw78PP2fNX1WbTLp7M3d8ZFRmRiCwAwu09R81fBeHHHWT8c+3fD1TnjQ5edy/dqPNe3x23s9j6TiHCVclUPr6s535Urybtvtfufp/RX5u/AP/goR+194v+JWiL4u+EHgrSPCtxcxrqDi7Md3BC3VlzMwyOuMV+j9tcJd26SxsHSQBlYHIIr7GrPDRquhSxFOrJbqnUjO3ryt2+Z5+GrSrQ9pySiv70XG/pdaj6KKKRufHX/Bcr9lqb9qH9gzX7ewgM+seGXGsWaqPmJjB3gfUfyr8/P+CJn7TEHi34Y3/wAOdRn2ax4ec3FpG5wZYCcMB7q3b3r9rviJYf2r4G1W32CTzrZ1KEZ3AjkYr+fb9v8A/YT8X/sqfFW4+KHwqbULLTpZXmnXTCyXGlyNkPgLyUbJ+lfnviO8h4sy/wD4hhnlZYaril7XCVp/Aq8Hb2bfTnTt5ptL3uVOMNDG5TjFxTgYOpGn7laC3cH9pej/AE6XP1a+H+oW+p39/FayWtxf28ZVBuDGJ/QjsfrXK/tA/GjR/wBnHwSfEnjDVHt7aa4W3EVnEZp5JGBwuEGATjvX5Xf8En/G3xX0f9ouS5t9O8Qa3oWvvt1ua8Z9m7kiYu/Vx696/UH4x/B/RPjz8OL/AML6+LoWF8UfzbZgs0Locqykg49Pxr+LuPvDvK/DjinDcJ59i1iMK480qlKbivevpVpQ5pJxnom5a07NLt+3+HPEuE4jjDM8bRlTp89pq15cveEmrPTXbe6Pmnxl/wAFeNAgVB4f8J6pfSNjBvZREXOOm0ZOa/U79kD4nr8Yv2cvC3iEWdxp7ahZqz206lXhbuMHmvkj9l39jz4dfCvxto8Og+ENNnvRKim9v4he3RA775M7fwxX6ARRLBEERVRFGAqjAAr+jfAhcKYmOKxnC9DkhBqm5crXPpzaNtyaXmkdvjJm+QVKdDAZNhZwabk5zndtbW5dUu97/IdRRRX9DH4MIRkV43+0B8CLLUtKFzpWltNeXlyqTRom5GVsgkr6ZxXstFfH8b8EZbxTlk8tzCK1XuzsnKD/AJoN7M9HLMzrYGuq1J+q6PyZ5R4W/ZF8LaFo0EX2UQy7B5v2dVjUt34ArR/4Zg8M/wBy5/7+V6NRXkQ8IeDFFRll1KTStdxTb9W9W/M6P9Ycy6VpL0Zy/gr4QaJ4CuTPY23+kEY81zuYD2rqKKK+0yjJcBlWGWDy2jGlTX2YpJetl1PNxGJrYiftK0nKXdhRRRXpmB//2Q==;" vertex="1" parent="1">
          <mxGeometry x="573" y="386.45" width="49" height="43" as="geometry" />
        </mxCell>
        <mxCell id="ZWZFDb_ZpwZTJIpMt9Q7-44" value="" style="shape=image;aspect=fixed;image=data:image/jpeg,/9j/4AAQSkZJRgABAQEAYABgAAD/4QAiRXhpZgAATU0AKgAAAAgAAQESAAMAAAABAAEAAAAAAAD/2wBDAAIBAQIBAQICAgICAgICAwUDAwMDAwYEBAMFBwYHBwcGBwcICQsJCAgKCAcHCg0KCgsMDAwMBwkODw0MDgsMDAz/2wBDAQICAgMDAwYDAwYMCAcIDAwMDAwMDAwMDAwMDAwMDAwMDAwMDAwMDAwMDAwMDAwMDAwMDAwMDAwMDAwMDAwMDAz/wAARCAAmACgDASIAAhEBAxEB/8QAHwAAAQUBAQEBAQEAAAAAAAAAAAECAwQFBgcICQoL/8QAtRAAAgEDAwIEAwUFBAQAAAF9AQIDAAQRBRIhMUEGE1FhByJxFDKBkaEII0KxwRVS0fAkM2JyggkKFhcYGRolJicoKSo0NTY3ODk6Q0RFRkdISUpTVFVWV1hZWmNkZWZnaGlqc3R1dnd4eXqDhIWGh4iJipKTlJWWl5iZmqKjpKWmp6ipqrKztLW2t7i5usLDxMXGx8jJytLT1NXW19jZ2uHi4+Tl5ufo6erx8vP09fb3+Pn6/8QAHwEAAwEBAQEBAQEBAQAAAAAAAAECAwQFBgcICQoL/8QAtREAAgECBAQDBAcFBAQAAQJ3AAECAxEEBSExBhJBUQdhcRMiMoEIFEKRobHBCSMzUvAVYnLRChYkNOEl8RcYGRomJygpKjU2Nzg5OkNERUZHSElKU1RVVldYWVpjZGVmZ2hpanN0dXZ3eHl6goOEhYaHiImKkpOUlZaXmJmaoqOkpaanqKmqsrO0tba3uLm6wsPExcbHyMnK0tPU1dbX2Nna4uPk5ebn6Onq8vP09fb3+Pn6/9oADAMBAAIRAxEAPwD96tc1ttOdY4wrSMMkn+GuH+KH7TPhP4I6Yt54z8YeFfClqw3K+q6hFalx7K7An8BXTeJudU/4CK/KX/guD/wSu+In7VP7RPh/xl8PtPTUIdRsVtdT+0XIhhtHj4DnPYj0r1slwuDxGJ9nj6ypU7NuTslp5tpL1PMzbFYnD4d1MJT9pK6016+m59QfEn/gv7+zh8OZpIV8dHXpo22kaTpk9whPs+ApHuDivK9a/wCDoT4LWFyVtPDvjW/jBwGWzjjz+DOK+QPh1/wbxagFjfxv8TdF0tmAMlvpcJuZI/Ubjxxz2r2Hwr/wQm+A3h+NRq/iHx14gkUDJjljtkY/8BXNcmceJXg9kjcMdm8JyW6jPmf3QR5mFyvjnG+9RwigvNW/Nn2p/wAE9v8Agsf8O/8Agoh8QtW8L+G9N1zRtX0uy+3iLUYlUXEYYK20qxGVLLwfX2NFcb/wTg/4J/8Awf8A2W/jnPrXgXR9ctdYm06W3e4vdSe4VoiykjYTjOQOfaivGy/i7hviOm8x4Vquphr8t2mnzL4lqk7a7n0VHL80wUFRzdJVd9NrPY+sfjd4gvvCvha+1DT/ACxdQmJd7Lu8tGJBIHrnb+dfOOt+LtS8ROWvr64uMnOGfj8ulfUXjfT4dY+1WdyrNb3cPluAecZzx+Vcl4f+Evh3w2VeOwW6mXpJcnzMH2HSv5r8a/CHirjDO6Ly3Fqng/ZpTjKclFSUndqEV7zaa37bn33DPEWAy7CyVanepfRpK9rLq9jwfTPDGoawCbWyuJlAyWCHaPq3T9ayfG/izwn8KrXzvF3jfwf4ZT+5dapHJOfpFGWcn2xXzn/wXf8AEvj/AMCfE3wuLHxBrGm+Cte051gtbK4a3hW4iIEikKRklXU49q/Om7unu5mkuJXmkkOS0jbix+pr8/wP0Z8gy+p7PNK9SvOO6VqcH8kpSt/28j+suA/DOpxHlVDOamLUKdVXUYR5pKzaacpNJNNNP3HZ9z9uP2GP2t/hf8Xv2gLjw54P17Ute1aDT5p5Jf7MltrVUVkBw0oUtnIxgUV8f/8ABAn4f67D+1XqGuSaPqUejpok0JvXgZYS7SR4UMep+U0V/VHh3w7l+SZOsDllL2dPmbteT1dru8m3r6n85+OOQYPJuJngMFUlUjGELuTi3zO90+VRS9LaH7Bapo8epqMnZIvRgKo/8Ih/08f+Of8A16KK+6Px88Y/bp/YD0b9uH4R2PhrVNWm0i50rUF1Cy1CG3Eklu2xkdcE4Ksrcj1ANcX8AP8AgjF8GfghHDcXWkt4u1aPBNzq/wC8jLDoREML+eaKK5J4HDzq+2nBOXdn2GD484hweVLJ8JjJ08Pdvli+XV2vqrSs3ra9r621PqXw34Ys/Cmnra2Nvb2tugAWKCFYY0A9FUYooorrPkZSlJ80ndn/2Q==;" vertex="1" parent="1">
          <mxGeometry x="572" y="657.95" width="40" height="38" as="geometry" />
        </mxCell>
        <mxCell id="ZWZFDb_ZpwZTJIpMt9Q7-45" value="" style="shape=image;aspect=fixed;image=data:image/jpeg,/9j/4AAQSkZJRgABAQEAYABgAAD/4QAiRXhpZgAATU0AKgAAAAgAAQESAAMAAAABAAEAAAAAAAD/2wBDAAIBAQIBAQICAgICAgICAwUDAwMDAwYEBAMFBwYHBwcGBwcICQsJCAgKCAcHCg0KCgsMDAwMBwkODw0MDgsMDAz/2wBDAQICAgMDAwYDAwYMCAcIDAwMDAwMDAwMDAwMDAwMDAwMDAwMDAwMDAwMDAwMDAwMDAwMDAwMDAwMDAwMDAwMDAz/wAARCAAqAC0DASIAAhEBAxEB/8QAHwAAAQUBAQEBAQEAAAAAAAAAAAECAwQFBgcICQoL/8QAtRAAAgEDAwIEAwUFBAQAAAF9AQIDAAQRBRIhMUEGE1FhByJxFDKBkaEII0KxwRVS0fAkM2JyggkKFhcYGRolJicoKSo0NTY3ODk6Q0RFRkdISUpTVFVWV1hZWmNkZWZnaGlqc3R1dnd4eXqDhIWGh4iJipKTlJWWl5iZmqKjpKWmp6ipqrKztLW2t7i5usLDxMXGx8jJytLT1NXW19jZ2uHi4+Tl5ufo6erx8vP09fb3+Pn6/8QAHwEAAwEBAQEBAQEBAQAAAAAAAAECAwQFBgcICQoL/8QAtREAAgECBAQDBAcFBAQAAQJ3AAECAxEEBSExBhJBUQdhcRMiMoEIFEKRobHBCSMzUvAVYnLRChYkNOEl8RcYGRomJygpKjU2Nzg5OkNERUZHSElKU1RVVldYWVpjZGVmZ2hpanN0dXZ3eHl6goOEhYaHiImKkpOUlZaXmJmaoqOkpaanqKmqsrO0tba3uLm6wsPExcbHyMnK0tPU1dbX2Nna4uPk5ebn6Onq8vP09fb3+Pn6/9oADAMBAAIRAxEAPwD9qPi14414/EK10HRbyOw3Q+a8hUEsfxBrP/s/x9/0M0f/AH6H/wATTvHH/JxVr/16f0q98V77VtO+GuuS6DcWNtry2M39mvef6gXOw+Xv/wBndjPtX4LkOQUc9x2a43N8bXgqWJnTXLiKlKnCEYwtpGUYpK7bbPqsXjJYSlQp4elF3gn8Ck23furmf/Z/j7/oZo/+/Q/+Jo/s/wAff9DNH/36H/xNfnfpvgP9sD4q3IuPGfx3tPCUcmD9j0K3DeUDzgGPA44FfXv7BmgeKvh54b1TQvGHj7WviBfSzC6trzUYgskCYwYweuM88+ldVTKvDp4yOW4TiGdfESaioU8XiZ3fbmT5fxOTD5hnc4OtUwHs6aV+aVOmvw3/AAPTdSTx9p1hNcf8JHHJ5Kl9vlqN2P8AgNd/8GPGN1458B297ebftSu0UhAwGK9/1rK8Rf8AIBvP+uLfypv7M3/JMV/6+pf6V0ZflUsi41w2AwmIrTpVsPVlKNSrOquaE6fK1zt2dpNaG9bELFZZOrUhFSjOKTjFR0ad1pa+xz/jj/k4q1/69P6VreNvBdv450uO0upJI445RLlDg5HH8iayfi5Z3ujfFGz161tTqFt5PlMsLDcpqH/ha15/0Lupf99LXzOX55w7g55zknE9+WviakuV06slOEowcWnCLVnbo76HZWwuMqLDYnA7xgle8U01e+jZ8W/8FHP+F1fDn40aN4c+E+lTXGh65pyyRz2tl9ouY5wzLIskjgxoOARwOD1rpP8Agm3+yB8ePhj8VJvGnxQ8XRtZ3NpJbtosl2bqaQvyrHaojj2kDgE8ZFfVp+Kd0zBv+Eb1DcOhyvFL/wALWvP+hd1L/vpa9TJ+KPDvK6vPgJ+zSeihQqxS+6ld/M/QcTx1nk+H1kNHBUY80OWpVahKpPz5m9HbrZu+qaOo8Rf8gG8/64t/Km/szf8AJMV/6+pf6VyWqfEq+1DTprePw/qCvMhQEsuATxXc/ArRpPCfw9t7a9kijuJJHmZN4ym7sfyrrwPEmAz7jjC4zK5SnTo4espycJwSc50+VXnGN2+V6K+x+aVMHVwuV1KddJSlONldNuyd9mzLvP2YtHuruSVdT1qISMW2JOu1c9hlarn9mDS/+gl4h/8AAiP/AAr1Kivo6ng3wZOTk8vhd+v+Zxx4kzJK3tX+B5b/AMMwaX/0EfEP/gRH/hR/wzBpf/QR8Q/+BEf+FepUVn/xBfgv/oAh+P8AmV/rNmX/AD9f4Hl8f7LulP11TX1+s6c/kK0NG/Zz0XSRJuutUuvMxzLP93HpgCvQKK6cL4RcHYeoqtLAU+ZdWm/LZu34GdTiLMZrllVdj//Z;" vertex="1" parent="1">
          <mxGeometry x="571" y="796.45" width="45" height="42" as="geometry" />
        </mxCell>
        <mxCell id="ZWZFDb_ZpwZTJIpMt9Q7-46" value="" style="shape=image;aspect=fixed;image=data:image/jpeg,/9j/4AAQSkZJRgABAQEAYABgAAD/4QAiRXhpZgAATU0AKgAAAAgAAQESAAMAAAABAAEAAAAAAAD/2wBDAAIBAQIBAQICAgICAgICAwUDAwMDAwYEBAMFBwYHBwcGBwcICQsJCAgKCAcHCg0KCgsMDAwMBwkODw0MDgsMDAz/2wBDAQICAgMDAwYDAwYMCAcIDAwMDAwMDAwMDAwMDAwMDAwMDAwMDAwMDAwMDAwMDAwMDAwMDAwMDAwMDAwMDAwMDAz/wAARCAAqAC0DASIAAhEBAxEB/8QAHwAAAQUBAQEBAQEAAAAAAAAAAAECAwQFBgcICQoL/8QAtRAAAgEDAwIEAwUFBAQAAAF9AQIDAAQRBRIhMUEGE1FhByJxFDKBkaEII0KxwRVS0fAkM2JyggkKFhcYGRolJicoKSo0NTY3ODk6Q0RFRkdISUpTVFVWV1hZWmNkZWZnaGlqc3R1dnd4eXqDhIWGh4iJipKTlJWWl5iZmqKjpKWmp6ipqrKztLW2t7i5usLDxMXGx8jJytLT1NXW19jZ2uHi4+Tl5ufo6erx8vP09fb3+Pn6/8QAHwEAAwEBAQEBAQEBAQAAAAAAAAECAwQFBgcICQoL/8QAtREAAgECBAQDBAcFBAQAAQJ3AAECAxEEBSExBhJBUQdhcRMiMoEIFEKRobHBCSMzUvAVYnLRChYkNOEl8RcYGRomJygpKjU2Nzg5OkNERUZHSElKU1RVVldYWVpjZGVmZ2hpanN0dXZ3eHl6goOEhYaHiImKkpOUlZaXmJmaoqOkpaanqKmqsrO0tba3uLm6wsPExcbHyMnK0tPU1dbX2Nna4uPk5ebn6Onq8vP09fb3+Pn6/9oADAMBAAIRAxEAPwD9qPi14414/EK10HRbyOw3Q+a8hUEsfxBrP/s/x9/0M0f/AH6H/wATTvHH/JxVr/16f0q98V77VtO+GuuS6DcWNtry2M39mvef6gXOw+Xv/wBndjPtX4LkOQUc9x2a43N8bXgqWJnTXLiKlKnCEYwtpGUYpK7bbPqsXjJYSlQp4elF3gn8Ck23furmf/Z/j7/oZo/+/Q/+Jo/s/wAff9DNH/36H/xNfnfpvgP9sD4q3IuPGfx3tPCUcmD9j0K3DeUDzgGPA44FfXv7BmgeKvh54b1TQvGHj7WviBfSzC6trzUYgskCYwYweuM88+ldVTKvDp4yOW4TiGdfESaioU8XiZ3fbmT5fxOTD5hnc4OtUwHs6aV+aVOmvw3/AAPTdSTx9p1hNcf8JHHJ5Kl9vlqN2P8AgNd/8GPGN1458B297ebftSu0UhAwGK9/1rK8Rf8AIBvP+uLfypv7M3/JMV/6+pf6V0ZflUsi41w2AwmIrTpVsPVlKNSrOquaE6fK1zt2dpNaG9bELFZZOrUhFSjOKTjFR0ad1pa+xz/jj/k4q1/69P6VreNvBdv450uO0upJI445RLlDg5HH8iayfi5Z3ujfFGz161tTqFt5PlMsLDcpqH/ha15/0Lupf99LXzOX55w7g55zknE9+WviakuV06slOEowcWnCLVnbo76HZWwuMqLDYnA7xgle8U01e+jZ8W/8FHP+F1fDn40aN4c+E+lTXGh65pyyRz2tl9ouY5wzLIskjgxoOARwOD1rpP8Agm3+yB8ePhj8VJvGnxQ8XRtZ3NpJbtosl2bqaQvyrHaojj2kDgE8ZFfVp+Kd0zBv+Eb1DcOhyvFL/wALWvP+hd1L/vpa9TJ+KPDvK6vPgJ+zSeihQqxS+6ld/M/QcTx1nk+H1kNHBUY80OWpVahKpPz5m9HbrZu+qaOo8Rf8gG8/64t/Km/szf8AJMV/6+pf6VyWqfEq+1DTprePw/qCvMhQEsuATxXc/ArRpPCfw9t7a9kijuJJHmZN4ym7sfyrrwPEmAz7jjC4zK5SnTo4espycJwSc50+VXnGN2+V6K+x+aVMHVwuV1KddJSlONldNuyd9mzLvP2YtHuruSVdT1qISMW2JOu1c9hlarn9mDS/+gl4h/8AAiP/AAr1Kivo6ng3wZOTk8vhd+v+Zxx4kzJK3tX+B5b/AMMwaX/0EfEP/gRH/hR/wzBpf/QR8Q/+BEf+FepUVn/xBfgv/oAh+P8AmV/rNmX/AD9f4Hl8f7LulP11TX1+s6c/kK0NG/Zz0XSRJuutUuvMxzLP93HpgCvQKK6cL4RcHYeoqtLAU+ZdWm/LZu34GdTiLMZrllVdj//Z;" vertex="1" parent="1">
          <mxGeometry x="571" y="941.45" width="45" height="42" as="geometry" />
        </mxCell>
        <mxCell id="ZWZFDb_ZpwZTJIpMt9Q7-47" value="" style="shape=image;aspect=fixed;image=data:image/png,iVBORw0KGgoAAAANSUhEUgAAACkAAAAoCAIAAADsXkQEAAAAAXNSR0IArs4c6QAAAARnQU1BAACxjwv8YQUAAAAJcEhZcwAADsMAAA7DAcdvqGQAAAUXSURBVFhH1Zh7bFNVHMcXBoOAoCFkJBBiMGFmxBGRCEIU8QERUHxAUIlilAQh8R8wUXz8ozyMIhtM5OGELSABjcYHikEDPpaBhgld23V9b7Rre99de9vbW+49v5/ntpfRxxbKNiB8803Tnt/5/T73nJ577mnL8ObplmEDIKZ1iCtpSU5J0WREkMMZR2VV04nZq2SVyqalpXjS0y012yPf/uncf9yy91jr1qYzmxvPbD7QcuS39gAnG5d2LSqVzUWTx047Vm85ft9rjVNX7Bm+qG70w3V3PFY/YeGuyvmfLljXeLLVn77GoZfEBgBPt7hxzx+jF+0e+0jthGW7atY2Pb2pcUP9d1sbDu9s2vfVj01ud8ullIB4DfhSx00n/Ptm17rak9saDv3y685kqIF1vK56XiLep9D7OLpn654niXgM9aiZUIJKYQOSOCTP6Uxd2rtCc1TpthFoqwDLcLSUo7Uc7cMyLsfu9ai6zKQS1Adb13VN0xRFicsyXdIplQdxH7rvQfs4tI7CtnJsK0NrGdrL0HkneuZC22K9eZn212rSdYSokZSqGomXnUgmaUGzdL76YFOqIEoMy1FH+GgsFgZmC9roKMsMWyvQOQMvvqy3vJI6+IJSu0p++8XYqmdiK1cqB75UujolKZrN7TXPC/QKzOo5KmQTQkQpGmHYcIQxzLCCwKrsYXTdi677IbCeBPeqB9+Mr1kee25pdO6D0VnzpJoHxMoZ4u018bXvRs+ev5KbY8o3ATkqZNP54QUxN43Wktg2hflGZk8InFXyWOUNm8TxNeLUWeKUGcJtVcKoaeKkmT3zn01uq5fOWXJze02LmIAcXZ1NzTAhjg3Q+QszPOPxyZ98Jo6vFsZUiZNqpOoFsaVrEu9/HD/0tdTyL+vvKsjNeuDsXDOBYOzE79xDy9iZT8Tf2NRTt1/8+ZRksQtePxMMFXTu9dCwI+EI5+6MNB7lj/4ktdp4XyASom2F3QpcEpvo6ajYyTMd/dvJcT76pifWzfN+jqfvnfkd+rDA0vu+cLsvZKPGq2yTEtyuBHcMnbengh/QOTURl1XIBsWL/iXYcRd0TBsyO6Zi+1g6LJNxWX2xXbOhbTixVgydR6D1VmaPKHJ/jQUeFHsk0G2cPrXyPIy2G4+W/HZoo/iR+emDYINjCnoXgm9JrtH7KDqmg6ewHbyLwFmdmz4ItnseSI2ouVHvNK114aWLED9Dgu+gcsH42Bsyol5MnKTPcnBMHjgb6HzaKzHyHhIuc3f2mh6MdCQCsnWo0VDmY64hBj0/aK75A2fTHOioQr4eIWWGrwgwHUZ2J2r0jFYsHRL/EN/ywbAriHM68Hvy2fQIlYC0F9VOCH8ECQuSnsxwc0UgcY74nx9qNuioXiTcfkjaSWgzcAdBOY+k4FhyvdgaKk7ofgvkCyT0IYS3gXwa9ZgZNXU92RjamGVjeCvIp244O9F649n0++5CbgekLMacs7shcRaJbEZNXSe2sc5lSF5A1W+s8/jfqHYjSZtBUwNlg2sO7d0/OyvAVKD/+7uIbRtXAlvtAt9iYhuTwdO9pRr5z/tlM7X0nGM25InQ31DEvzILJrZRxHl30R5QxEZMoNiAvjnYPhHtE+n8o/AFvSIzeEWAaogwdE/tm43KfxB4FdonG3Xc05Dba6Tkq5hN+yiYjhjDylqTitMyott4PPNaLOMPCmPDz1YwFkTBYjTUF9sQTc71wHSVCv2xb4RuHhvxfxXo46GjGlZ/AAAAAElFTkSuQmCC;" vertex="1" parent="1">
          <mxGeometry x="571" y="1096" width="41" height="40" as="geometry" />
        </mxCell>
        <mxCell id="ZWZFDb_ZpwZTJIpMt9Q7-48" value="" style="shape=image;aspect=fixed;image=data:image/jpeg,/9j/4AAQSkZJRgABAQEAYABgAAD/4QAiRXhpZgAATU0AKgAAAAgAAQESAAMAAAABAAEAAAAAAAD/2wBDAAIBAQIBAQICAgICAgICAwUDAwMDAwYEBAMFBwYHBwcGBwcICQsJCAgKCAcHCg0KCgsMDAwMBwkODw0MDgsMDAz/2wBDAQICAgMDAwYDAwYMCAcIDAwMDAwMDAwMDAwMDAwMDAwMDAwMDAwMDAwMDAwMDAwMDAwMDAwMDAwMDAwMDAwMDAz/wAARCAAqACoDASIAAhEBAxEB/8QAHwAAAQUBAQEBAQEAAAAAAAAAAAECAwQFBgcICQoL/8QAtRAAAgEDAwIEAwUFBAQAAAF9AQIDAAQRBRIhMUEGE1FhByJxFDKBkaEII0KxwRVS0fAkM2JyggkKFhcYGRolJicoKSo0NTY3ODk6Q0RFRkdISUpTVFVWV1hZWmNkZWZnaGlqc3R1dnd4eXqDhIWGh4iJipKTlJWWl5iZmqKjpKWmp6ipqrKztLW2t7i5usLDxMXGx8jJytLT1NXW19jZ2uHi4+Tl5ufo6erx8vP09fb3+Pn6/8QAHwEAAwEBAQEBAQEBAQAAAAAAAAECAwQFBgcICQoL/8QAtREAAgECBAQDBAcFBAQAAQJ3AAECAxEEBSExBhJBUQdhcRMiMoEIFEKRobHBCSMzUvAVYnLRChYkNOEl8RcYGRomJygpKjU2Nzg5OkNERUZHSElKU1RVVldYWVpjZGVmZ2hpanN0dXZ3eHl6goOEhYaHiImKkpOUlZaXmJmaoqOkpaanqKmqsrO0tba3uLm6wsPExcbHyMnK0tPU1dbX2Nna4uPk5ebn6Onq8vP09fb3+Pn6/9oADAMBAAIRAxEAPwD9/CcCo5LhUjZs7toJwOSa/P3/AIOMP2mPF3wE/Y80zSvCq31sfGmoNZX2pW24NZwxqr7Qy/dLk9fRDX4t/sx/tpeNv2efjdo3iy7v/EniC30hy81hc302yZGUrzkkDrkHHWvsMu4NxeOyueYYaSckpcsG7c7itFzPSN3pdrTc+VzLiuhgsdHB1Yu2nNL+VPra2tlr+B+6Xib/AIK2+JrrxVqWn+E/2ffidrUGl3MlpJeXsUOnQu6OUJXznUlcqcHHPFfV3wa+JEnxS+G+l65d6bNod5exBrjT55UkktH7oWUlSR6g1+J97/wVk8SfFXwRb6noK6D4LAaVL5b3dcXEJU5jcbgchlI5AHIPtXyl+1t+2j4u+MWp6Ktn4u8VXlzpUMqz3UJezhmDMCNsaHoMfePXNfF8I5Vxjm+ayweb5dSwVGCd5RqTqy5rKyc2oQd/7kfnY+24goZPlPD1LPKOZQxFSq1y0VZVOVtptxUXyWttOSb7H9QyyKx4YH6Glr+aH/glX+2X8S/g5+3F4Fltr7xL4ktdevotJvNOnuZpklgnkVGl2kkfu/vZxwAfWv6Xq+o4k4cqZRWjSnNTUldNfc1Y+WyHPIZnSlUjBxcXZp/5nF/tB+C9I8efCXWLHWtNstUs/JL+TdQiRAw6HB7+9fO/w5/4J6+DfiN4b/tSbRfD1st4nk7RpqMWQdAelfTfxX/5J1q//Xu1eafBf46aH4T8DQaffyTRT27EcJuDA1/KHiT/AGFW42weH4lxDpYf6vNpOrKlFz9pG13GUdbX69PI/TMnp4j+zKk8JTUp86XwqTtbzTOC1r/gmz4J0g2uNN0GT7UyWR/4lcYwm04H4Yq//wAOxPBQbd9h0Hd5Xkg/2VH9z0r0jxH+0L4b1L7D5VxMfs90sr5jx8oDD+taX/DTHhX/AJ+Lj/v1Xj4XK/Cx4mtGpjY8i5eX/a6u3Kr2/e66m85Z2oRao663/dx7/wCE8n/Zv/Zq8LfCj48XkNv4d0OO90q08u3uorNFdFyCNpxkfeNfTFeM/CPxVb+M/jvrWoWqsLea3wm7qQCozXs1fongnWoT4fqLCVHUoxxFdU5OTleCqPl956tW2PJ4lpuGLXNFRlyQukkteVX0Rm+L9DbxL4ZvbFWEbXURQMegNeCt+yX4kDHbdaSVzwTK/P8A47X0ZRXpceeEnD3F9elic5jNyppxTjJx0bvr8zPKuIMXl0ZQw7VpO7urnzn/AMMmeJf+frSf+/r/APxNH/DJniX/AJ+tJ/7+v/8AE19GUV8F/wASu8DfyVf/AAY/8j1f9ec07x+7/gnlnwK+B+pfDbXbq91C4tJPMi8pFgYt3yScgelep0UV+xcH8H5dwzlkcpyqLVKLbXM+Z3k7u7PnMxzGtja7xFf4nbbTY//Z;" vertex="1" parent="1">
          <mxGeometry x="574" y="517.95" width="42" height="42" as="geometry" />
        </mxCell>
        <mxCell id="ZWZFDb_ZpwZTJIpMt9Q7-49" value="&lt;span style=&quot;font-size: 72px&quot;&gt;ESTE ESPACIO LO COMPLETA EL EQUIPO CLOUD&lt;/span&gt;" style="text;html=1;strokeColor=none;fillColor=none;align=center;verticalAlign=middle;whiteSpace=wrap;rounded=0;rotation=-30;" vertex="1" parent="1">
          <mxGeometry x="2449" y="670" width="860" height="400" as="geometry" />
        </mxCell>
      </root>
    </mxGraphModel>
  </diagram>
  <diagram id="X8dCfYQyJF5B7WVXug4T" name="Esquema de disponibilidad">
    <mxGraphModel dx="1217" dy="560" grid="1" gridSize="10" guides="1" tooltips="1" connect="1" arrows="1" fold="1" page="1" pageScale="1" pageWidth="827" pageHeight="1169" math="0" shadow="0">
      <root>
        <mxCell id="3hhL7Vpwdo-nxYoPQea_-0" />
        <mxCell id="3hhL7Vpwdo-nxYoPQea_-1" parent="3hhL7Vpwdo-nxYoPQea_-0" />
        <mxCell id="3hhL7Vpwdo-nxYoPQea_-2" value="&lt;font style=&quot;font-size: 24px&quot;&gt;Base de Datos Murex (Oracle Data Guard)&amp;nbsp;&lt;/font&gt;" style="rounded=0;whiteSpace=wrap;html=1;dashed=1;labelPosition=center;verticalLabelPosition=middle;align=center;verticalAlign=top;" vertex="1" parent="3hhL7Vpwdo-nxYoPQea_-1">
          <mxGeometry x="650" y="601" width="1020" height="399" as="geometry" />
        </mxCell>
        <mxCell id="3hhL7Vpwdo-nxYoPQea_-3" value="&lt;b&gt;&amp;lt;&amp;lt;Device&amp;gt;&amp;gt;&lt;br&gt;Pseries Nodo1 (Activo)&lt;br&gt;&lt;/b&gt;" style="verticalAlign=top;align=center;spacingTop=8;spacingLeft=2;spacingRight=12;shape=cube;size=10;direction=south;fontStyle=0;html=1;strokeColor=#000000;fillColor=none;fontSize=14;" vertex="1" parent="3hhL7Vpwdo-nxYoPQea_-1">
          <mxGeometry x="859" y="670.5" width="245" height="260" as="geometry" />
        </mxCell>
        <mxCell id="3hhL7Vpwdo-nxYoPQea_-4" value="&lt;b&gt;&amp;lt;&amp;lt;Device&amp;gt;&amp;gt;&lt;br&gt;Pseries Nodo2 (Pasivo)&lt;br&gt;&lt;/b&gt;" style="verticalAlign=top;align=center;spacingTop=8;spacingLeft=2;spacingRight=12;shape=cube;size=10;direction=south;fontStyle=0;html=1;strokeColor=#000000;fillColor=none;fontSize=14;" vertex="1" parent="3hhL7Vpwdo-nxYoPQea_-1">
          <mxGeometry x="1180" y="670.5" width="245" height="260" as="geometry" />
        </mxCell>
        <mxCell id="3hhL7Vpwdo-nxYoPQea_-5" value="&lt;font style=&quot;font-size: 24px&quot;&gt;Servidores de Aplicación Murex (Horizontal Scalable System)&lt;br&gt;&lt;/font&gt;" style="rounded=0;whiteSpace=wrap;html=1;dashed=1;labelPosition=center;verticalLabelPosition=middle;align=center;verticalAlign=top;" vertex="1" parent="3hhL7Vpwdo-nxYoPQea_-1">
          <mxGeometry x="190" y="230" width="1900" height="287" as="geometry" />
        </mxCell>
        <mxCell id="3hhL7Vpwdo-nxYoPQea_-6" value="&lt;b&gt;&amp;lt;&amp;lt;Device&amp;gt;&amp;gt;&lt;br&gt;Pseries Nodo1&lt;br&gt;&lt;/b&gt;" style="verticalAlign=top;align=center;spacingTop=8;spacingLeft=2;spacingRight=12;shape=cube;size=10;direction=south;fontStyle=0;html=1;strokeColor=#000000;fillColor=none;fontSize=14;" vertex="1" parent="3hhL7Vpwdo-nxYoPQea_-1">
          <mxGeometry x="250" y="320" width="190" height="150" as="geometry" />
        </mxCell>
        <mxCell id="3hhL7Vpwdo-nxYoPQea_-7" value="&#xa;Murex" style="shape=module;align=left;spacingLeft=20;align=center;verticalAlign=top;strokeColor=#000000;fillColor=none;fontSize=14;" vertex="1" parent="3hhL7Vpwdo-nxYoPQea_-1">
          <mxGeometry x="260" y="380" width="150" height="70" as="geometry" />
        </mxCell>
        <mxCell id="3hhL7Vpwdo-nxYoPQea_-8" value="&lt;b&gt;&amp;lt;&amp;lt;Device&amp;gt;&amp;gt;&lt;br&gt;Pseries Nodo2&lt;br&gt;&lt;/b&gt;" style="verticalAlign=top;align=center;spacingTop=8;spacingLeft=2;spacingRight=12;shape=cube;size=10;direction=south;fontStyle=0;html=1;strokeColor=#000000;fillColor=none;fontSize=14;" vertex="1" parent="3hhL7Vpwdo-nxYoPQea_-1">
          <mxGeometry x="480" y="320" width="190" height="150" as="geometry" />
        </mxCell>
        <mxCell id="3hhL7Vpwdo-nxYoPQea_-9" value="&#xa;Murex" style="shape=module;align=left;spacingLeft=20;align=center;verticalAlign=top;strokeColor=#000000;fillColor=none;fontSize=14;" vertex="1" parent="3hhL7Vpwdo-nxYoPQea_-1">
          <mxGeometry x="490" y="380" width="150" height="70" as="geometry" />
        </mxCell>
        <mxCell id="3hhL7Vpwdo-nxYoPQea_-10" value="&lt;b&gt;&amp;lt;&amp;lt;Device&amp;gt;&amp;gt;&lt;br&gt;Pseries Nodo3&lt;br&gt;&lt;/b&gt;" style="verticalAlign=top;align=center;spacingTop=8;spacingLeft=2;spacingRight=12;shape=cube;size=10;direction=south;fontStyle=0;html=1;strokeColor=#000000;fillColor=none;fontSize=14;" vertex="1" parent="3hhL7Vpwdo-nxYoPQea_-1">
          <mxGeometry x="710" y="320" width="190" height="150" as="geometry" />
        </mxCell>
        <mxCell id="3hhL7Vpwdo-nxYoPQea_-11" value="&#xa;Murex" style="shape=module;align=left;spacingLeft=20;align=center;verticalAlign=top;strokeColor=#000000;fillColor=none;fontSize=14;" vertex="1" parent="3hhL7Vpwdo-nxYoPQea_-1">
          <mxGeometry x="720" y="380" width="150" height="70" as="geometry" />
        </mxCell>
        <mxCell id="3hhL7Vpwdo-nxYoPQea_-12" value="&lt;b&gt;&amp;lt;&amp;lt;Device&amp;gt;&amp;gt;&lt;br&gt;Pseries Nodo4&lt;br&gt;&lt;/b&gt;" style="verticalAlign=top;align=center;spacingTop=8;spacingLeft=2;spacingRight=12;shape=cube;size=10;direction=south;fontStyle=0;html=1;strokeColor=#000000;fillColor=none;fontSize=14;" vertex="1" parent="3hhL7Vpwdo-nxYoPQea_-1">
          <mxGeometry x="940" y="320" width="190" height="150" as="geometry" />
        </mxCell>
        <mxCell id="3hhL7Vpwdo-nxYoPQea_-13" value="&#xa;Murex" style="shape=module;align=left;spacingLeft=20;align=center;verticalAlign=top;strokeColor=#000000;fillColor=none;fontSize=14;" vertex="1" parent="3hhL7Vpwdo-nxYoPQea_-1">
          <mxGeometry x="950" y="380" width="150" height="70" as="geometry" />
        </mxCell>
        <mxCell id="3hhL7Vpwdo-nxYoPQea_-14" value="&lt;b&gt;&amp;lt;&amp;lt;Device&amp;gt;&amp;gt;&lt;br&gt;Pseries Nodo5&lt;br&gt;&lt;/b&gt;" style="verticalAlign=top;align=center;spacingTop=8;spacingLeft=2;spacingRight=12;shape=cube;size=10;direction=south;fontStyle=0;html=1;strokeColor=#000000;fillColor=none;fontSize=14;" vertex="1" parent="3hhL7Vpwdo-nxYoPQea_-1">
          <mxGeometry x="1170" y="320" width="190" height="150" as="geometry" />
        </mxCell>
        <mxCell id="3hhL7Vpwdo-nxYoPQea_-15" value="&#xa;Murex" style="shape=module;align=left;spacingLeft=20;align=center;verticalAlign=top;strokeColor=#000000;fillColor=none;fontSize=14;" vertex="1" parent="3hhL7Vpwdo-nxYoPQea_-1">
          <mxGeometry x="1180" y="380" width="150" height="70" as="geometry" />
        </mxCell>
        <mxCell id="3hhL7Vpwdo-nxYoPQea_-16" value="&lt;b&gt;&amp;lt;&amp;lt;Device&amp;gt;&amp;gt;&lt;br&gt;Pseries Nodo6&lt;br&gt;&lt;/b&gt;" style="verticalAlign=top;align=center;spacingTop=8;spacingLeft=2;spacingRight=12;shape=cube;size=10;direction=south;fontStyle=0;html=1;strokeColor=#000000;fillColor=none;fontSize=14;" vertex="1" parent="3hhL7Vpwdo-nxYoPQea_-1">
          <mxGeometry x="1390" y="320" width="190" height="150" as="geometry" />
        </mxCell>
        <mxCell id="3hhL7Vpwdo-nxYoPQea_-17" value="&#xa;Murex" style="shape=module;align=left;spacingLeft=20;align=center;verticalAlign=top;strokeColor=#000000;fillColor=none;fontSize=14;" vertex="1" parent="3hhL7Vpwdo-nxYoPQea_-1">
          <mxGeometry x="1400" y="380" width="150" height="70" as="geometry" />
        </mxCell>
        <mxCell id="3hhL7Vpwdo-nxYoPQea_-18" value="&lt;b&gt;&amp;lt;&amp;lt;Device&amp;gt;&amp;gt;&lt;br&gt;Pseries Nodo7&lt;br&gt;&lt;/b&gt;" style="verticalAlign=top;align=center;spacingTop=8;spacingLeft=2;spacingRight=12;shape=cube;size=10;direction=south;fontStyle=0;html=1;strokeColor=#000000;fillColor=none;fontSize=14;" vertex="1" parent="3hhL7Vpwdo-nxYoPQea_-1">
          <mxGeometry x="1614" y="320" width="190" height="150" as="geometry" />
        </mxCell>
        <mxCell id="3hhL7Vpwdo-nxYoPQea_-19" value="&#xa;Murex" style="shape=module;align=left;spacingLeft=20;align=center;verticalAlign=top;strokeColor=#000000;fillColor=none;fontSize=14;" vertex="1" parent="3hhL7Vpwdo-nxYoPQea_-1">
          <mxGeometry x="1624" y="380" width="150" height="70" as="geometry" />
        </mxCell>
        <mxCell id="3hhL7Vpwdo-nxYoPQea_-20" value="&lt;b&gt;&amp;lt;&amp;lt;Device&amp;gt;&amp;gt;&lt;br&gt;Pseries Nodo8&lt;br&gt;&lt;/b&gt;" style="verticalAlign=top;align=center;spacingTop=8;spacingLeft=2;spacingRight=12;shape=cube;size=10;direction=south;fontStyle=0;html=1;strokeColor=#000000;fillColor=none;fontSize=14;" vertex="1" parent="3hhL7Vpwdo-nxYoPQea_-1">
          <mxGeometry x="1838" y="320" width="190" height="150" as="geometry" />
        </mxCell>
        <mxCell id="3hhL7Vpwdo-nxYoPQea_-21" value="&#xa;Murex" style="shape=module;align=left;spacingLeft=20;align=center;verticalAlign=top;strokeColor=#000000;fillColor=none;fontSize=14;" vertex="1" parent="3hhL7Vpwdo-nxYoPQea_-1">
          <mxGeometry x="1848" y="380" width="150" height="70" as="geometry" />
        </mxCell>
        <mxCell id="3hhL7Vpwdo-nxYoPQea_-22" value="&lt;b&gt;&amp;lt;&amp;lt;ExecutionEn..&amp;gt;&amp;gt;&lt;br&gt;Oracle Database&lt;br&gt;&lt;/b&gt;" style="verticalAlign=top;align=center;spacingTop=8;spacingLeft=2;spacingRight=12;shape=cube;size=10;direction=south;fontStyle=0;html=1;strokeColor=#000000;fillColor=none;fontSize=14;" vertex="1" parent="3hhL7Vpwdo-nxYoPQea_-1">
          <mxGeometry x="889" y="740" width="190" height="150" as="geometry" />
        </mxCell>
        <mxCell id="3hhL7Vpwdo-nxYoPQea_-23" value="&#xa;BD Murex" style="shape=module;align=left;spacingLeft=20;align=center;verticalAlign=top;strokeColor=#000000;fillColor=none;fontSize=14;" vertex="1" parent="3hhL7Vpwdo-nxYoPQea_-1">
          <mxGeometry x="899" y="800" width="150" height="70" as="geometry" />
        </mxCell>
        <mxCell id="3hhL7Vpwdo-nxYoPQea_-24" value="&lt;b&gt;&amp;lt;&amp;lt;ExecutionEn..&amp;gt;&amp;gt;&lt;br&gt;Oracle Database&lt;br&gt;&lt;/b&gt;" style="verticalAlign=top;align=center;spacingTop=8;spacingLeft=2;spacingRight=12;shape=cube;size=10;direction=south;fontStyle=0;html=1;strokeColor=#000000;fillColor=none;fontSize=14;" vertex="1" parent="3hhL7Vpwdo-nxYoPQea_-1">
          <mxGeometry x="1207.5" y="740" width="190" height="150" as="geometry" />
        </mxCell>
        <mxCell id="3hhL7Vpwdo-nxYoPQea_-25" value="&#xa;BD Murex" style="shape=module;align=left;spacingLeft=20;align=center;verticalAlign=top;strokeColor=#000000;fillColor=none;fontSize=14;" vertex="1" parent="3hhL7Vpwdo-nxYoPQea_-1">
          <mxGeometry x="1219" y="800" width="150" height="70" as="geometry" />
        </mxCell>
        <mxCell id="3hhL7Vpwdo-nxYoPQea_-26" value="" style="endArrow=none;html=1;entryX=0.65;entryY=0.998;entryDx=0;entryDy=0;entryPerimeter=0;" edge="1" parent="3hhL7Vpwdo-nxYoPQea_-1">
          <mxGeometry width="50" height="50" relative="1" as="geometry">
            <mxPoint x="441" y="418" as="sourcePoint" />
            <mxPoint x="479.3799999999999" y="417.5" as="targetPoint" />
          </mxGeometry>
        </mxCell>
        <mxCell id="3hhL7Vpwdo-nxYoPQea_-27" value="" style="endArrow=none;html=1;entryX=0.65;entryY=0.998;entryDx=0;entryDy=0;entryPerimeter=0;" edge="1" parent="3hhL7Vpwdo-nxYoPQea_-1">
          <mxGeometry width="50" height="50" relative="1" as="geometry">
            <mxPoint x="671" y="415.21000000000004" as="sourcePoint" />
            <mxPoint x="709.3799999999999" y="414.71000000000004" as="targetPoint" />
          </mxGeometry>
        </mxCell>
        <mxCell id="3hhL7Vpwdo-nxYoPQea_-28" value="" style="endArrow=none;html=1;entryX=0.65;entryY=0.998;entryDx=0;entryDy=0;entryPerimeter=0;" edge="1" parent="3hhL7Vpwdo-nxYoPQea_-1">
          <mxGeometry width="50" height="50" relative="1" as="geometry">
            <mxPoint x="901.62" y="415.21000000000004" as="sourcePoint" />
            <mxPoint x="939.9999999999999" y="414.71000000000004" as="targetPoint" />
          </mxGeometry>
        </mxCell>
        <mxCell id="3hhL7Vpwdo-nxYoPQea_-29" value="" style="endArrow=none;html=1;exitX=0.698;exitY=1;exitDx=0;exitDy=0;exitPerimeter=0;" edge="1" parent="3hhL7Vpwdo-nxYoPQea_-1">
          <mxGeometry width="50" height="50" relative="1" as="geometry">
            <mxPoint x="1388" y="424.69999999999993" as="sourcePoint" />
            <mxPoint x="1360" y="425" as="targetPoint" />
          </mxGeometry>
        </mxCell>
        <mxCell id="3hhL7Vpwdo-nxYoPQea_-30" value="" style="endArrow=none;html=1;exitX=0.698;exitY=1;exitDx=0;exitDy=0;exitPerimeter=0;entryX=0.7;entryY=0;entryDx=0;entryDy=0;entryPerimeter=0;" edge="1" parent="3hhL7Vpwdo-nxYoPQea_-1">
          <mxGeometry width="50" height="50" relative="1" as="geometry">
            <mxPoint x="1613" y="424.69999999999993" as="sourcePoint" />
            <mxPoint x="1581" y="425" as="targetPoint" />
          </mxGeometry>
        </mxCell>
        <mxCell id="3hhL7Vpwdo-nxYoPQea_-31" value="" style="endArrow=none;html=1;exitX=0.698;exitY=1;exitDx=0;exitDy=0;exitPerimeter=0;entryX=0.7;entryY=0;entryDx=0;entryDy=0;entryPerimeter=0;" edge="1" parent="3hhL7Vpwdo-nxYoPQea_-1">
          <mxGeometry width="50" height="50" relative="1" as="geometry">
            <mxPoint x="1837" y="419.99999999999994" as="sourcePoint" />
            <mxPoint x="1805" y="420.3" as="targetPoint" />
          </mxGeometry>
        </mxCell>
        <mxCell id="3hhL7Vpwdo-nxYoPQea_-32" value="" style="endArrow=none;html=1;exitX=0.628;exitY=1.005;exitDx=0;exitDy=0;exitPerimeter=0;entryX=0.629;entryY=0.001;entryDx=0;entryDy=0;entryPerimeter=0;" edge="1" parent="3hhL7Vpwdo-nxYoPQea_-1" source="3hhL7Vpwdo-nxYoPQea_-14" target="3hhL7Vpwdo-nxYoPQea_-12">
          <mxGeometry width="50" height="50" relative="1" as="geometry">
            <mxPoint x="1160" y="414.7099999999999" as="sourcePoint" />
            <mxPoint x="1132" y="415" as="targetPoint" />
          </mxGeometry>
        </mxCell>
        <mxCell id="3hhL7Vpwdo-nxYoPQea_-33" value="" style="endArrow=none;html=1;entryX=0.63;entryY=-0.003;entryDx=0;entryDy=0;entryPerimeter=0;" edge="1" parent="3hhL7Vpwdo-nxYoPQea_-1" target="3hhL7Vpwdo-nxYoPQea_-3">
          <mxGeometry width="50" height="50" relative="1" as="geometry">
            <mxPoint x="1180" y="834" as="sourcePoint" />
            <mxPoint x="1120" y="834" as="targetPoint" />
          </mxGeometry>
        </mxCell>
        <mxCell id="3hhL7Vpwdo-nxYoPQea_-34" value="" style="endArrow=none;html=1;strokeWidth=3;" edge="1" parent="3hhL7Vpwdo-nxYoPQea_-1">
          <mxGeometry width="50" height="50" relative="1" as="geometry">
            <mxPoint x="1160" y="519" as="sourcePoint" />
            <mxPoint x="1160" y="599" as="targetPoint" />
          </mxGeometry>
        </mxCell>
        <mxCell id="3hhL7Vpwdo-nxYoPQea_-35" value="Data Guard" style="text;html=1;strokeColor=none;fillColor=none;align=center;verticalAlign=middle;whiteSpace=wrap;rounded=0;dashed=1;" vertex="1" parent="3hhL7Vpwdo-nxYoPQea_-1">
          <mxGeometry x="1108" y="813" width="70" height="20" as="geometry" />
        </mxCell>
      </root>
    </mxGraphModel>
  </diagram>
  <diagram id="KVP8eh5fGI2tSJ1NM89I" name="Diagrama de componentes tecnicos">
    <mxGraphModel dx="852" dy="392" grid="1" gridSize="10" guides="1" tooltips="1" connect="1" arrows="1" fold="1" page="1" pageScale="1" pageWidth="827" pageHeight="1169" math="0" shadow="0">
      <root>
        <mxCell id="iilSZ67OBJvXaSkP7CUS-0" />
        <mxCell id="iilSZ67OBJvXaSkP7CUS-1" parent="iilSZ67OBJvXaSkP7CUS-0" />
        <mxCell id="iilSZ67OBJvXaSkP7CUS-2" value="&lt;div&gt;&lt;font style=&quot;font-size: 25px&quot;&gt;Actores&lt;/font&gt;&lt;/div&gt;" style="html=1;shadow=0;dashed=0;shape=mxgraph.bootstrap.rrect;rSize=5;strokeWidth=1;whiteSpace=wrap;align=center;verticalAlign=middle;spacingLeft=0;fontStyle=0;fontSize=14;spacing=21;fillColor=#647687;strokeColor=#314354;fontColor=#ffffff;" vertex="1" parent="iilSZ67OBJvXaSkP7CUS-1">
          <mxGeometry x="260" y="150" width="140" height="40" as="geometry" />
        </mxCell>
        <mxCell id="iilSZ67OBJvXaSkP7CUS-3" value="&lt;div&gt;&lt;font style=&quot;font-size: 25px&quot;&gt;Punto de Acceso&lt;/font&gt;&lt;/div&gt;" style="html=1;shadow=0;dashed=0;shape=mxgraph.bootstrap.rrect;rSize=5;strokeWidth=1;whiteSpace=wrap;align=center;verticalAlign=middle;spacingLeft=0;fontStyle=0;fontSize=14;spacing=21;fillColor=#647687;strokeColor=#314354;fontColor=#ffffff;" vertex="1" parent="iilSZ67OBJvXaSkP7CUS-1">
          <mxGeometry x="440" y="150" width="250" height="40" as="geometry" />
        </mxCell>
        <mxCell id="iilSZ67OBJvXaSkP7CUS-4" value="&lt;div&gt;&lt;font style=&quot;font-size: 25px&quot;&gt;Componentes&lt;/font&gt;&lt;/div&gt;" style="html=1;shadow=0;dashed=0;shape=mxgraph.bootstrap.rrect;rSize=5;strokeWidth=1;whiteSpace=wrap;align=center;verticalAlign=middle;spacingLeft=0;fontStyle=0;fontSize=14;spacing=21;fillColor=#647687;strokeColor=#314354;fontColor=#ffffff;" vertex="1" parent="iilSZ67OBJvXaSkP7CUS-1">
          <mxGeometry x="750" y="150" width="550" height="40" as="geometry" />
        </mxCell>
        <mxCell id="iilSZ67OBJvXaSkP7CUS-5" style="edgeStyle=orthogonalEdgeStyle;rounded=0;orthogonalLoop=1;jettySize=auto;html=1;exitX=0.5;exitY=0.5;exitDx=0;exitDy=0;exitPerimeter=0;fontSize=14;fontColor=#000000;endArrow=none;endFill=0;" edge="1" parent="iilSZ67OBJvXaSkP7CUS-1" source="iilSZ67OBJvXaSkP7CUS-6" target="iilSZ67OBJvXaSkP7CUS-8">
          <mxGeometry relative="1" as="geometry" />
        </mxCell>
        <mxCell id="iilSZ67OBJvXaSkP7CUS-6" value="Usuario" style="shape=umlActor;verticalLabelPosition=bottom;labelBackgroundColor=#ffffff;verticalAlign=top;html=1;strokeColor=#000000;fillColor=#999999;fontSize=14;" vertex="1" parent="iilSZ67OBJvXaSkP7CUS-1">
          <mxGeometry x="315" y="275" width="30" height="60" as="geometry" />
        </mxCell>
        <mxCell id="iilSZ67OBJvXaSkP7CUS-7" style="edgeStyle=orthogonalEdgeStyle;rounded=0;orthogonalLoop=1;jettySize=auto;html=1;endArrow=none;endFill=0;fontSize=14;fontColor=#000000;" edge="1" parent="iilSZ67OBJvXaSkP7CUS-1" source="iilSZ67OBJvXaSkP7CUS-8" target="iilSZ67OBJvXaSkP7CUS-11">
          <mxGeometry relative="1" as="geometry" />
        </mxCell>
        <mxCell id="iilSZ67OBJvXaSkP7CUS-8" value="&lt;b&gt;Estación de usuario&lt;br&gt;(Windows)&lt;/b&gt;" style="verticalAlign=top;align=center;spacingTop=8;spacingLeft=2;spacingRight=12;shape=cube;size=10;direction=south;fontStyle=0;html=1;strokeColor=#000000;fillColor=none;fontSize=14;" vertex="1" parent="iilSZ67OBJvXaSkP7CUS-1">
          <mxGeometry x="460" y="230" width="190" height="150" as="geometry" />
        </mxCell>
        <mxCell id="iilSZ67OBJvXaSkP7CUS-9" value="&lt;&lt;Componente&gt;&gt;&#xa;Emulador" style="shape=module;align=left;spacingLeft=20;align=center;verticalAlign=top;strokeColor=#000000;fillColor=none;fontSize=14;" vertex="1" parent="iilSZ67OBJvXaSkP7CUS-1">
          <mxGeometry x="470" y="290" width="150" height="70" as="geometry" />
        </mxCell>
        <mxCell id="iilSZ67OBJvXaSkP7CUS-10" value="SFTP" style="edgeStyle=orthogonalEdgeStyle;rounded=0;orthogonalLoop=1;jettySize=auto;html=1;exitX=0;exitY=0;exitDx=65;exitDy=0;exitPerimeter=0;endArrow=none;endFill=0;fontSize=14;fontColor=#000000;" edge="1" parent="iilSZ67OBJvXaSkP7CUS-1" source="iilSZ67OBJvXaSkP7CUS-11" target="iilSZ67OBJvXaSkP7CUS-14">
          <mxGeometry relative="1" as="geometry" />
        </mxCell>
        <mxCell id="iilSZ67OBJvXaSkP7CUS-11" value="&lt;b&gt;SULEAS iSeries&lt;/b&gt;" style="verticalAlign=top;align=center;spacingTop=8;spacingLeft=2;spacingRight=12;shape=cube;size=10;direction=south;fontStyle=0;html=1;strokeColor=#000000;fillColor=none;fontSize=14;" vertex="1" parent="iilSZ67OBJvXaSkP7CUS-1">
          <mxGeometry x="760" y="235" width="200" height="140" as="geometry" />
        </mxCell>
        <mxCell id="iilSZ67OBJvXaSkP7CUS-12" value="&lt;&lt;Aplicación&gt;&gt;&#xa;DELFIN" style="shape=module;align=left;spacingLeft=20;align=center;verticalAlign=top;strokeColor=#B20000;fillColor=none;fontSize=14;fontColor=#000000;strokeWidth=2;fontStyle=0" vertex="1" parent="iilSZ67OBJvXaSkP7CUS-1">
          <mxGeometry x="790" y="280" width="140" height="60" as="geometry" />
        </mxCell>
        <mxCell id="iilSZ67OBJvXaSkP7CUS-13" value="MQ" style="edgeStyle=orthogonalEdgeStyle;rounded=0;orthogonalLoop=1;jettySize=auto;html=1;entryX=0.63;entryY=-0.014;entryDx=0;entryDy=0;entryPerimeter=0;endArrow=none;endFill=0;fontSize=14;fontColor=#000000;" edge="1" parent="iilSZ67OBJvXaSkP7CUS-1" source="iilSZ67OBJvXaSkP7CUS-14" target="iilSZ67OBJvXaSkP7CUS-17">
          <mxGeometry relative="1" as="geometry">
            <Array as="points">
              <mxPoint x="1005" y="410" />
              <mxPoint x="1005" y="528" />
            </Array>
          </mxGeometry>
        </mxCell>
        <mxCell id="iilSZ67OBJvXaSkP7CUS-14" value="&lt;b&gt;MEDELLIN (iSeries)&lt;/b&gt;" style="verticalAlign=top;align=center;spacingTop=8;spacingLeft=2;spacingRight=12;shape=cube;size=10;direction=south;fontStyle=0;html=1;strokeColor=#000000;fillColor=none;fontSize=14;" vertex="1" parent="iilSZ67OBJvXaSkP7CUS-1">
          <mxGeometry x="1070" y="230" width="200" height="270" as="geometry" />
        </mxCell>
        <mxCell id="iilSZ67OBJvXaSkP7CUS-15" value="&lt;&lt;Componente&gt;&gt;&#xa;TAC" style="shape=module;align=left;spacingLeft=20;align=center;verticalAlign=top;strokeColor=#B20000;fillColor=none;fontSize=14;fontColor=#000000;strokeWidth=2;fontStyle=0" vertex="1" parent="iilSZ67OBJvXaSkP7CUS-1">
          <mxGeometry x="1090" y="280" width="140" height="60" as="geometry" />
        </mxCell>
        <mxCell id="iilSZ67OBJvXaSkP7CUS-16" value="&lt;&lt;Módulo&gt;&gt;&#xa;BVL - Grupo &#xa;de Riesgos" style="shape=module;align=left;spacingLeft=20;align=center;verticalAlign=top;strokeColor=#CC0000;fillColor=#DBDBDB;fontSize=14;fontColor=#333333;strokeWidth=2;fontStyle=0" vertex="1" parent="iilSZ67OBJvXaSkP7CUS-1">
          <mxGeometry x="1090" y="400" width="140" height="70" as="geometry" />
        </mxCell>
        <mxCell id="iilSZ67OBJvXaSkP7CUS-17" value="&lt;b&gt;WAS (pSeries)&lt;/b&gt;" style="verticalAlign=top;align=center;spacingTop=8;spacingLeft=2;spacingRight=12;shape=cube;size=10;direction=south;fontStyle=0;html=1;strokeColor=#000000;fillColor=none;fontSize=14;" vertex="1" parent="iilSZ67OBJvXaSkP7CUS-1">
          <mxGeometry x="760" y="440" width="200" height="140" as="geometry" />
        </mxCell>
        <mxCell id="iilSZ67OBJvXaSkP7CUS-18" value="&lt;&lt;Componente&gt;&gt;&#xa;Cliente MQ" style="shape=module;align=left;spacingLeft=20;align=center;verticalAlign=top;strokeColor=#B20000;fillColor=none;fontSize=14;fontColor=#000000;strokeWidth=2;fontStyle=0" vertex="1" parent="iilSZ67OBJvXaSkP7CUS-1">
          <mxGeometry x="790" y="490" width="140" height="60" as="geometry" />
        </mxCell>
        <mxCell id="iilSZ67OBJvXaSkP7CUS-19" value="Telnet" style="text;html=1;align=center;verticalAlign=middle;resizable=0;points=[];autosize=1;fontSize=14;fontColor=#000000;" vertex="1" parent="iilSZ67OBJvXaSkP7CUS-1">
          <mxGeometry x="680" y="280" width="50" height="20" as="geometry" />
        </mxCell>
        <mxCell id="iilSZ67OBJvXaSkP7CUS-20" value="&lt;b&gt;&lt;font&gt;&lt;font style=&quot;font-size: 14px&quot;&gt;CONVENCIONES&lt;/font&gt;&lt;br&gt;&lt;/font&gt;&lt;/b&gt;" style="rounded=1;whiteSpace=wrap;html=1;strokeColor=#666666;strokeWidth=2;fillColor=#f5f5f5;fontSize=14;fontColor=#333333;verticalAlign=top;" vertex="1" parent="iilSZ67OBJvXaSkP7CUS-1">
          <mxGeometry x="250" y="630" width="380" height="150" as="geometry" />
        </mxCell>
        <mxCell id="iilSZ67OBJvXaSkP7CUS-21" value="" style="whiteSpace=wrap;html=1;aspect=fixed;strokeWidth=2;fontSize=14;" vertex="1" parent="iilSZ67OBJvXaSkP7CUS-1">
          <mxGeometry x="285" y="745" width="20" height="20" as="geometry" />
        </mxCell>
        <mxCell id="iilSZ67OBJvXaSkP7CUS-22" value="" style="whiteSpace=wrap;html=1;aspect=fixed;strokeColor=#CC0000;strokeWidth=2;fillColor=#ffffff;fontSize=14;fontColor=#000000;" vertex="1" parent="iilSZ67OBJvXaSkP7CUS-1">
          <mxGeometry x="284" y="706" width="20" height="20" as="geometry" />
        </mxCell>
        <mxCell id="iilSZ67OBJvXaSkP7CUS-23" value="" style="whiteSpace=wrap;html=1;aspect=fixed;strokeColor=#CC0000;strokeWidth=2;fillColor=#DBDBDB;fontSize=14;fontColor=#000000;" vertex="1" parent="iilSZ67OBJvXaSkP7CUS-1">
          <mxGeometry x="285" y="670" width="20" height="20" as="geometry" />
        </mxCell>
        <mxCell id="iilSZ67OBJvXaSkP7CUS-24" value="&lt;font style=&quot;font-size: 14px&quot;&gt;Componentes Nuevos&lt;/font&gt;" style="text;html=1;strokeColor=none;fillColor=none;align=left;verticalAlign=middle;whiteSpace=wrap;rounded=0;fontSize=20;fontColor=#000000;" vertex="1" parent="iilSZ67OBJvXaSkP7CUS-1">
          <mxGeometry x="330" y="665" width="242" height="30" as="geometry" />
        </mxCell>
        <mxCell id="iilSZ67OBJvXaSkP7CUS-25" value="&lt;font style=&quot;font-size: 14px&quot;&gt;Componentes Modificados o Parametrizados&lt;/font&gt;" style="text;html=1;strokeColor=none;fillColor=none;align=left;verticalAlign=middle;whiteSpace=wrap;rounded=0;fontSize=20;fontColor=#000000;" vertex="1" parent="iilSZ67OBJvXaSkP7CUS-1">
          <mxGeometry x="330" y="701" width="320" height="30" as="geometry" />
        </mxCell>
        <mxCell id="iilSZ67OBJvXaSkP7CUS-26" value="&lt;font style=&quot;font-size: 14px&quot;&gt;Componentes Existentes&lt;/font&gt;" style="text;html=1;strokeColor=none;fillColor=none;align=left;verticalAlign=middle;whiteSpace=wrap;rounded=0;fontSize=20;fontColor=#000000;" vertex="1" parent="iilSZ67OBJvXaSkP7CUS-1">
          <mxGeometry x="330" y="740" width="242" height="30" as="geometry" />
        </mxCell>
        <mxCell id="iilSZ67OBJvXaSkP7CUS-27" value="" style="endArrow=none;html=1;" edge="1" parent="iilSZ67OBJvXaSkP7CUS-1">
          <mxGeometry width="50" height="50" relative="1" as="geometry">
            <mxPoint x="250" y="800" as="sourcePoint" />
            <mxPoint x="270" y="800" as="targetPoint" />
          </mxGeometry>
        </mxCell>
        <mxCell id="iilSZ67OBJvXaSkP7CUS-28" value="" style="endArrow=none;html=1;" edge="1" parent="iilSZ67OBJvXaSkP7CUS-1">
          <mxGeometry width="50" height="50" relative="1" as="geometry">
            <mxPoint x="230" y="750" as="sourcePoint" />
            <mxPoint x="230" y="730" as="targetPoint" />
          </mxGeometry>
        </mxCell>
      </root>
    </mxGraphModel>
  </diagram>
  <diagram id="FfJtjLnE1aeO3OPjS0Ka" name="Diagrama de Vista Funcional">
    <mxGraphModel dx="1847" dy="750" grid="1" gridSize="10" guides="1" tooltips="1" connect="1" arrows="1" fold="1" page="1" pageScale="1" pageWidth="827" pageHeight="1169" math="0" shadow="0">
      <root>
        <mxCell id="8SQuyNqs2tthoGrjATvw-0" />
        <mxCell id="8SQuyNqs2tthoGrjATvw-1" parent="8SQuyNqs2tthoGrjATvw-0" />
        <mxCell id="8SQuyNqs2tthoGrjATvw-2" value="Message Broker" style="rounded=0;whiteSpace=wrap;html=1;fontSize=18;verticalAlign=top;" vertex="1" parent="8SQuyNqs2tthoGrjATvw-1">
          <mxGeometry x="1151" y="230" width="240" height="310" as="geometry" />
        </mxCell>
        <mxCell id="8SQuyNqs2tthoGrjATvw-3" value="Iseries Medellín" style="rounded=0;whiteSpace=wrap;html=1;fontSize=18;verticalAlign=top;" vertex="1" parent="8SQuyNqs2tthoGrjATvw-1">
          <mxGeometry x="1411" y="230" width="220" height="170" as="geometry" />
        </mxCell>
        <mxCell id="8SQuyNqs2tthoGrjATvw-4" value="&lt;div&gt;&lt;font style=&quot;font-size: 25px&quot;&gt;Actores&lt;/font&gt;&lt;/div&gt;" style="html=1;shadow=0;dashed=0;shape=mxgraph.bootstrap.rrect;rSize=5;strokeWidth=1;whiteSpace=wrap;align=center;verticalAlign=middle;spacingLeft=0;fontStyle=0;fontSize=14;spacing=21;fillColor=#647687;strokeColor=#314354;fontColor=#ffffff;" vertex="1" parent="8SQuyNqs2tthoGrjATvw-1">
          <mxGeometry x="230" y="160" width="140" height="40" as="geometry" />
        </mxCell>
        <mxCell id="8SQuyNqs2tthoGrjATvw-5" value="&lt;div&gt;&lt;font style=&quot;font-size: 25px&quot;&gt;Punto de Acceso&lt;/font&gt;&lt;/div&gt;" style="html=1;shadow=0;dashed=0;shape=mxgraph.bootstrap.rrect;rSize=5;strokeWidth=1;whiteSpace=wrap;align=center;verticalAlign=middle;spacingLeft=0;fontStyle=0;fontSize=14;spacing=21;fillColor=#647687;strokeColor=#314354;fontColor=#ffffff;" vertex="1" parent="8SQuyNqs2tthoGrjATvw-1">
          <mxGeometry x="410" y="160" width="250" height="40" as="geometry" />
        </mxCell>
        <mxCell id="8SQuyNqs2tthoGrjATvw-6" value="&lt;div&gt;&lt;font style=&quot;font-size: 25px&quot;&gt;Componentes&lt;/font&gt;&lt;/div&gt;" style="html=1;shadow=0;dashed=0;shape=mxgraph.bootstrap.rrect;rSize=5;strokeWidth=1;whiteSpace=wrap;align=center;verticalAlign=middle;spacingLeft=0;fontStyle=0;fontSize=14;spacing=21;fillColor=#647687;strokeColor=#314354;fontColor=#ffffff;" vertex="1" parent="8SQuyNqs2tthoGrjATvw-1">
          <mxGeometry x="720" y="160" width="940" height="40" as="geometry" />
        </mxCell>
        <mxCell id="8SQuyNqs2tthoGrjATvw-7" value="Usuario" style="shape=umlActor;verticalLabelPosition=bottom;labelBackgroundColor=#ffffff;verticalAlign=top;html=1;strokeColor=#000000;fillColor=#999999;fontSize=18;" vertex="1" parent="8SQuyNqs2tthoGrjATvw-1">
          <mxGeometry x="270" y="285" width="45" height="95" as="geometry" />
        </mxCell>
        <mxCell id="8SQuyNqs2tthoGrjATvw-8" value="&lt;&lt;Componente&gt;&gt;&#xa;Browser" style="shape=module;align=left;spacingLeft=20;align=center;verticalAlign=top;strokeColor=#000000;fillColor=none;fontSize=14;" vertex="1" parent="8SQuyNqs2tthoGrjATvw-1">
          <mxGeometry x="440" y="300" width="150" height="70" as="geometry" />
        </mxCell>
        <mxCell id="8SQuyNqs2tthoGrjATvw-9" value="&lt;&lt;Aplicación&gt;&gt;&#xa;JWAlk" style="shape=module;align=left;spacingLeft=20;align=center;verticalAlign=top;strokeColor=#B20000;fillColor=none;fontSize=14;fontColor=#000000;strokeWidth=2;fontStyle=0" vertex="1" parent="8SQuyNqs2tthoGrjATvw-1">
          <mxGeometry x="730" y="400" width="150" height="70" as="geometry" />
        </mxCell>
        <mxCell id="8SQuyNqs2tthoGrjATvw-10" value="&lt;&lt;Módulo&gt;&gt;&#xa;BVL - Grupo &#xa;de Riesgos" style="shape=module;align=left;spacingLeft=20;align=center;verticalAlign=top;strokeColor=#CC0000;fillColor=#DBDBDB;fontSize=14;fontColor=#333333;strokeWidth=2;fontStyle=0" vertex="1" parent="8SQuyNqs2tthoGrjATvw-1">
          <mxGeometry x="1461" y="443" width="140" height="70" as="geometry" />
        </mxCell>
        <mxCell id="8SQuyNqs2tthoGrjATvw-11" value="&lt;b&gt;&lt;font style=&quot;font-size: 17px&quot;&gt;CONVENCIONES&lt;br&gt;&lt;/font&gt;&lt;/b&gt;" style="rounded=1;whiteSpace=wrap;html=1;strokeColor=#666666;strokeWidth=2;fillColor=#f5f5f5;fontSize=14;fontColor=#333333;verticalAlign=top;" vertex="1" parent="8SQuyNqs2tthoGrjATvw-1">
          <mxGeometry x="260" y="720" width="450" height="159" as="geometry" />
        </mxCell>
        <mxCell id="8SQuyNqs2tthoGrjATvw-12" value="" style="whiteSpace=wrap;html=1;aspect=fixed;strokeWidth=2;fontSize=14;" vertex="1" parent="8SQuyNqs2tthoGrjATvw-1">
          <mxGeometry x="284" y="828" width="30" height="30" as="geometry" />
        </mxCell>
        <mxCell id="8SQuyNqs2tthoGrjATvw-13" value="" style="whiteSpace=wrap;html=1;aspect=fixed;strokeColor=#CC0000;strokeWidth=2;fillColor=#ffffff;fontSize=14;fontColor=#000000;" vertex="1" parent="8SQuyNqs2tthoGrjATvw-1">
          <mxGeometry x="284" y="788" width="30" height="30" as="geometry" />
        </mxCell>
        <mxCell id="8SQuyNqs2tthoGrjATvw-14" value="" style="whiteSpace=wrap;html=1;aspect=fixed;strokeColor=#CC0000;strokeWidth=2;fillColor=#DBDBDB;fontSize=14;fontColor=#000000;" vertex="1" parent="8SQuyNqs2tthoGrjATvw-1">
          <mxGeometry x="284" y="748" width="30" height="30" as="geometry" />
        </mxCell>
        <mxCell id="8SQuyNqs2tthoGrjATvw-15" value="&lt;font style=&quot;font-size: 18px&quot;&gt;Componentes Nuevos&lt;/font&gt;" style="text;html=1;strokeColor=none;fillColor=none;align=left;verticalAlign=middle;whiteSpace=wrap;rounded=0;fontSize=20;fontColor=#000000;" vertex="1" parent="8SQuyNqs2tthoGrjATvw-1">
          <mxGeometry x="340" y="749" width="242" height="30" as="geometry" />
        </mxCell>
        <mxCell id="8SQuyNqs2tthoGrjATvw-16" value="&lt;font style=&quot;font-size: 18px&quot;&gt;Componentes Modificados o Parametrizados&lt;/font&gt;" style="text;html=1;strokeColor=none;fillColor=none;align=left;verticalAlign=middle;whiteSpace=wrap;rounded=0;fontSize=20;fontColor=#000000;" vertex="1" parent="8SQuyNqs2tthoGrjATvw-1">
          <mxGeometry x="340" y="789" width="410" height="30" as="geometry" />
        </mxCell>
        <mxCell id="8SQuyNqs2tthoGrjATvw-17" value="&lt;font style=&quot;font-size: 18px&quot;&gt;Componentes Existentes&lt;/font&gt;" style="text;html=1;strokeColor=none;fillColor=none;align=left;verticalAlign=middle;whiteSpace=wrap;rounded=0;fontSize=20;fontColor=#000000;" vertex="1" parent="8SQuyNqs2tthoGrjATvw-1">
          <mxGeometry x="340" y="829" width="242" height="30" as="geometry" />
        </mxCell>
        <mxCell id="8SQuyNqs2tthoGrjATvw-18" value="" style="edgeStyle=orthogonalEdgeStyle;rounded=0;orthogonalLoop=1;jettySize=auto;html=1;dashed=1;endArrow=open;endFill=0;fontSize=18;entryX=0;entryY=0;entryDx=0;entryDy=35;entryPerimeter=0;" edge="1" parent="8SQuyNqs2tthoGrjATvw-1" source="8SQuyNqs2tthoGrjATvw-19" target="8SQuyNqs2tthoGrjATvw-28">
          <mxGeometry relative="1" as="geometry">
            <mxPoint x="670" y="565" as="targetPoint" />
          </mxGeometry>
        </mxCell>
        <mxCell id="8SQuyNqs2tthoGrjATvw-19" value="&lt;&lt;Componente&gt;&gt;&#xa;Emulador" style="shape=module;align=left;spacingLeft=20;align=center;verticalAlign=top;strokeColor=#000000;fillColor=none;fontSize=14;" vertex="1" parent="8SQuyNqs2tthoGrjATvw-1">
          <mxGeometry x="440" y="530" width="150" height="70" as="geometry" />
        </mxCell>
        <mxCell id="8SQuyNqs2tthoGrjATvw-20" value="" style="endArrow=open;html=1;fontSize=18;dashed=1;endFill=0;entryX=0;entryY=0;entryDx=0;entryDy=35;entryPerimeter=0;" edge="1" parent="8SQuyNqs2tthoGrjATvw-1" target="8SQuyNqs2tthoGrjATvw-8">
          <mxGeometry width="50" height="50" relative="1" as="geometry">
            <mxPoint x="330" y="335" as="sourcePoint" />
            <mxPoint x="430" y="327.5" as="targetPoint" />
          </mxGeometry>
        </mxCell>
        <mxCell id="8SQuyNqs2tthoGrjATvw-21" value="" style="endArrow=open;html=1;fontSize=18;dashed=1;endFill=0;entryX=0;entryY=0;entryDx=0;entryDy=35;entryPerimeter=0;" edge="1" parent="8SQuyNqs2tthoGrjATvw-1">
          <mxGeometry width="50" height="50" relative="1" as="geometry">
            <mxPoint x="319" y="422" as="sourcePoint" />
            <mxPoint x="439" y="542" as="targetPoint" />
            <Array as="points">
              <mxPoint x="319" y="542" />
            </Array>
          </mxGeometry>
        </mxCell>
        <mxCell id="8SQuyNqs2tthoGrjATvw-22" value="&lt;&lt;Servicio&gt;&gt;&#xa;Sincronización" style="shape=module;align=left;spacingLeft=20;align=center;verticalAlign=top;strokeColor=#000000;fillColor=none;fontSize=14;" vertex="1" parent="8SQuyNqs2tthoGrjATvw-1">
          <mxGeometry x="1195" y="289" width="150" height="70" as="geometry" />
        </mxCell>
        <mxCell id="8SQuyNqs2tthoGrjATvw-23" style="edgeStyle=orthogonalEdgeStyle;rounded=0;orthogonalLoop=1;jettySize=auto;html=1;entryX=1;entryY=0.25;entryDx=0;entryDy=0;dashed=1;startArrow=open;startFill=0;endArrow=open;endFill=0;fontSize=18;exitX=0;exitY=0.307;exitDx=0;exitDy=0;exitPerimeter=0;" edge="1" parent="8SQuyNqs2tthoGrjATvw-1">
          <mxGeometry relative="1" as="geometry">
            <mxPoint x="1441" y="301.49" as="sourcePoint" />
            <mxPoint x="1345" y="301.5" as="targetPoint" />
          </mxGeometry>
        </mxCell>
        <mxCell id="8SQuyNqs2tthoGrjATvw-24" value="&lt;&lt;Aplicación&gt;&gt;&#xa;SAP CRM" style="shape=module;align=left;spacingLeft=20;align=center;verticalAlign=top;strokeColor=#000000;fillColor=none;fontSize=14;" vertex="1" parent="8SQuyNqs2tthoGrjATvw-1">
          <mxGeometry x="1441" y="285" width="150" height="70" as="geometry" />
        </mxCell>
        <mxCell id="8SQuyNqs2tthoGrjATvw-25" value="&lt;&lt;Servicio&gt;&gt;&#xa;Recuperar Datos&#xa; Cliente" style="shape=module;align=left;spacingLeft=20;align=center;verticalAlign=top;strokeColor=#000000;fillColor=none;fontSize=14;" vertex="1" parent="8SQuyNqs2tthoGrjATvw-1">
          <mxGeometry x="1194" y="406" width="150" height="70" as="geometry" />
        </mxCell>
        <mxCell id="8SQuyNqs2tthoGrjATvw-26" value="&lt;&lt;Aplicación&gt;&gt;&#xa;SAP CRM" style="shape=module;align=left;spacingLeft=20;align=center;verticalAlign=top;strokeColor=#000000;fillColor=none;fontSize=14;" vertex="1" parent="8SQuyNqs2tthoGrjATvw-1">
          <mxGeometry x="730" y="285" width="150" height="70" as="geometry" />
        </mxCell>
        <mxCell id="8SQuyNqs2tthoGrjATvw-27" value="&lt;&lt;Aplicación&gt;&gt;&#xa;DELFIN WEB" style="shape=module;align=left;spacingLeft=20;align=center;verticalAlign=top;strokeColor=#B20000;fillColor=none;fontSize=14;fontColor=#000000;strokeWidth=2;fontStyle=0" vertex="1" parent="8SQuyNqs2tthoGrjATvw-1">
          <mxGeometry x="945" y="400" width="150" height="70" as="geometry" />
        </mxCell>
        <mxCell id="8SQuyNqs2tthoGrjATvw-28" value="&lt;&lt;Aplicación&gt;&gt;&#xa;DELFIN" style="shape=module;align=left;spacingLeft=20;align=center;verticalAlign=top;strokeColor=#B20000;fillColor=none;fontSize=14;fontColor=#000000;strokeWidth=2;fontStyle=0" vertex="1" parent="8SQuyNqs2tthoGrjATvw-1">
          <mxGeometry x="730" y="530" width="150" height="70" as="geometry" />
        </mxCell>
        <mxCell id="8SQuyNqs2tthoGrjATvw-29" value="" style="edgeStyle=orthogonalEdgeStyle;rounded=0;orthogonalLoop=1;jettySize=auto;html=1;dashed=1;endArrow=open;endFill=0;fontSize=18;" edge="1" parent="8SQuyNqs2tthoGrjATvw-1" source="8SQuyNqs2tthoGrjATvw-30" target="8SQuyNqs2tthoGrjATvw-28">
          <mxGeometry relative="1" as="geometry" />
        </mxCell>
        <mxCell id="8SQuyNqs2tthoGrjATvw-30" value="&lt;&lt;Componente&gt;&gt;&#xa;STERLING" style="shape=module;align=left;spacingLeft=20;align=center;verticalAlign=top;strokeColor=#B20000;fillColor=none;fontSize=14;fontColor=#000000;strokeWidth=2;fontStyle=0" vertex="1" parent="8SQuyNqs2tthoGrjATvw-1">
          <mxGeometry x="945" y="530" width="150" height="70" as="geometry" />
        </mxCell>
        <mxCell id="8SQuyNqs2tthoGrjATvw-31" value="" style="endArrow=open;html=1;fontSize=18;dashed=1;endFill=0;entryX=0;entryY=0;entryDx=0;entryDy=35;entryPerimeter=0;" edge="1" parent="8SQuyNqs2tthoGrjATvw-1" target="8SQuyNqs2tthoGrjATvw-26">
          <mxGeometry width="50" height="50" relative="1" as="geometry">
            <mxPoint x="590" y="320" as="sourcePoint" />
            <mxPoint x="700" y="323" as="targetPoint" />
          </mxGeometry>
        </mxCell>
        <mxCell id="8SQuyNqs2tthoGrjATvw-32" value="" style="endArrow=open;html=1;fontSize=18;dashed=1;endFill=0;entryX=0;entryY=0;entryDx=0;entryDy=35;entryPerimeter=0;exitX=0.75;exitY=1;exitDx=0;exitDy=0;" edge="1" parent="8SQuyNqs2tthoGrjATvw-1" source="8SQuyNqs2tthoGrjATvw-8">
          <mxGeometry width="50" height="50" relative="1" as="geometry">
            <mxPoint x="610" y="380" as="sourcePoint" />
            <mxPoint x="730" y="432.5" as="targetPoint" />
            <Array as="points">
              <mxPoint x="553" y="433" />
            </Array>
          </mxGeometry>
        </mxCell>
        <mxCell id="8SQuyNqs2tthoGrjATvw-33" value="" style="endArrow=open;startArrow=open;html=1;dashed=1;fontSize=18;entryX=0;entryY=0;entryDx=0;entryDy=35;entryPerimeter=0;endFill=0;startFill=0;" edge="1" parent="8SQuyNqs2tthoGrjATvw-1" target="8SQuyNqs2tthoGrjATvw-22">
          <mxGeometry width="50" height="50" relative="1" as="geometry">
            <mxPoint x="880" y="324" as="sourcePoint" />
            <mxPoint x="1190" y="324" as="targetPoint" />
          </mxGeometry>
        </mxCell>
        <mxCell id="8SQuyNqs2tthoGrjATvw-34" value="" style="endArrow=open;html=1;dashed=1;fontSize=18;entryX=0.033;entryY=0.5;entryDx=0;entryDy=0;entryPerimeter=0;endFill=0;" edge="1" parent="8SQuyNqs2tthoGrjATvw-1">
          <mxGeometry width="50" height="50" relative="1" as="geometry">
            <mxPoint x="880" y="435" as="sourcePoint" />
            <mxPoint x="945.9499999999998" y="435" as="targetPoint" />
            <Array as="points" />
          </mxGeometry>
        </mxCell>
        <mxCell id="8SQuyNqs2tthoGrjATvw-35" value="" style="endArrow=classic;html=1;dashed=1;fontSize=18;exitX=0.5;exitY=1;exitDx=0;exitDy=0;entryX=0.5;entryY=0;entryDx=0;entryDy=0;" edge="1" parent="8SQuyNqs2tthoGrjATvw-1" source="8SQuyNqs2tthoGrjATvw-27" target="8SQuyNqs2tthoGrjATvw-28">
          <mxGeometry width="50" height="50" relative="1" as="geometry">
            <mxPoint x="1050" y="600" as="sourcePoint" />
            <mxPoint x="1100" y="550" as="targetPoint" />
            <Array as="points">
              <mxPoint x="1020" y="500" />
              <mxPoint x="805" y="500" />
            </Array>
          </mxGeometry>
        </mxCell>
        <mxCell id="8SQuyNqs2tthoGrjATvw-36" value="&lt;&lt;Componente&gt;&gt;&#xa;Sterling" style="shape=module;align=left;spacingLeft=20;align=center;verticalAlign=top;strokeColor=#000000;fillColor=none;fontSize=14;" vertex="1" parent="8SQuyNqs2tthoGrjATvw-1">
          <mxGeometry x="1461" y="580" width="150" height="70" as="geometry" />
        </mxCell>
        <mxCell id="8SQuyNqs2tthoGrjATvw-37" value="" style="endArrow=open;html=1;dashed=1;fontSize=18;exitX=0.06;exitY=0.857;exitDx=0;exitDy=0;entryX=0.5;entryY=1;entryDx=0;entryDy=0;exitPerimeter=0;endFill=0;" edge="1" parent="8SQuyNqs2tthoGrjATvw-1" source="8SQuyNqs2tthoGrjATvw-36" target="8SQuyNqs2tthoGrjATvw-28">
          <mxGeometry width="50" height="50" relative="1" as="geometry">
            <mxPoint x="1050" y="600" as="sourcePoint" />
            <mxPoint x="840" y="650" as="targetPoint" />
            <Array as="points">
              <mxPoint x="805" y="640" />
            </Array>
          </mxGeometry>
        </mxCell>
        <mxCell id="8SQuyNqs2tthoGrjATvw-38" value="" style="endArrow=open;html=1;dashed=1;fontSize=18;endFill=0;entryX=0.25;entryY=1;entryDx=0;entryDy=0;" edge="1" parent="8SQuyNqs2tthoGrjATvw-1" target="8SQuyNqs2tthoGrjATvw-10">
          <mxGeometry width="50" height="50" relative="1" as="geometry">
            <mxPoint x="1095" y="590" as="sourcePoint" />
            <mxPoint x="1500" y="520" as="targetPoint" />
            <Array as="points">
              <mxPoint x="1410" y="590" />
              <mxPoint x="1410" y="560" />
              <mxPoint x="1496" y="560" />
            </Array>
          </mxGeometry>
        </mxCell>
        <mxCell id="8SQuyNqs2tthoGrjATvw-39" value="" style="endArrow=open;html=1;dashed=1;fontSize=18;entryX=0.5;entryY=1;entryDx=0;entryDy=0;endFill=0;" edge="1" parent="8SQuyNqs2tthoGrjATvw-1" target="8SQuyNqs2tthoGrjATvw-10">
          <mxGeometry width="50" height="50" relative="1" as="geometry">
            <mxPoint x="1531" y="580" as="sourcePoint" />
            <mxPoint x="1100" y="550" as="targetPoint" />
          </mxGeometry>
        </mxCell>
        <mxCell id="8SQuyNqs2tthoGrjATvw-40" value="" style="endArrow=open;html=1;dashed=1;fontSize=18;exitX=1;exitY=1;exitDx=0;exitDy=0;entryX=0;entryY=0;entryDx=0;entryDy=35;entryPerimeter=0;endFill=0;" edge="1" parent="8SQuyNqs2tthoGrjATvw-1">
          <mxGeometry width="50" height="50" relative="1" as="geometry">
            <mxPoint x="1344" y="459" as="sourcePoint" />
            <mxPoint x="1461" y="461" as="targetPoint" />
          </mxGeometry>
        </mxCell>
        <mxCell id="8SQuyNqs2tthoGrjATvw-41" value="" style="endArrow=open;html=1;dashed=1;fontSize=18;entryX=0.25;entryY=0;entryDx=0;entryDy=0;endFill=0;" edge="1" parent="8SQuyNqs2tthoGrjATvw-1" source="8SQuyNqs2tthoGrjATvw-22" target="8SQuyNqs2tthoGrjATvw-10">
          <mxGeometry width="50" height="50" relative="1" as="geometry">
            <mxPoint x="1050" y="600" as="sourcePoint" />
            <mxPoint x="1100" y="550" as="targetPoint" />
            <Array as="points">
              <mxPoint x="1400" y="324" />
              <mxPoint x="1400" y="420" />
              <mxPoint x="1496" y="420" />
            </Array>
          </mxGeometry>
        </mxCell>
        <mxCell id="8SQuyNqs2tthoGrjATvw-42" style="edgeStyle=orthogonalEdgeStyle;rounded=0;orthogonalLoop=1;jettySize=auto;html=1;exitX=1;exitY=0.5;exitDx=0;exitDy=0;dashed=1;startArrow=open;startFill=0;endArrow=open;endFill=0;fontSize=18;" edge="1" parent="8SQuyNqs2tthoGrjATvw-1" source="8SQuyNqs2tthoGrjATvw-22">
          <mxGeometry relative="1" as="geometry">
            <mxPoint x="1345" y="324" as="targetPoint" />
          </mxGeometry>
        </mxCell>
        <mxCell id="8SQuyNqs2tthoGrjATvw-43" value="" style="endArrow=open;html=1;dashed=1;fontSize=18;entryX=0.25;entryY=0;entryDx=0;entryDy=0;exitX=0.25;exitY=1;exitDx=0;exitDy=0;endFill=0;" edge="1" parent="8SQuyNqs2tthoGrjATvw-1" source="8SQuyNqs2tthoGrjATvw-9" target="8SQuyNqs2tthoGrjATvw-28">
          <mxGeometry width="50" height="50" relative="1" as="geometry">
            <mxPoint x="860" y="370" as="sourcePoint" />
            <mxPoint x="910" y="320" as="targetPoint" />
          </mxGeometry>
        </mxCell>
      </root>
    </mxGraphModel>
  </diagram>
</mxfile>
